{
.appVersion = "3149";
.formatVersion = 3;
DisplayStrings = (
"
/Placeholder/Placeholder 
/Placeholder/Placeholder"
);
axes = (
{
name = Mutation;
tag = MUTA;
}
);
customParameters = (
{
name = "Enforce Compatibility Check";
value = 1;
},
{
name = "EditView Line Height";
value = 2859;
},
{
name = "Disable Subroutines";
value = 1;
},
{
name = fsType;
value = (
);
},
{
name = "Use Typo Metrics";
value = 1;
},
{
name = "Use Extension Kerning";
value = 1;
},
{
name = "Axis Mappings";
value = {
MUTA = {
0 = 0;
20 = 20;
40 = 40;
60 = 60;
};
};
}
);
date = "2022-12-15 00:13:02 +0000";
familyName = Kablammo;
featurePrefixes = (
{
automatic = 1;
code = "languagesystem DFLT dflt;

languagesystem latn dflt;
";
name = Languagesystems;
},
{
code = "@skipA = [space];
@A1 = [A ];
@A2 = [A.rev ];
";
name = caltClasses;
},
{
code = "lookup calt1 {
sub A by A.rev;
} calt1;
lookup calt2 {
  sub A.rev by A;
} calt2;
";
name = caltLookups;
}
);
features = (
{
automatic = 1;
code = "feature calt;
";
tag = aalt;
},
{
automatic = 1;
code = "lookup ccmp_latn_1 {
	lookupflag 0;
	sub brevecomb acutecomb by brevecomb_acutecomb;
	sub brevecomb gravecomb by brevecomb_gravecomb;
	sub brevecomb hookabovecomb by brevecomb_hookabovecomb;
	sub brevecomb tildecomb by brevecomb_tildecomb;
	sub circumflexcomb acutecomb by circumflexcomb_acutecomb;
	sub circumflexcomb gravecomb by circumflexcomb_gravecomb;
	sub circumflexcomb hookabovecomb by circumflexcomb_hookabovecomb;
	sub circumflexcomb tildecomb by circumflexcomb_tildecomb;
} ccmp_latn_1;

script latn;
lookup ccmp_latn_1;
";
tag = ccmp;
},
{
code = "lookup swap useExtension {
  sub @A1  @A1' lookup calt1;
  sub @A1 @skipA @A1' lookup calt1;
  sub @A1 @skipA @skipA @A1' lookup calt1;
  sub @A1 @skipA @skipA @skipA @A1' lookup calt1;
  sub @A1 @skipA @skipA @skipA @skipA @A1' lookup calt1;
  sub @A1 @skipA @skipA @skipA @skipA @skipA @A1' lookup calt1;
  sub @A1 @skipA @skipA @skipA @skipA @skipA @skipA @A1' lookup calt1;

glyphs = (
{
glyphname = A;
kernLeft = A;
kernRight = A;
lastChange = "2022-12-16 00:32:55 +0000";
layers = (
{
anchors = (
{
name = bottom;
pos = (656,74);
},
{
name = ogonek;
pos = (982,16);
},
{
name = top;
pos = (570,1364);
}
);
layerId = "7390BA8A-CD54-46A0-980C-73781B2212BF";
shapes = (
{
closed = 1;
nodes = (
(8,28,o),
(84,-76,o),
(220,-76,cs),
(308,-76,o),
(392,-18,o),
(408,106,cs),
(446,400,o),
(478,728,o),
(514,1040,cs),
(522,1106,o),
(546,1134,o),
(588,1134,cs),
(628,1134,o),
(646,1110,o),
(662,1046,cs),
(740,734,o),
(808,408,o),
(886,110,cs),
(902,46,o),
(934,16,o),
(982,16,cs),
(1048,16,o),
(1086,66,o),
(1064,150,cs),
(1036,256,o),
(967,519,o),
(905,751,cs),
(900,772,o),
(894,793,o),
(889,813,cs),
(881,841,o),
(874,868,o),
(867,895,cs),
(859,924,o),
(852,952,o),
(845,978,cs),
(839,1000,o),
(834,1021,o),
(828,1041,cs),
(822,1065,o),
(816,1087,o),
(811,1105,cs),
(807,1121,o),
(803,1135,o),
(800,1146,cs),
(762,1288,o),
(707,1372,o),
(567,1374,cs),
(450,1376,o),
(366,1330,o),
(320,1170,cs),
(262,968,o),
(206,766,o),
(152,568,c),
(284,552,o),
(332,532,o),
(332,486,cs),
(332,404,o),
(254,420,o),
(120,452,c),
(110,416,o),
(100,378,o),
(90,342,c),
(248,312,o),
(288,292,o),
(288,252,cs),
(288,172,o),
(190,192,o),
(60,226,c),
(54,206,o),
(50,186,o),
(44,166,cs)
);
},
{
closed = 1;
nodes = (
(562,372,o),
(700,382,o),
(838,396,cs),
(918,404,o),
(934,434,o),
(934,468,cs),
(934,508,o),
(912,550,o),
(826,544,cs),
(698,536,o),
(570,528,o),
(438,516,c),
(428,364,l)
);
},
{
closed = 1;
nodes = (
(968,240,o),
(988,238,o),
(1004,238,c),
(978,356,l),
(972,356,o),
(966,356,o),
(960,356,cs),
(924,356,o),
(906,328,o),
(906,300,cs),
(906,272,o),
(924,246,o),
(954,242,cs)
);
},
{
closed = 1;
nodes = (
(218,150,l),
(164,164,o),
(120,153,o),
(120,84,cs),
(120,47,o),
(118,24,o),
(160,4,c)
);
},
{
closed = 1;
nodes = (
(218,132,l),
(158,144,o),
(100,144,o),
(100,82,cs),
(100,17,o),
(114,4,o),
(178,-6,c)
);
},
{
closed = 1;
nodes = (
(1008,880,o),
(1062,908,o),
(1062,954,cs),
(1062,1052,o),
(952,1020,o),
(810,978,c),
(854,846,l)
);
},
{
closed = 1;
nodes = (
(1040,616,o),
(1092,630,o),
(1092,686,cs),
(1092,778,o),
(1016,766,o),
(876,736,c),
(896,602,l)
);
}
);
width = 1130;
},
{
anchors = (
{
name = bottom;
pos = (600,54);
},
{
name = ogonek;
pos = (1004,-140);
},
{
name = top;
pos = (644,1344);
}
);
layerId = "16FBD564-A0D0-4365-B77C-94A96DAC7D94";
shapes = (
{
closed = 1;
nodes = (
(12,104,o),
(54,30,o),
(140,30,cs),
(186,30,o),
(234,60,o),
(254,134,cs),
(312,360,o),
(372,612,o),
(434,850,cs),
(456,938,o),
(484,964,o),
(530,964,cs),
(578,964,o),
(600,930,o),
(628,852,cs),
(730,568,o),
(838,236,o),
(946,-62,cs),
(966,-116,o),
(1004,-140,o),
(1038,-140,cs),
(1082,-140,o),
(1120,-98,o),
(1106,-24,cs),
(1062,234,o),
(1012,502,o),
(960,768,c),
(868,742,o),
(768,722,o),
(768,810,cs),
(768,860,o),
(812,882,o),
(936,898,c),
(930,938,o),
(922,978,o),
(914,1018,c),
(782,994,o),
(686,976,o),
(686,1062,cs),
(686,1108,o),
(730,1132,o),
(890,1148,c),
(888,1164,o),
(884,1180,o),
(882,1196,cs),
(860,1314,o),
(770,1372,o),
(656,1374,cs),
(546,1376,o),
(456,1322,o),
(414,1212,cs),
(412,1207,o),
(399,1171,o),
(378,1115,cs),
(372,1098,o),
(365,1080,o),
(358,1060,cs),
(352,1044,o),
(346,1027,o),
(339,1009,cs),
(326,972,o),
(311,931,o),
(295,888,cs),
(289,872,o),
(283,855,o),
(277,839,cs),
(271,821,o),
(265,804,o),
(258,786,cs),
(170,543,o),
(72,273,o),
(44,196,cs)
);
},
{
closed = 1;
nodes = (
(316,494,o),
(388,486,o),
(460,482,cs),
(574,476,o),
(606,494,o),
(606,552,cs),
(606,612,o),
(560,624,o),
(468,628,cs),
(406,630,o),
(346,630,o),
(284,628,c),
(246,502,l)
);
},
{
closed = 1;
nodes = (
(446,222,o),
(664,200,o),
(888,180,c),
(848,332,l),
(658,352,o),
(462,370,o),
(288,384,cs),
(220,390,o),
(164,380,o),
(164,318,cs),
(164,278,o),
(204,252,o),
(266,244,cs)
);
},
{
closed = 1;
nodes = (
(387,1068,l),
(262,1122,o),
(146,1150,o),
(146,1056,cs),
(146,1009,o),
(195,978,o),
(330,922,c)
);
},
{
closed = 1;
nodes = (
(296,822,l),
(161,870,o),
(48,899,o),
(48,804,cs),
(48,758,o),
(101,734,o),
(260,690,c)
);
},
{
closed = 1;
nodes = (
(896,498,o),
(934,504,o),
(934,554,cs),
(934,660,o),
(894,660,o),
(792,642,c),
(822,492,l)
);
},
{
closed = 1;
nodes = (
(968,176,o),
(1006,182,o),
(1006,236,cs),
(1006,346,o),
(968,354,o),
(864,332,c),
(894,172,l)
);
}
);
width = 1130;
},
{
anchors = (
{
name = bottom;
pos = (519,94);
},
{
name = ogonek;
pos = (945,-54);
},
{
name = top;
pos = (641,1364);
}
);
layerId = "34BCA492-7EC7-4349-9547-1652F586AA1A";
shapes = (
{
closed = 1;
nodes = (
(39,100,o),
(67,40,o),
(125,40,cs),
(165,40,o),
(196,63,o),
(223,118,cs),
(330,339,o),
(442,586,o),
(555,816,cs),
(613,934,o),
(657,953,o),
(710,953,cs),
(768,953,o),
(790,922,o),
(798,830,cs),
(822,564,o),
(839,302,o),
(865,62,cs),
(873,-14,o),
(913,-54,o),
(965,-54,cs),
(1025,-54,o),
(1060,2,o),
(1051,76,cs),
(1030,246,o),
(998,504,o),
(967,737,cs),
(964,762,o),
(961,788,o),
(957,812,cs),
(955,834,o),
(952,855,o),
(949,875,cs),
(944,908,o),
(940,940,o),
(936,971,cs),
(933,992,o),
(930,1012,o),
(927,1032,cs),
(924,1056,o),
(921,1079,o),
(918,1100,cs),
(915,1124,o),
(912,1146,o),
(909,1166,cs),
(885,1325,o),
(792,1392,o),
(627,1394,cs),
(466,1396,o),
(376,1329,o),
(341,1213,cs),
(340,1208,o),
(339,1205,o),
(338,1200,c),
(522,1158,o),
(576,1126,o),
(576,1082,cs),
(576,992,o),
(443,1029,o),
(305,1088,c),
(294,1050,o),
(282,1008,o),
(270,962,c),
(416,926,o),
(457,894,o),
(457,858,cs),
(457,778,o),
(357,800,o),
(239,849,c),
(173,614,o),
(99,334,o),
(61,186,cs)
);
},
{
closed = 1;
nodes = (
(487,353,o),
(666,356,o),
(853,364,cs),
(907,366,o),
(937,388,o),
(937,442,cs),
(937,491,o),
(891,512,o),
(827,510,cs),
(675,506,o),
(502,499,o),
(331,492,c),
(293,350,l)
);
},
{
closed = 1;
nodes = (
(979,162,o),
(993,162,o),
(1005,162,c),
(1005,288,l),
(991,288,o),
(975,288,o),
(967,288,cs),
(925,288,o),
(899,266,o),
(899,226,cs),
(899,186,o),
(931,162,o),
(967,162,cs)
);
},
{
closed = 1;
nodes = (
(230,564,l),
(93,625,o),
(-39,658,o),
(-39,563,cs),
(-39,513,o),
(8,485,o),
(188,433,c)
);
},
{
closed = 1;
nodes = (
(287,462,l),
(209,490,o),
(167,460,o),
(167,384,cs),
(167,348,o),
(195,332,o),
(245,316,c)
);
},
{
closed = 1;
nodes = (
(931,594,o),
(963,600,o),
(963,648,cs),
(963,722,o),
(931,732,o),
(859,724,c),
(873,586,l)
);
},
{
closed = 1;
nodes = (
(1115,371,o),
(1159,384,o),
(1159,439,cs),
(1159,528,o),
(1105,522,o),
(937,516,c),
(944,370,l)
);
}
);
width = 1130;
},
{
anchors = (
{
name = bottom;
pos = (582,72);
},
{
name = ogonek;
pos = (1006,-60);
},
{
name = top;
pos = (632,1428);
}
);
layerId = "73BA353F-5B11-4DB0-9775-19E25D121032";
shapes = (
{
closed = 1;
nodes = (
(97,84,o),
(154,44,o),
(212,44,cs),
(260,44,o),
(308,72,o),
(318,158,cs),
(340,338,o),
(356,512,o),
(378,690,cs),
(394,822,o),
(460,892,o),
(602,892,cs),
(736,892,o),
(784,828,o),
(810,684,cs),
(850,454,o),
(884,234,o),
(920,36,cs),
(934,-44,o),
(972,-72,o),
(1010,-72,cs),
(1054,-72,o),
(1096,-34,o),
(1084,64,cs),
(1071,173,o),
(1027,488,o),
(991,745,cs),
(988,770,o),
(984,794,o),
(981,818,cs),
(978,838,o),
(975,859,o),
(972,878,cs),
(960,965,o),
(950,1035,o),
(944,1076,c),
(802,1054,o),
(678,1026,o),
(678,1114,cs),
(678,1168,o),
(744,1186,o),
(924,1206,c),
(922,1214,o),
(922,1220,o),
(920,1228,cs),
(900,1368,o),
(786,1434,o),
(620,1434,cs),
(458,1434,o),
(352,1386,o),
(326,1254,cs),
(318,1214,o),
(310,1176,o),
(302,1136,c),
(452,1120,o),
(506,1100,o),
(506,1050,cs),
(506,968,o),
(408,986,o),
(276,1012,c),
(269,974,o),
(261,934,o),
(252,892,cs),
(248,869,o),
(243,846,o),
(239,823,cs),
(234,799,o),
(230,775,o),
(225,750,cs),
(187,557,o),
(146,347,o),
(116,186,cs)
);
},
{
closed = 1;
nodes = (
(482,357,o),
(676,353,o),
(874,348,cs),
(932,347,o),
(962,364,o),
(962,422,cs),
(962,468,o),
(932,493,o),
(876,494,cs),
(692,497,o),
(510,501,o),
(326,504,c),
(288,364,l)
);
},
{
closed = 1;
nodes = (
(764,104,o),
(866,104,o),
(972,104,c),
(940,250,l),
(848,252,o),
(760,252,o),
(672,250,cs),
(590,248,o),
(552,224,o),
(552,180,cs),
(552,136,o),
(578,112,o),
(666,108,cs)
);
},
{
closed = 1;
nodes = (
(310,801,l),
(159,822,o),
(30,841,o),
(30,756,cs),
(30,702,o),
(73,687,o),
(306,658,c)
);
},
{
closed = 1;
nodes = (
(245,380,l),
(28,390,o),
(-34,388,o),
(-34,316,cs),
(-34,265,o),
(3,247,o),
(207,240,c)
);
},
{
closed = 1;
nodes = (
(934,590,o),
(966,600,o),
(966,640,cs),
(966,728,o),
(924,740,o),
(842,722,c),
(880,590,l)
);
},
{
closed = 1;
nodes = (
(980,346,o),
(1014,352,o),
(1014,412,cs),
(1014,486,o),
(988,490,o),
(888,492,c),
(886,348,l)
);
}
);
width = 1130;
},
{
anchors = (
{
name = bottom;
pos = (591,63);
},
{
name = ogonek;
pos = (1005,-100);
},
{
name = top;
pos = (638,1386);
}
);
associatedMasterId = "16FBD564-A0D0-4365-B77C-94A96DAC7D94";
attr = {
coordinates = (
10
);
};
layerId = "3CDCB7E8-5E61-4629-8775-7ADD0B0456B7";
name = "{1}";
shapes = (
{
closed = 1;
nodes = (
(54,94,o),
(104,37,o),
(176,37,cs),
(223,37,o),
(271,66,o),
(286,146,cs),
(326,349,o),
(364,562,o),
(406,770,cs),
(425,880,o),
(472,928,o),
(566,928,cs),
(657,928,o),
(691,879,o),
(718,769,cs),
(790,511,o),
(861,235,o),
(933,-13,cs),
(950,-80,o),
(988,-106,o),
(1024,-106,cs),
(1068,-106,o),
(1108,-66,o),
(1095,20,cs),
(1066,204,o),
(1019,495,o),
(975,757,cs),
(972,779,o),
(968,800,o),
(965,822,cs),
(961,844,o),
(958,866,o),
(954,888,cs),
(945,951,o),
(936,1006,o),
(929,1047,c),
(792,1024,o),
(682,1001,o),
(682,1088,cs),
(682,1138,o),
(737,1159,o),
(907,1177,c),
(905,1189,o),
(903,1200,o),
(901,1212,cs),
(880,1341,o),
(778,1403,o),
(638,1404,cs),
(502,1405,o),
(404,1354,o),
(370,1233,cs),
(365,1210,o),
(355,1173,o),
(340,1125,cs),
(334,1103,o),
(327,1080,o),
(321,1057,cs),
(317,1041,o),
(313,1026,o),
(308,1010,cs),
(298,973,o),
(286,932,o),
(274,890,cs),
(269,871,o),
(263,851,o),
(258,831,cs),
(253,810,o),
(248,790,o),
(242,768,cs),
(178,550,o),
(109,310,o),
(80,191,cs)
);
},
{
closed = 1;
nodes = (
(399,426,o),
(531,420,o),
(666,415,cs),
(752,412,o),
(783,429,o),
(783,487,cs),
(783,540,o),
(745,559,o),
(671,561,cs),
(548,564,o),
(428,566,o),
(305,566,c),
(267,433,l)
);
},
{
closed = 1;
nodes = (
(604,163,o),
(764,152,o),
(930,142,c),
(894,291,l),
(752,302,o),
(610,311,o),
(479,317,cs),
(404,319,o),
(357,302,o),
(357,249,cs),
(357,207,o),
(390,182,o),
(465,176,cs)
);
},
{
closed = 1;
nodes = (
(349,935,l),
(211,973,o),
(88,996,o),
(88,907,cs),
(88,856,o),
(134,833,o),
(318,791,c)
);
},
{
closed = 1;
nodes = (
(271,602,l),
(95,631,o),
(7,645,o),
(7,561,cs),
(7,513,o),
(52,492,o),
(234,466,c)
);
},
{
closed = 1;
nodes = (
(915,544,o),
(950,552,o),
(950,597,cs),
(950,694,o),
(909,700,o),
(817,682,c),
(851,541,l)
);
},
{
closed = 1;
nodes = (
(974,260,o),
(1010,266,o),
(1010,323,cs),
(1010,416,o),
(978,422,o),
(876,412,c),
(890,259,l)
);
}
);
width = 1130;
},
{
anchors = (
{
name = bottom;
pos = (550,83);
},
{
name = ogonek;
pos = (975,-57);
},
{
name = top;
pos = (637,1396);
}
);
associatedMasterId = "73BA353F-5B11-4DB0-9775-19E25D121032";
attr = {
coordinates = (
30
);
};
layerId = "CED12466-392D-4991-9AAD-4E3824B1DCCF";
name = "{30}";
shapes = (
{
closed = 1;
nodes = (
(68,92,o),
(110,42,o),
(168,42,cs),
(212,42,o),
(252,67,o),
(270,138,cs),
(335,339,o),
(399,549,o),
(467,753,cs),
(504,878,o),
(559,923,o),
(656,923,cs),
(752,923,o),
(787,875,o),
(804,757,cs),
(836,509,o),
(861,268,o),
(892,49,cs),
(903,-29,o),
(942,-63,o),
(987,-63,cs),
(1039,-63,o),
(1078,-16,o),
(1067,70,cs),
(1050,210,o),
(1012,496,o),
(979,741,cs),
(976,766,o),
(972,791,o),
(969,815,cs),
(966,836,o),
(963,857,o),
(960,876,cs),
(952,936,o),
(945,987,o),
(940,1023,cs),
(937,1046,o),
(933,1069,o),
(930,1093,cs),
(927,1113,o),
(924,1133,o),
(921,1153,c),
(918,1169,o),
(917,1183,o),
(914,1197,cs),
(892,1346,o),
(789,1413,o),
(624,1414,cs),
(462,1415,o),
(364,1357,o),
(333,1231,cs),
(329,1210,o),
(325,1190,o),
(320,1168,c),
(487,1139,o),
(541,1113,o),
(541,1066,cs),
(541,980,o),
(426,1008,o),
(291,1050,c),
(282,1012,o),
(272,971,o),
(261,927,cs),
(256,905,o),
(251,883,o),
(246,862,cs),
(241,841,o),
(237,820,o),
(232,800,cs),
(180,586,o),
(122,340,o),
(88,186,cs)
);
},
{
closed = 1;
nodes = (
(485,355,o),
(671,355,o),
(863,356,cs),
(919,357,o),
(949,376,o),
(949,432,cs),
(949,480,o),
(911,503,o),
(851,502,cs),
(683,502,o),
(506,500,o),
(329,498,c),
(291,357,l)
);
},
{
closed = 1;
nodes = (
(872,133,o),
(930,133,o),
(989,133,c),
(973,269,l),
(920,270,o),
(868,270,o),
(820,269,cs),
(758,268,o),
(726,245,o),
(726,203,cs),
(726,161,o),
(755,137,o),
(817,135,cs)
);
},
{
closed = 1;
nodes = (
(270,682,l),
(126,723,o),
(-5,749,o),
(-5,659,cs),
(-5,607,o),
(40,586,o),
(247,545,c)
);
},
{
closed = 1;
nodes = (
(266,421,l),
(119,440,o),
(67,424,o),
(67,350,cs),
(67,307,o),
(99,290,o),
(226,278,c)
);
},
{
closed = 1;
nodes = (
(932,592,o),
(964,600,o),
(964,644,cs),
(964,725,o),
(928,736,o),
(851,723,c),
(876,588,l)
);
},
{
closed = 1;
nodes = (
(1048,359,o),
(1087,368,o),
(1087,426,cs),
(1087,507,o),
(1047,506,o),
(913,504,c),
(915,359,l)
);
}
);
width = 1130;
},
{
anchors = (
{
name = bottom;
pos = (588,84);
},
{
name = ogonek;
pos = (964,-19);
},
{
name = top;
pos = (606,1364);
}
);
associatedMasterId = "34BCA492-7EC7-4349-9547-1652F586AA1A";
attr = {
coordinates = (
50
);
};
layerId = "55082237-CF5C-412F-94BA-9670AFEB180A";
name = "{50}";
shapes = (
{
closed = 1;
nodes = (
(24,64,o),
(76,-18,o),
(173,-18,cs),
(237,-18,o),
(294,23,o),
(316,112,cs),
(388,370,o),
(460,657,o),
(535,928,cs),
(568,1020,o),
(602,1044,o),
(649,1044,cs),
(698,1044,o),
(718,1016,o),
(730,938,cs),
(781,649,o),
(824,355,o),
(876,86,cs),
(888,16,o),
(924,-19,o),
(974,-19,cs),
(1037,-19,o),
(1073,34,o),
(1058,113,cs),
(1033,251,o),
(983,512,o),
(936,744,cs),
(932,767,o),
(928,791,o),
(923,813,cs),
(918,838,o),
(913,862,o),
(908,885,cs),
(902,916,o),
(896,946,o),
(891,975,cs),
(886,996,o),
(882,1017,o),
(878,1037,cs),
(873,1061,o),
(869,1083,o),
(865,1103,cs),
(861,1123,o),
(858,1141,o),
(855,1156,cs),
(824,1307,o),
(750,1382,o),
(597,1384,cs),
(458,1386,o),
(371,1330,o),
(330,1189,cs),
(301,1087,o),
(273,985,o),
(245,884,c),
(403,855,o),
(454,829,o),
(454,784,cs),
(454,698,o),
(349,725,o),
(213,770,c),
(202,733,o),
(191,693,o),
(180,652,c),
(332,619,o),
(373,593,o),
(373,555,cs),
(373,475,o),
(274,496,o),
(150,538,c),
(114,410,o),
(75,260,o),
(53,176,cs)
);
},
{
closed = 1;
nodes = (
(525,363,o),
(683,369,o),
(846,380,cs),
(913,385,o),
(936,411,o),
(936,455,cs),
(936,500,o),
(902,531,o),
(827,527,cs),
(687,521,o),
(536,514,o),
(385,504,c),
(361,357,l)
);
},
{
closed = 1;
nodes = (
(974,201,o),
(991,200,o),
(1005,200,c),
(992,322,l),
(982,322,o),
(971,322,o),
(964,322,cs),
(925,322,o),
(903,297,o),
(903,263,cs),
(903,229,o),
(928,204,o),
(961,202,cs)
);
},
{
closed = 1;
nodes = (
(274,347,l),
(207,382,o),
(101,411,o),
(101,319,cs),
(101,268,o),
(154,235,o),
(224,209,c)
);
},
{
closed = 1;
nodes = (
(253,297,l),
(184,317,o),
(142,301,o),
(134,233,cs),
(126,186,o),
(155,168,o),
(212,155,c)
);
},
{
closed = 1;
nodes = (
(880,719,o),
(908,734,o),
(908,778,cs),
(908,874,o),
(857,862,o),
(782,834,c),
(811,699,l)
);
},
{
closed = 1;
nodes = (
(1078,494,o),
(1126,507,o),
(1126,563,cs),
(1126,653,o),
(1061,644,o),
(907,626,c),
(920,486,l)
);
}
);
width = 1130;
}
);
unicode = (65,97);
},
{
glyphname = Aogonek;
kernLeft = A;
kernRight = A;
lastChange = "2021-04-02 18:44:51 +0000";
layers = (
{
anchors = (
{
name = bottom;
pos = (890,-622);
},
{
name = ogonek;
pos = (980,16);
},
{
name = top;
pos = (568,1364);
}
);
layerId = "7390BA8A-CD54-46A0-980C-73781B2212BF";
shapes = (
{
closed = 1;
nodes = (
(6,28,o),
(82,-76,o),
(218,-76,cs),
(306,-76,o),
(390,-18,o),
(406,106,cs),
(444,400,o),
(476,728,o),
(512,1040,cs),
(520,1106,o),
(544,1134,o),
(586,1134,cs),
(626,1134,o),
(644,1110,o),
(660,1046,cs),
(738,734,o),
(806,408,o),
(874,152,cs),
(890,88,o),
(878,54,o),
(834,14,cs),
(744,-66,o),
(690,-152,o),
(690,-266,cs),
(690,-404,o),
(780,-492,o),
(912,-492,cs),
(1012,-492,o),
(1078,-448,o),
(1078,-386,cs),
(1078,-340,o),
(1052,-306,o),
(1000,-306,cs),
(960,-306,o),
(952,-314,o),
(912,-314,cs),
(862,-314,o),
(830,-276,o),
(830,-226,cs),
(830,-146,o),
(890,-76,o),
(992,-2,cs),
(1060,48,o),
(1078,84,o),
(1062,150,cs),
(1016,334,o),
(970,514,o),
(920,694,cs),
(914,714,o),
(908,736,o),
(904,756,cs),
(898,778,o),
(892,800,o),
(886,822,cs),
(874,866,o),
(862,912,o),
(850,956,cs),
(844,976,o),
(838,998,o),
(832,1018,cs),
(826,1042,o),
(820,1064,o),
(814,1088,cs),
(810,1106,o),
(804,1126,o),
(798,1146,cs),
(760,1288,o),
(712,1372,o),
(574,1374,cs),
(448,1376,o),
(364,1330,o),
(318,1170,cs),
(260,968,o),
(204,766,o),
(150,568,c),
(296,550,o),
(338,528,o),
(328,472,cs),
(318,416,o),
(280,412,o),
(118,452,c),
(106,418,o),
(96,380,o),
(88,342,c),
(262,308,o),
(292,288,o),
(284,240,cs),
(274,184,o),
(216,184,o),
(58,226,c),
(52,206,o),
(48,186,o),
(42,166,cs)
);
},
{
closed = 1;
nodes = (
(560,372,o),
(698,382,o),
(836,396,cs),
(916,404,o),
(932,434,o),
(932,468,cs),
(932,508,o),
(910,550,o),
(824,544,cs),
(696,536,o),
(568,528,o),
(436,516,c),
(426,364,l)
);
},
{
closed = 1;
nodes = (
(966,240,o),
(986,238,o),
(1002,238,c),
(976,356,l),
(970,356,o),
(964,356,o),
(958,356,cs),
(922,356,o),
(904,328,o),
(904,300,cs),
(904,272,o),
(922,246,o),
(952,242,cs)
);
},
{
closed = 1;
nodes = (
(216,150,l),
(162,164,o),
(138,160,o),
(118,94,cs),
(102,42,o),
(116,24,o),
(158,4,c)
);
},
{
closed = 1;
nodes = (
(216,132,l),
(156,144,o),
(114,142,o),
(98,82,cs),
(82,24,o),
(112,4,o),
(176,-6,c)
);
},
{
closed = 1;
nodes = (
(1026,884,o),
(1074,916,o),
(1058,974,cs),
(1042,1032,o),
(994,1034,o),
(808,978,c),
(852,846,l)
);
},
{
closed = 1;
nodes = (
(1054,618,o),
(1100,634,o),
(1088,706,cs),
(1078,766,o),
(1036,770,o),
(874,736,c),
(894,602,l)
);
}
);
width = 1130;
},
{
anchors = (
{
name = bottom;
pos = (892,-802);
},
{
name = ogonek;
pos = (998,-140);
},
{
name = top;
pos = (638,1344);
}
);
layerId = "16FBD564-A0D0-4365-B77C-94A96DAC7D94";
shapes = (
{
closed = 1;
nodes = (
(6,104,o),
(48,30,o),
(134,30,cs),
(180,30,o),
(228,60,o),
(248,134,cs),
(306,360,o),
(366,612,o),
(428,850,cs),
(450,938,o),
(478,964,o),
(524,964,cs),
(572,964,o),
(594,930,o),
(622,852,cs),
(722,578,o),
(806,336,o),
(896,78,cs),
(912,32,o),
(904,10,o),
(864,-10,cs),
(732,-78,o),
(640,-150,o),
(640,-278,cs),
(640,-424,o),
(742,-500,o),
(912,-500,cs),
(1018,-500,o),
(1118,-464,o),
(1118,-382,cs),
(1118,-336,o),
(1088,-308,o),
(1042,-308,cs),
(1000,-308,o),
(960,-326,o),
(904,-326,cs),
(840,-326,o),
(806,-300,o),
(806,-258,cs),
(806,-196,o),
(884,-152,o),
(1012,-90,cs),
(1070,-62,o),
(1096,-40,o),
(1084,34,cs),
(1044,282,o),
(1006,502,o),
(954,768,c),
(857,742,o),
(761,724,o),
(761,810,cs),
(761,859,o),
(806,883,o),
(930,898,c),
(924,938,o),
(916,978,o),
(908,1018,c),
(778,995,o),
(679,975,o),
(679,1062,cs),
(679,1109,o),
(724,1131,o),
(884,1148,c),
(882,1164,o),
(878,1180,o),
(876,1196,cs),
(854,1314,o),
(764,1372,o),
(650,1374,cs),
(540,1376,o),
(450,1322,o),
(408,1212,cs),
(402,1194,o),
(394,1176,o),
(388,1158,cs),
(380,1140,o),
(372,1120,o),
(366,1102,cs),
(360,1084,o),
(354,1066,o),
(348,1048,cs),
(340,1022,o),
(330,998,o),
(320,972,cs),
(314,956,o),
(308,938,o),
(302,922,cs),
(294,902,o),
(286,882,o),
(280,862,cs),
(196,636,o),
(116,412,o),
(38,196,cs)
);
},
{
closed = 1;
nodes = (
(310,494,o),
(382,486,o),
(454,482,cs),
(572,476,o),
(602,496,o),
(600,558,cs),
(598,602,o),
(572,624,o),
(462,628,cs),
(400,630,o),
(340,630,o),
(278,628,c),
(240,502,l)
);
},
{
closed = 1;
nodes = (
(440,222,o),
(658,200,o),
(882,180,c),
(842,332,l),
(652,352,o),
(456,370,o),
(282,384,cs),
(214,390,o),
(159,380,o),
(159,318,cs),
(159,277,o),
(198,251,o),
(260,244,cs)
);
},
{
closed = 1;
nodes = (
(386,1072,l),
(231,1141,o),
(87,1193,o),
(87,1079,cs),
(87,1039,o),
(139,1005,o),
(324,922,c)
);
},
{
closed = 1;
nodes = (
(290,822,l),
(147,870,o),
(23,911,o),
(23,813,cs),
(23,765,o),
(81,737,o),
(254,690,c)
);
},
{
closed = 1;
nodes = (
(890,497,o),
(928,505,o),
(928,554,cs),
(928,658,o),
(890,661,o),
(786,642,c),
(816,492,l)
);
},
{
closed = 1;
nodes = (
(963,175,o),
(1000,183,o),
(1001,236,cs),
(1001,344,o),
(964,354,o),
(858,332,c),
(888,172,l)
);
}
);
width = 1130;
},
{
anchors = (
{
name = bottom;
pos = (914,-666);
},
{
name = ogonek;
pos = (1000,-60);
},
{
name = top;
pos = (626,1428);
}
);
layerId = "73BA353F-5B11-4DB0-9775-19E25D121032";
shapes = (
{
closed = 1;
nodes = (
(92,84,o),
(148,44,o),
(206,44,cs),
(254,44,o),
(302,72,o),
(312,158,cs),
(334,338,o),
(350,512,o),
(372,690,cs),
(388,822,o),
(454,892,o),
(596,892,cs),
(730,892,o),
(778,828,o),
(804,684,cs),
(844,456,o),
(878,242,o),
(906,86,cs),
(918,26,o),
(908,18,o),
(866,-6,cs),
(742,-74,o),
(684,-152,o),
(684,-246,cs),
(684,-384,o),
(772,-468,o),
(910,-468,cs),
(1022,-468,o),
(1108,-416,o),
(1108,-332,cs),
(1108,-282,o),
(1078,-254,o),
(1030,-254,cs),
(980,-254,o),
(940,-288,o),
(894,-288,cs),
(848,-288,o),
(824,-258,o),
(824,-210,cs),
(824,-162,o),
(870,-118,o),
(992,-64,cs),
(1058,-34,o),
(1086,8,o),
(1076,82,cs),
(1050,288,o),
(1018,518,o),
(984,752,cs),
(980,774,o),
(976,794,o),
(974,816,cs),
(972,836,o),
(968,858,o),
(966,878,cs),
(958,944,o),
(948,1010,o),
(938,1076,c),
(797,1053,o),
(673,1027,o),
(673,1113,cs),
(673,1169,o),
(738,1186,o),
(918,1206,c),
(918,1214,o),
(916,1220,o),
(914,1228,cs),
(888,1368,o),
(780,1434,o),
(614,1434,cs),
(452,1434,o),
(352,1384,o),
(320,1254,cs),
(310,1214,o),
(302,1176,o),
(296,1136,c),
(446,1119,o),
(501,1101,o),
(501,1049,cs),
(501,967,o),
(398,987,o),
(270,1012,c),
(262,970,o),
(254,926,o),
(244,884,cs),
(240,866,o),
(236,846,o),
(232,828,cs),
(228,808,o),
(226,788,o),
(222,768,cs),
(180,574,o),
(144,380,o),
(110,186,cs)
);
},
{
closed = 1;
nodes = (
(476,354,o),
(670,350,o),
(868,348,cs),
(926,348,o),
(956,364,o),
(956,422,cs),
(956,468,o),
(926,492,o),
(870,494,cs),
(686,500,o),
(504,504,o),
(320,504,c),
(282,364,l)
);
},
{
closed = 1;
nodes = (
(758,104,o),
(860,104,o),
(966,104,c),
(934,250,l),
(842,252,o),
(754,252,o),
(666,250,cs),
(584,248,o),
(546,224,o),
(546,180,cs),
(546,136,o),
(572,112,o),
(660,108,cs)
);
},
{
closed = 1;
nodes = (
(304,808,l),
(152,831,o),
(18,854,o),
(18,756,cs),
(18,697,o),
(63,681,o),
(300,648,c)
);
},
{
closed = 1;
nodes = (
(262,504,l),
(105,518,o),
(-28,533,o),
(-28,443,cs),
(-28,388,o),
(10,370,o),
(224,364,c)
);
},
{
closed = 1;
nodes = (
(927,590,o),
(960,599,o),
(960,639,cs),
(960,726,o),
(919,740,o),
(836,722,c),
(874,590,l)
);
},
{
closed = 1;
nodes = (
(974,346,o),
(1008,352,o),
(1008,412,cs),
(1008,486,o),
(982,490,o),
(882,492,c),
(880,348,l)
);
}
);
width = 1130;
},
{
anchors = (
{
name = bottom;
pos = (824,-616);
},
{
name = ogonek;
pos = (942,-28);
},
{
name = top;
pos = (646,1378);
}
);
layerId = "34BCA492-7EC7-4349-9547-1652F586AA1A";
shapes = (
{
closed = 1;
nodes = (
(32,100,o),
(62,40,o),
(120,40,cs),
(160,40,o),
(188,64,o),
(218,118,cs),
(332,336,o),
(448,582,o),
(570,816,cs),
(620,913,o),
(655,928,o),
(699,928,cs),
(750,928,o),
(776,902,o),
(784,820,cs),
(810,572,o),
(828,312,o),
(848,134,cs),
(856,76,o),
(838,54,o),
(784,26,cs),
(656,-40,o),
(570,-124,o),
(570,-268,cs),
(570,-384,o),
(656,-470,o),
(818,-470,cs),
(954,-470,o),
(1044,-426,o),
(1044,-356,cs),
(1044,-310,o),
(1012,-278,o),
(956,-278,cs),
(910,-278,o),
(872,-292,o),
(816,-292,cs),
(762,-292,o),
(740,-258,o),
(740,-222,cs),
(740,-174,o),
(756,-114,o),
(882,-48,cs),
(1016,18,o),
(1046,58,o),
(1036,140,cs),
(1014,338,o),
(988,536,o),
(958,730,cs),
(954,756,o),
(952,780,o),
(948,804,cs),
(944,830,o),
(941,854,o),
(938,878,cs),
(933,916,o),
(927,949,o),
(922,986,cs),
(919,1007,o),
(916,1025,o),
(913,1046,cs),
(910,1065,o),
(907,1084,o),
(904,1104,cs),
(900,1128,o),
(896,1152,o),
(892,1176,cs),
(868,1316,o),
(784,1382,o),
(629,1384,cs),
(487,1386,o),
(394,1333,o),
(362,1232,cs),
(358,1222,o),
(356,1210,o),
(352,1200,c),
(537,1158,o),
(589,1126,o),
(589,1082,cs),
(589,991,o),
(456,1028,o),
(316,1086,c),
(304,1046,o),
(292,1004,o),
(278,962,c),
(423,925,o),
(462,894,o),
(462,858,cs),
(462,777,o),
(362,800,o),
(244,848,c),
(178,626,o),
(116,404,o),
(56,186,cs)
);
},
{
closed = 1;
nodes = (
(478,350,o),
(661,353,o),
(848,364,cs),
(902,368,o),
(932,388,o),
(932,442,cs),
(932,492,o),
(886,510,o),
(822,510,cs),
(670,508,o),
(494,502,o),
(326,494,c),
(288,350,l)
);
},
{
closed = 1;
nodes = (
(974,162,o),
(988,162,o),
(1000,162,c),
(1000,288,l),
(986,288,o),
(970,288,o),
(962,288,cs),
(920,288,o),
(894,266,o),
(894,226,cs),
(894,186,o),
(926,162,o),
(962,162,cs)
);
},
{
closed = 1;
nodes = (
(232,642,l),
(85,702,o),
(-50,745,o),
(-50,628,cs),
(-50,583,o),
(1,554,o),
(184,500,c)
);
},
{
closed = 1;
nodes = (
(282,462,l),
(206,489,o),
(162,461,o),
(162,384,cs),
(162,349,o),
(189,331,o),
(240,316,c)
);
},
{
closed = 1;
nodes = (
(916,593,o),
(948,600,o),
(948,648,cs),
(948,721,o),
(916,733,o),
(844,724,c),
(858,586,l)
);
},
{
closed = 1;
nodes = (
(1126,366,o),
(1174,383,o),
(1174,441,cs),
(1174,532,o),
(1086,522,o),
(932,510,c),
(942,364,l)
);
}
);
width = 1130;
}
);
unicode = (260,261);
},
{
glyphname = AE;
kernLeft = AE;
kernRight = E;
lastChange = "2022-12-15 00:01:34 +0000";
layers = (
{
layerId = "16FBD564-A0D0-4365-B77C-94A96DAC7D94";
shapes = (
{
closed = 1;
nodes = (
(628,576,o),
(510,570,o),
(408,566,c),
(446,674,o),
(490,792,o),
(520,884,cs),
(566,1016,o),
(608,1064,o),
(686,1064,cs),
(764,1064,o),
(796,1020,o),
(790,906,cs),
(784,802,o),
(778,704,o),
(770,626,cs),
(768,596,o),
(760,582,o),
(730,580,cs)
);
},
{
closed = 1;
nodes = (
(1344,1518,o),
(1326,1582,o),
(1266,1578,cs),
(1212,1578,o),
(1190,1530,o),
(1188,1416,cs),
(1184,1346,o),
(1188,1220,o),
(1190,1144,cs),
(1196,1056,o),
(1210,1020,o),
(1256,1022,cs),
(1304,1022,o),
(1324,1050,o),
(1332,1154,cs),
(1340,1214,o),
(1340,1332,o),
(1342,1420,cs)
);
},
{
closed = 1;
nodes = (
(1048,1512,o),
(1026,1546,o),
(986,1546,cs),
(936,1548,o),
(914,1518,o),
(914,1432,cs),
(914,1390,o),
(916,1332,o),
(918,1300,cs),
(922,1252,o),
(944,1232,o),
(1002,1232,cs),
(1052,1230,o),
(1070,1254,o),
(1066,1306,cs),
(1064,1342,o),
(1062,1400,o),
(1056,1440,cs)
);
},
{
closed = 1;
nodes = (
(1178,216,o),
(1204,184,o),
(1204,132,cs),
(1204,94,o),
(1186,60,o),
(1126,60,cs),
(1086,60,o),
(1056,94,o),
(1056,134,cs),
(1056,192,o),
(1090,216,o),
(1134,216,cs)
);
},
{
closed = 1;
nodes = (
(944,212,o),
(972,182,o),
(972,148,cs),
(972,100,o),
(944,76,o),
(902,76,cs),
(860,76,o),
(836,108,o),
(836,154,cs),
(836,182,o),
(856,212,o),
(904,212,cs)
);
},
{
closed = 1;
nodes = (
(1430,246,o),
(1456,210,o),
(1456,162,cs),
(1456,114,o),
(1422,86,o),
(1366,86,cs),
(1324,86,o),
(1288,104,o),
(1288,170,cs),
(1288,214,o),
(1324,246,o),
(1368,246,cs)
);
},
{
closed = 1;
nodes = (
(108,26,o),
(108,26,o),
(108,26,cs),
(108,26,o),
(108,26,o),
(108,26,cs),
(108,26,o),
(108,26,o),
(108,26,cs),
(108,26,o),
(108,26,o),
(108,26,cs)
);
},
{
closed = 1;
nodes = (
(160,112,o),
(160,112,o),
(160,112,cs),
(160,112,o),
(160,112,o),
(160,112,cs),
(160,112,o),
(160,112,o),
(160,112,cs),
(160,112,o),
(160,112,o),
(160,112,cs)
);
},
{
closed = 1;
nodes = (
(114,550,o),
(30,540,o),
(28,470,cs),
(26,400,o),
(102,398,o),
(194,398,c),
(252,558,l)
);
},
{
closed = 1;
nodes = (
(466,412,o),
(602,414,o),
(692,418,cs),
(734,420,o),
(750,410,o),
(748,374,cs),
(744,312,o),
(736,236,o),
(732,160,cs),
(724,40,o),
(788,-20,o),
(902,-26,cs),
(1090,-38,o),
(1230,-44,o),
(1322,-48,cs),
(1478,-54,o),
(1562,10,o),
(1562,174,cs),
(1562,340,o),
(1456,394,o),
(1312,364,cs),
(1224,346,o),
(1136,324,o),
(1026,304,cs),
(986,296,o),
(960,310,o),
(958,346,cs),
(954,404,o),
(950,508,o),
(950,564,cs),
(950,612,o),
(968,640,o),
(1010,640,cs),
(1084,640,o),
(1182,630,o),
(1304,628,cs),
(1366,626,o),
(1410,658,o),
(1410,720,cs),
(1410,778,o),
(1372,804,o),
(1316,808,cs),
(1248,812,o),
(1150,808,o),
(1038,804,cs),
(984,802,o),
(956,824,o),
(956,862,cs),
(956,934,o),
(956,1012,o),
(960,1084,cs),
(962,1178,o),
(990,1198,o),
(1030,1198,cs),
(1132,1198,o),
(1304,1182,o),
(1424,1174,cs),
(1510,1168,o),
(1566,1202,o),
(1566,1278,cs),
(1566,1344,o),
(1526,1380,o),
(1412,1376,cs),
(1126,1364,o),
(942,1358,o),
(756,1348,cs),
(602,1340,o),
(496,1246,o),
(438,1098,cs),
(340,852,o),
(194,464,o),
(54,86,cs),
(46,64,o),
(44,46,o),
(44,28,cs),
(44,-32,o),
(84,-68,o),
(130,-68,cs),
(170,-68,o),
(212,-42,o),
(232,16,cs),
(290,186,o),
(336,342,o),
(358,402,c)
);
}
);
width = 1546;
},
{
layerId = "73BA353F-5B11-4DB0-9775-19E25D121032";
shapes = (
{
closed = 1;
nodes = (
(624,492,o),
(492,504,o),
(396,512,c),
(438,610,o),
(496,728,o),
(552,850,cs),
(584,918,o),
(632,964,o),
(698,964,cs),
(770,964,o),
(804,926,o),
(796,824,cs),
(786,708,o),
(780,600,o),
(772,516,cs),
(770,486,o),
(758,474,o),
(728,478,cs)
);
},
{
closed = 1;
nodes = (
(1480,1494,o),
(1466,1548,o),
(1410,1550,cs),
(1360,1554,o),
(1338,1514,o),
(1328,1422,cs),
(1320,1346,o),
(1308,1212,o),
(1304,1130,cs),
(1302,1042,o),
(1314,1004,o),
(1360,1002,cs),
(1402,1000,o),
(1420,1026,o),
(1436,1130,cs),
(1448,1192,o),
(1464,1320,o),
(1472,1414,cs)
);
},
{
closed = 1;
nodes = (
(1194,1500,o),
(1172,1534,o),
(1132,1534,cs),
(1090,1536,o),
(1070,1504,o),
(1072,1420,cs),
(1074,1324,o),
(1080,1194,o),
(1088,1120,cs),
(1094,1026,o),
(1114,988,o),
(1164,988,cs),
(1216,986,o),
(1236,1028,o),
(1230,1126,cs),
(1226,1208,o),
(1212,1340,o),
(1202,1428,cs)
);
},
{
closed = 1;
nodes = (
(1002,490,o),
(1028,458,o),
(1028,406,cs),
(1028,368,o),
(1010,334,o),
(950,334,cs),
(910,334,o),
(880,368,o),
(880,408,cs),
(880,466,o),
(914,490,o),
(958,490,cs)
);
},
{
closed = 1;
nodes = (
(1010,712,o),
(1038,682,o),
(1038,648,cs),
(1038,600,o),
(1010,576,o),
(968,576,cs),
(926,576,o),
(902,608,o),
(902,654,cs),
(902,682,o),
(922,712,o),
(970,712,cs)
);
},
{
closed = 1;
nodes = (
(1006,246,o),
(1032,210,o),
(1032,162,cs),
(1032,114,o),
(998,86,o),
(942,86,cs),
(900,86,o),
(864,104,o),
(864,170,cs),
(864,214,o),
(900,246,o),
(944,246,cs)
);
},
{
closed = 1;
nodes = (
(148,146,o),
(148,146,o),
(148,146,cs),
(148,146,o),
(148,146,o),
(148,146,cs),
(148,146,o),
(148,146,o),
(148,146,cs),
(148,146,o),
(148,146,o),
(148,146,cs)
);
},
{
closed = 1;
nodes = (
(108,88,o),
(108,88,o),
(108,88,cs),
(108,88,o),
(108,88,o),
(108,88,cs),
(108,88,o),
(108,88,o),
(108,88,cs),
(108,88,o),
(108,88,o),
(108,88,cs)
);
},
{
closed = 1;
nodes = (
(104,552,o),
(26,576,o),
(10,490,cs),
(-6,418,o),
(68,410,o),
(168,390,c),
(244,536,l)
);
},
{
closed = 1;
nodes = (
(442,350,o),
(590,338,o),
(708,322,cs),
(742,318,o),
(756,296,o),
(752,262,cs),
(750,232,o),
(746,188,o),
(742,140,cs),
(732,20,o),
(798,-28,o),
(912,-24,cs),
(1102,-16,o),
(1318,-6,o),
(1450,2,cs),
(1522,6,o),
(1556,44,o),
(1556,102,cs),
(1556,158,o),
(1520,198,o),
(1448,192,cs),
(1358,186,o),
(1264,176,o),
(1198,172,cs),
(1158,170,o),
(1138,190,o),
(1136,226,cs),
(1130,316,o),
(1128,478,o),
(1128,566,cs),
(1128,614,o),
(1146,644,o),
(1188,642,cs),
(1220,640,o),
(1262,634,o),
(1314,630,cs),
(1384,624,o),
(1420,668,o),
(1420,724,cs),
(1420,774,o),
(1390,816,o),
(1326,816,cs),
(1258,816,o),
(1160,814,o),
(1048,812,cs),
(994,812,o),
(966,832,o),
(966,870,cs),
(966,940,o),
(966,1014,o),
(970,1084,cs),
(972,1178,o),
(1000,1198,o),
(1040,1198,cs),
(1142,1198,o),
(1314,1186,o),
(1434,1186,cs),
(1520,1186,o),
(1576,1210,o),
(1576,1278,cs),
(1576,1344,o),
(1536,1378,o),
(1422,1376,cs),
(1168,1370,o),
(1004,1366,o),
(838,1354,cs),
(726,1346,o),
(608,1290,o),
(542,1164,cs),
(378,856,o),
(208,512,o),
(52,186,cs),
(38,156,o),
(32,130,o),
(32,108,cs),
(32,50,o),
(70,16,o),
(114,16,cs),
(148,16,o),
(186,36,o),
(208,86,cs),
(264,208,o),
(304,302,o),
(332,364,c)
);
}
);
width = 1546;
},
{
layerId = "34BCA492-7EC7-4349-9547-1652F586AA1A";
shapes = (
{
closed = 1;
nodes = (
(760,714,o),
(610,706,o),
(588,706,c),
(622,810,o),
(672,938,o),
(704,1020,cs),
(740,1112,o),
(802,1152,o),
(860,1152,cs),
(906,1152,o),
(916,1122,o),
(912,1036,cs),
(908,930,o),
(896,826,o),
(890,758,cs),
(886,726,o),
(878,716,o),
(846,716,cs)
);
},
{
closed = 1;
nodes = (
(1522,1338,o),
(1502,1350,o),
(1472,1348,cs),
(1444,1346,o),
(1422,1330,o),
(1418,1300,cs),
(1416,1288,o),
(1414,1276,o),
(1416,1266,cs),
(1420,1230,o),
(1440,1216,o),
(1478,1214,cs),
(1506,1214,o),
(1528,1226,o),
(1530,1262,cs),
(1532,1272,o),
(1532,1290,o),
(1528,1304,cs)
);
},
{
closed = 1;
nodes = (
(1392,1476,o),
(1372,1512,o),
(1332,1514,cs),
(1292,1520,o),
(1268,1490,o),
(1264,1406,cs),
(1258,1310,o),
(1254,1180,o),
(1256,1104,cs),
(1256,1010,o),
(1272,972,o),
(1322,968,cs),
(1374,962,o),
(1396,1002,o),
(1398,1100,cs),
(1402,1182,o),
(1398,1314,o),
(1394,1404,cs)
);
},
{
closed = 1;
nodes = (
(1116,734,o),
(1138,702,o),
(1138,662,cs),
(1138,620,o),
(1108,598,o),
(1064,598,cs),
(1030,598,o),
(1000,614,o),
(1000,670,cs),
(1000,706,o),
(1030,734,o),
(1064,734,cs)
);
},
{
closed = 1;
nodes = (
(1326,722,o),
(1358,688,o),
(1358,652,cs),
(1358,600,o),
(1326,576,o),
(1282,576,cs),
(1236,576,o),
(1212,610,o),
(1212,658,cs),
(1212,688,o),
(1232,722,o),
(1284,722,cs)
);
},
{
closed = 1;
nodes = (
(1068,502,o),
(1092,474,o),
(1092,426,cs),
(1092,388,o),
(1078,358,o),
(1022,358,cs),
(982,358,o),
(956,388,o),
(956,428,cs),
(956,482,o),
(986,502,o),
(1026,502,cs)
);
},
{
closed = 1;
nodes = (
(384,492,o),
(406,466,o),
(406,408,cs),
(406,368,o),
(392,336,o),
(346,336,cs),
(288,336,o),
(250,354,o),
(250,422,cs),
(250,466,o),
(274,492,o),
(330,492,cs)
);
},
{
closed = 1;
nodes = (
(270,252,o),
(296,216,o),
(296,168,cs),
(296,120,o),
(262,92,o),
(206,92,cs),
(164,92,o),
(128,110,o),
(128,176,cs),
(128,220,o),
(164,252,o),
(208,252,cs)
);
},
{
closed = 1;
nodes = (
(354,696,o),
(304,690,o),
(302,628,cs),
(300,560,o),
(356,560,o),
(434,558,c),
(446,704,l)
);
},
{
closed = 1;
nodes = (
(586,550,o),
(736,554,o),
(830,556,cs),
(862,556,o),
(874,538,o),
(870,506,cs),
(860,404,o),
(850,292,o),
(844,178,cs),
(838,80,o),
(898,36,o),
(992,26,cs),
(1148,8,o),
(1312,-6,o),
(1432,-12,cs),
(1498,-16,o),
(1542,8,o),
(1542,64,cs),
(1542,112,o),
(1514,142,o),
(1462,146,cs),
(1366,154,o),
(1296,154,o),
(1240,158,cs),
(1200,160,o),
(1182,174,o),
(1178,218,cs),
(1172,278,o),
(1170,350,o),
(1170,404,cs),
(1170,452,o),
(1188,480,o),
(1230,480,cs),
(1246,480,o),
(1268,478,o),
(1296,476,cs),
(1426,466,o),
(1478,546,o),
(1478,646,cs),
(1478,738,o),
(1426,810,o),
(1308,812,cs),
(1288,812,o),
(1262,812,o),
(1230,812,cs),
(1100,812,o),
(1072,832,o),
(1072,870,cs),
(1072,942,o),
(1072,1016,o),
(1076,1088,cs),
(1078,1182,o),
(1098,1204,o),
(1140,1202,cs),
(1240,1198,o),
(1338,1190,o),
(1440,1186,cs),
(1526,1182,o),
(1578,1208,o),
(1578,1278,cs),
(1578,1344,o),
(1538,1380,o),
(1424,1376,cs),
(1224,1368,o),
(1026,1356,o),
(852,1338,cs),
(732,1328,o),
(648,1258,o),
(584,1154,cs),
(376,816,o),
(222,560,o),
(40,248,cs),
(16,206,o),
(4,166,o),
(4,126,cs),
(4,22,o),
(86,-40,o),
(184,-40,cs),
(278,-40,o),
(340,-2,o),
(378,98,cs),
(432,240,o),
(486,408,o),
(536,548,c)
);
}
);
width = 1546;
},
{
layerId = "7390BA8A-CD54-46A0-980C-73781B2212BF";
shapes = (
{
closed = 1;
nodes = (
(748,780,o),
(672,782,o),
(552,782,c),
(602,884,o),
(648,978,o),
(698,1064,cs),
(734,1126,o),
(782,1156,o),
(838,1156,cs),
(892,1156,o),
(912,1124,o),
(908,1038,cs),
(904,946,o),
(896,868,o),
(888,824,cs),
(884,798,o),
(870,782,o),
(842,782,cs)
);
},
{
closed = 1;
nodes = (
(1514,1304,o),
(1506,1308,o),
(1494,1308,cs),
(1484,1306,o),
(1476,1300,o),
(1474,1290,cs),
(1472,1284,o),
(1472,1280,o),
(1472,1276,cs),
(1474,1262,o),
(1482,1256,o),
(1496,1256,cs),
(1508,1256,o),
(1516,1260,o),
(1518,1274,cs),
(1518,1278,o),
(1518,1286,o),
(1516,1290,cs)
);
},
{
closed = 1;
nodes = (
(1356,1294,o),
(1334,1326,o),
(1292,1326,cs),
(1250,1326,o),
(1224,1306,o),
(1220,1238,cs),
(1218,1196,o),
(1218,1138,o),
(1218,1104,cs),
(1218,1010,o),
(1234,972,o),
(1284,968,cs),
(1336,962,o),
(1358,1002,o),
(1360,1100,cs),
(1362,1136,o),
(1360,1196,o),
(1358,1236,cs)
);
},
{
closed = 1;
nodes = (
(876,690,o),
(900,656,o),
(900,612,cs),
(900,568,o),
(868,542,o),
(818,542,cs),
(778,542,o),
(744,560,o),
(744,620,cs),
(744,660,o),
(778,690,o),
(818,690,cs)
);
},
{
closed = 1;
nodes = (
(1362,676,o),
(1390,646,o),
(1390,612,cs),
(1390,564,o),
(1362,540,o),
(1320,540,cs),
(1278,540,o),
(1254,572,o),
(1254,618,cs),
(1254,646,o),
(1274,676,o),
(1322,676,cs)
);
},
{
closed = 1;
nodes = (
(1128,686,o),
(1152,658,o),
(1152,606,cs),
(1152,570,o),
(1136,536,o),
(1080,536,cs),
(1040,536,o),
(1012,570,o),
(1012,610,cs),
(1012,664,o),
(1042,686,o),
(1084,686,cs)
);
},
{
closed = 1;
nodes = (
(606,704,o),
(632,668,o),
(632,620,cs),
(632,572,o),
(598,544,o),
(542,544,cs),
(500,544,o),
(464,562,o),
(464,628,cs),
(464,672,o),
(500,704,o),
(544,704,cs)
);
},
{
closed = 1;
nodes = (
(326,500,o),
(326,500,o),
(326,500,cs),
(326,500,o),
(326,500,o),
(326,500,cs),
(326,500,o),
(326,500,o),
(326,500,cs),
(326,500,o),
(326,500,o),
(326,500,cs)
);
},
{
closed = 1;
nodes = (
(504,844,o),
(494,842,o),
(494,824,cs),
(494,808,o),
(504,806,o),
(520,806,c),
(522,842,l)
);
},
{
closed = 1;
nodes = (
(520,434,o),
(682,434,o),
(826,432,cs),
(856,432,o),
(870,416,o),
(866,380,cs),
(860,330,o),
(846,262,o),
(838,178,cs),
(826,68,o),
(880,12,o),
(1036,18,cs),
(1200,24,o),
(1344,32,o),
(1434,42,cs),
(1498,48,o),
(1528,86,o),
(1528,122,cs),
(1528,160,o),
(1494,196,o),
(1428,198,cs),
(1338,200,o),
(1194,198,o),
(1092,202,cs),
(1058,204,o),
(1034,220,o),
(1036,256,cs),
(1038,292,o),
(1040,326,o),
(1048,370,cs),
(1054,412,o),
(1068,440,o),
(1104,440,cs),
(1168,440,o),
(1228,440,o),
(1338,436,cs),
(1456,432,o),
(1520,522,o),
(1520,610,cs),
(1520,694,o),
(1464,776,o),
(1350,778,cs),
(1304,780,o),
(1204,776,o),
(1138,778,cs),
(1090,780,o),
(1062,798,o),
(1064,836,cs),
(1068,904,o),
(1068,976,o),
(1076,1044,cs),
(1086,1136,o),
(1104,1160,o),
(1174,1172,cs),
(1240,1184,o),
(1350,1200,o),
(1444,1216,cs),
(1516,1226,o),
(1542,1250,o),
(1542,1292,cs),
(1542,1332,o),
(1514,1360,o),
(1424,1354,cs),
(1166,1340,o),
(998,1324,o),
(808,1300,cs),
(682,1284,o),
(598,1228,o),
(546,1136,cs),
(358,798,o),
(210,514,o),
(24,148,cs),
(12,124,o),
(4,102,o),
(4,82,cs),
(4,28,o),
(40,-6,o),
(80,-6,cs),
(116,-6,o),
(142,8,o),
(164,50,cs),
(236,188,o),
(294,312,o),
(358,436,c)
);
}
);
width = 1546;
},
{
associatedMasterId = "16FBD564-A0D0-4365-B77C-94A96DAC7D94";
attr = {
coordinates = (
10
);
};
background = {
shapes = (
{
closed = 1;
nodes = (
(688,522,o),
(582,526,o),
(494,528,cs),
(466,530,o),
(458,544,o),
(468,568,cs),
(504,664,o),
(548,772,o),
(586,868,cs),
(626,968,o),
(668,1014,o),
(740,1014,cs),
(814,1014,o),
(848,974,o),
(840,866,cs),
(832,752,o),
(826,646,o),
(818,562,cs),
(816,532,o),
(806,518,o),
(776,520,cs)
);
},
{
closed = 1;
nodes = (
(1454,1498,o),
(1438,1552,o),
(1382,1550,cs),
(1332,1552,o),
(1312,1512,o),
(1306,1420,cs),
(1300,1346,o),
(1296,1216,o),
(1294,1138,cs),
(1296,1050,o),
(1310,1012,o),
(1356,1012,cs),
(1398,1012,o),
(1414,1038,o),
(1426,1142,cs),
(1436,1204,o),
(1444,1326,o),
(1450,1418,cs)
);
},
{
closed = 1;
nodes = (
(1168,1500,o),
(1146,1534,o),
(1106,1534,cs),
(1064,1536,o),
(1044,1504,o),
(1046,1420,cs),
(1048,1354,o),
(1052,1262,o),
(1056,1210,cs),
(1062,1140,o),
(1080,1110,o),
(1130,1110,cs),
(1182,1108,o),
(1200,1142,o),
(1196,1216,cs),
(1192,1274,o),
(1184,1366,o),
(1176,1428,cs)
);
},
{
closed = 1;
nodes = (
(1020,224,o),
(1046,192,o),
(1046,140,cs),
(1046,102,o),
(1028,68,o),
(968,68,cs),
(928,68,o),
(898,102,o),
(898,142,cs),
(898,200,o),
(932,224,o),
(976,224,cs)
);
},
{
closed = 1;
nodes = (
(998,454,o),
(1026,424,o),
(1026,390,cs),
(1026,342,o),
(998,318,o),
(956,318,cs),
(914,318,o),
(890,350,o),
(890,396,cs),
(890,424,o),
(910,454,o),
(958,454,cs)
);
},
{
closed = 1;
nodes = (
(1266,172,o),
(1292,136,o),
(1292,88,cs),
(1292,40,o),
(1258,12,o),
(1202,12,cs),
(1160,12,o),
(1124,30,o),
(1124,96,cs),
(1124,140,o),
(1160,172,o),
(1204,172,cs)
);
},
{
closed = 1;
nodes = (
(160,86,o),
(160,86,o),
(160,86,cs),
(160,86,o),
(160,86,o),
(160,86,cs),
(160,86,o),
(160,86,o),
(160,86,cs),
(160,86,o),
(160,86,o),
(160,86,cs)
);
},
{
closed = 1;
nodes = (
(140,540,o),
(58,552,o),
(50,480,cs),
(42,410,o),
(116,404,o),
(212,394,c),
(280,538,l)
);
},
{
closed = 1;
nodes = (
(546,380,o),
(662,374,o),
(748,370,cs),
(786,370,o),
(800,354,o),
(798,318,cs),
(794,272,o),
(788,212,o),
(784,150,cs),
(776,30,o),
(840,-24,o),
(954,-26,cs),
(1144,-28,o),
(1322,-26,o),
(1470,-24,cs),
(1658,-24,o),
(1654,338,o),
(1434,288,cs),
(1348,270,o),
(1256,236,o),
(1166,214,cs),
(1126,204,o),
(1100,220,o),
(1098,256,cs),
(1094,336,o),
(1086,478,o),
(1086,556,cs),
(1086,604,o),
(1104,632,o),
(1146,632,cs),
(1200,630,o),
(1270,626,o),
(1356,620,cs),
(1492,610,o),
(1500,816,o),
(1368,816,cs),
(1300,816,o),
(1202,816,o),
(1090,812,cs),
(1036,812,o),
(1008,832,o),
(1008,870,cs),
(1008,940,o),
(1008,1014,o),
(1012,1084,cs),
(1014,1178,o),
(1042,1198,o),
(1082,1198,cs),
(1184,1198,o),
(1356,1182,o),
(1476,1174,cs),
(1562,1168,o),
(1618,1202,o),
(1618,1278,cs),
(1618,1344,o),
(1578,1380,o),
(1464,1376,cs),
(1200,1366,o),
(1030,1360,o),
(858,1352,cs),
(720,1344,o),
(612,1276,o),
(546,1146,cs),
(394,856,o),
(226,496,o),
(74,174,cs),
(-26,-28,o),
(212,-96,o),
(282,82,cs),
(316,172,o),
(352,266,o),
(376,332,cs),
(392,370,o),
(416,384,o),
(450,382,cs)
);
}
);
};
layerId = "B4B7A66A-7458-44A3-9256-532AA9D396DB";
name = "{10}";
shapes = (
{
closed = 1;
nodes = (
(626,534,o),
(502,538,o),
(402,540,c),
(442,642,o),
(494,760,o),
(536,868,cs),
(576,968,o),
(620,1014,o),
(692,1014,cs),
(768,1014,o),
(800,974,o),
(794,866,cs),
(786,756,o),
(780,652,o),
(772,572,cs),
(770,542,o),
(760,528,o),
(730,530,cs)
);
},
{
closed = 1;
nodes = (
(1408,1498,o),
(1392,1552,o),
(1336,1550,cs),
(1286,1552,o),
(1264,1512,o),
(1258,1420,cs),
(1252,1346,o),
(1248,1216,o),
(1248,1138,cs),
(1250,1050,o),
(1262,1012,o),
(1308,1012,cs),
(1350,1012,o),
(1368,1038,o),
(1380,1142,cs),
(1390,1204,o),
(1398,1326,o),
(1402,1418,cs)
);
},
{
closed = 1;
nodes = (
(1122,1500,o),
(1100,1534,o),
(1060,1534,cs),
(1018,1536,o),
(998,1504,o),
(1000,1420,cs),
(1000,1354,o),
(1004,1262,o),
(1010,1210,cs),
(1014,1140,o),
(1034,1110,o),
(1084,1110,cs),
(1134,1108,o),
(1154,1142,o),
(1148,1216,cs),
(1146,1274,o),
(1138,1366,o),
(1130,1428,cs)
);
},
{
closed = 1;
nodes = (
(970,302,o),
(996,270,o),
(996,218,cs),
(996,180,o),
(978,146,o),
(918,146,cs),
(878,146,o),
(848,180,o),
(848,220,cs),
(848,278,o),
(882,302,o),
(926,302,cs)
);
},
{
closed = 1;
nodes = (
(970,652,o),
(998,622,o),
(998,588,cs),
(998,540,o),
(970,516,o),
(928,516,cs),
(886,516,o),
(862,548,o),
(862,594,cs),
(862,622,o),
(882,652,o),
(930,652,cs)
);
},
{
closed = 1;
nodes = (
(1228,168,o),
(1250,136,o),
(1250,92,cs),
(1250,50,o),
(1220,24,o),
(1170,24,cs),
(1132,24,o),
(1100,40,o),
(1100,100,cs),
(1100,138,o),
(1132,168,o),
(1172,168,cs)
);
},
{
closed = 1;
nodes = (
(128,86,o),
(128,86,o),
(128,86,cs),
(128,86,o),
(128,86,o),
(128,86,cs),
(128,86,o),
(128,86,o),
(128,86,cs),
(128,86,o),
(128,86,o),
(128,86,cs)
);
},
{
closed = 1;
nodes = (
(134,100,o),
(134,100,o),
(134,100,cs),
(134,100,o),
(134,100,o),
(134,100,cs),
(134,100,o),
(134,100,o),
(134,100,cs),
(134,100,o),
(134,100,o),
(134,100,cs)
);
},
{
closed = 1;
nodes = (
(110,552,o),
(28,558,o),
(20,480,cs),
(10,410,o),
(86,404,o),
(182,394,c),
(248,548,l)
);
},
{
closed = 1;
nodes = (
(454,382,o),
(596,376,o),
(700,370,cs),
(738,370,o),
(754,354,o),
(750,318,cs),
(748,272,o),
(742,212,o),
(738,150,cs),
(728,30,o),
(794,-24,o),
(908,-26,cs),
(1096,-28,o),
(1260,-26,o),
(1392,-24,cs),
(1500,-22,o),
(1558,36,o),
(1558,148,cs),
(1558,258,o),
(1492,309,o),
(1354,316,cs),
(1298,319,o),
(1229,314,o),
(1150,314,cs),
(1109,314,o),
(1084,320,o),
(1082,356,cs),
(1078,414,o),
(1080,511,o),
(1080,566,cs),
(1080,614,o),
(1098,642,o),
(1140,642,cs),
(1186,640,o),
(1239,632,o),
(1310,630,cs),
(1380,626,o),
(1416,674,o),
(1416,722,cs),
(1416,766,o),
(1386,810,o),
(1322,812,cs),
(1254,814,o),
(1156,812,o),
(1044,808,cs),
(990,808,o),
(962,828,o),
(962,866,cs),
(962,938,o),
(962,1014,o),
(966,1084,cs),
(968,1178,o),
(996,1198,o),
(1036,1198,cs),
(1138,1198,o),
(1310,1184,o),
(1430,1180,cs),
(1516,1178,o),
(1572,1206,o),
(1572,1278,cs),
(1572,1344,o),
(1532,1380,o),
(1418,1376,cs),
(1148,1368,o),
(974,1362,o),
(798,1352,cs),
(664,1344,o),
(552,1268,o),
(490,1132,cs),
(360,854,o),
(202,488,o),
(56,146,cs),
(44,118,o),
(40,94,o),
(40,72,cs),
(40,12,o),
(80,-22,o),
(122,-22,cs),
(160,-22,o),
(200,4,o),
(222,58,cs),
(276,198,o),
(320,322,o),
(346,384,c)
);
}
);
width = 1546;
},
{
associatedMasterId = "73BA353F-5B11-4DB0-9775-19E25D121032";
attr = {
coordinates = (
30
);
};
background = {
shapes = (
{
closed = 1;
nodes = (
(516,620,o),
(570,736,o),
(622,850,cs),
(654,918,o),
(686,964,o),
(740,964,cs),
(812,964,o),
(846,926,o),
(838,824,cs),
(828,696,o),
(820,578,o),
(810,466,c),
(466,506,l)
);
},
{
closed = 1;
nodes = (
(1522,1494,o),
(1508,1548,o),
(1452,1550,cs),
(1402,1554,o),
(1380,1514,o),
(1370,1422,cs),
(1362,1346,o),
(1350,1212,o),
(1346,1130,cs),
(1344,1042,o),
(1356,1004,o),
(1402,1002,cs),
(1444,1000,o),
(1462,1026,o),
(1478,1130,cs),
(1490,1192,o),
(1506,1320,o),
(1514,1414,cs)
);
},
{
closed = 1;
nodes = (
(1236,1500,o),
(1214,1534,o),
(1174,1534,cs),
(1132,1536,o),
(1112,1504,o),
(1114,1420,cs),
(1116,1324,o),
(1122,1194,o),
(1130,1120,cs),
(1136,1026,o),
(1156,988,o),
(1206,988,cs),
(1258,986,o),
(1278,1028,o),
(1272,1126,cs),
(1268,1208,o),
(1254,1340,o),
(1244,1428,cs)
);
},
{
closed = 1;
nodes = (
(1044,490,o),
(1070,458,o),
(1070,406,cs),
(1070,368,o),
(1052,334,o),
(992,334,cs),
(952,334,o),
(922,368,o),
(922,408,cs),
(922,466,o),
(956,490,o),
(1000,490,cs)
);
},
{
closed = 1;
nodes = (
(1052,692,o),
(1080,662,o),
(1080,628,cs),
(1080,580,o),
(1052,556,o),
(1010,556,cs),
(968,556,o),
(944,588,o),
(944,634,cs),
(944,662,o),
(964,692,o),
(1012,692,cs)
);
},
{
closed = 1;
nodes = (
(942,106,o),
(906,124,o),
(906,190,cs),
(906,234,o),
(942,266,o),
(986,266,cs),
(1048,266,o),
(1074,230,o),
(1074,182,cs),
(1074,134,o),
(1040,106,o),
(984,106,cs)
);
},
{
closed = 1;
nodes = (
(190,146,o),
(190,146,o),
(190,146,cs),
(190,146,o),
(190,146,o),
(190,146,cs),
(190,146,o),
(190,146,o),
(190,146,cs),
(190,146,o),
(190,146,o),
(190,146,cs)
);
},
{
closed = 1;
nodes = (
(144,542,o),
(64,562,o),
(50,490,cs),
(34,418,o),
(108,410,o),
(208,390,c),
(284,528,l)
);
},
{
closed = 1;
nodes = (
(794,252,o),
(788,198,o),
(784,140,cs),
(774,20,o),
(840,-28,o),
(954,-24,cs),
(1144,-16,o),
(1360,-6,o),
(1520,4,cs),
(1628,10,o),
(1628,236,o),
(1466,204,cs),
(1414,194,o),
(1312,156,o),
(1246,144,cs),
(1206,136,o),
(1180,150,o),
(1178,186,cs),
(1172,286,o),
(1170,468,o),
(1170,566,cs),
(1170,614,o),
(1188,644,o),
(1230,642,cs),
(1262,640,o),
(1304,634,o),
(1356,630,cs),
(1492,620,o),
(1500,816,o),
(1368,816,cs),
(1300,816,o),
(1202,814,o),
(1090,812,cs),
(1036,812,o),
(1008,832,o),
(1008,870,cs),
(1008,940,o),
(1008,1014,o),
(1012,1084,cs),
(1014,1178,o),
(1042,1198,o),
(1082,1198,cs),
(1184,1198,o),
(1356,1182,o),
(1476,1174,cs),
(1562,1168,o),
(1618,1202,o),
(1618,1278,cs),
(1618,1344,o),
(1578,1380,o),
(1464,1376,cs),
(1222,1366,o),
(1066,1362,o),
(908,1354,cs),
(794,1348,o),
(686,1304,o),
(622,1192,cs),
(428,860,o),
(250,520,o),
(88,220,cs),
(-20,24,o),
(214,-56,o),
(292,118,cs),
(328,198,o),
(364,280,o),
(402,364,c),
(798,316,l)
);
}
);
};
layerId = "CFF5DD36-1931-4E59-8F18-6FE0536EA512";
name = "{30}";
shapes = (
{
closed = 1;
nodes = (
(692,604,o),
(552,606,o),
(492,610,c),
(530,710,o),
(584,834,o),
(628,936,cs),
(662,1016,o),
(718,1058,o),
(780,1058,cs),
(838,1058,o),
(860,1024,o),
(854,930,cs),
(848,820,o),
(838,714,o),
(832,638,cs),
(828,606,o),
(818,596,o),
(788,598,cs)
);
},
{
closed = 1;
nodes = (
(1501,1486,o),
(1484,1518,o),
(1442,1518,cs),
(1402,1520,o),
(1379,1492,o),
(1374,1430,cs),
(1370,1383,o),
(1367,1320,o),
(1368,1271,cs),
(1369,1223,o),
(1386,1203,o),
(1428,1201,cs),
(1462,1201,o),
(1485,1216,o),
(1492,1270,cs),
(1497,1308,o),
(1499,1376,o),
(1500,1428,cs)
);
},
{
closed = 1;
nodes = (
(1294,1488,o),
(1272,1522,o),
(1232,1524,cs),
(1192,1528,o),
(1170,1496,o),
(1168,1412,cs),
(1166,1316,o),
(1168,1186,o),
(1172,1112,cs),
(1176,1018,o),
(1194,980,o),
(1244,978,cs),
(1296,974,o),
(1316,1014,o),
(1314,1112,cs),
(1314,1194,o),
(1306,1326,o),
(1298,1416,cs)
);
},
{
closed = 1;
nodes = (
(1054,610,o),
(1078,578,o),
(1078,532,cs),
(1078,492,o),
(1054,464,o),
(1002,464,cs),
(964,464,o),
(934,490,o),
(934,538,cs),
(934,584,o),
(966,610,o),
(1006,610,cs)
);
},
{
closed = 1;
nodes = (
(1192,762,o),
(1222,730,o),
(1222,694,cs),
(1222,644,o),
(1192,620,o),
(1150,620,cs),
(1106,620,o),
(1082,654,o),
(1082,700,cs),
(1082,730,o),
(1102,762,o),
(1152,762,cs)
);
},
{
closed = 1;
nodes = (
(1038,374,o),
(1062,342,o),
(1062,294,cs),
(1062,252,o),
(1038,222,o),
(982,222,cs),
(942,222,o),
(910,246,o),
(910,300,cs),
(910,348,o),
(944,374,o),
(986,374,cs)
);
},
{
closed = 1;
nodes = (
(279,341,o),
(279,341,o),
(279,341,cs),
(279,341,o),
(279,341,o),
(279,341,cs),
(279,341,o),
(279,341,o),
(279,341,cs),
(279,341,o),
(279,341,o),
(279,341,cs)
);
},
{
closed = 1;
nodes = (
(247,256,o),
(269,220,o),
(269,172,cs),
(269,124,o),
(240,96,o),
(188,96,cs),
(148,96,o),
(115,116,o),
(115,180,cs),
(115,224,o),
(148,256,o),
(188,256,cs)
);
},
{
closed = 1;
nodes = (
(294,609,o),
(259,620,o),
(259,545,cs),
(259,481,o),
(277,471,o),
(305,459,c),
(349,605,l)
);
},
{
closed = 1;
nodes = (
(514,450,o),
(664,446,o),
(770,440,cs),
(802,438,o),
(816,418,o),
(812,384,cs),
(806,318,o),
(798,242,o),
(794,160,cs),
(786,44,o),
(848,4,o),
(960,0,cs),
(1126,-6,o),
(1314,-10,o),
(1466,-8,cs),
(1520,-6,o),
(1550,22,o),
(1550,78,cs),
(1550,132,o),
(1522,162,o),
(1460,164,cs),
(1382,166,o),
(1308,160,o),
(1226,162,cs),
(1186,162,o),
(1160,174,o),
(1158,210,cs),
(1152,288,o),
(1150,412,o),
(1150,484,cs),
(1150,532,o),
(1168,562,o),
(1210,560,cs),
(1234,560,o),
(1266,556,o),
(1304,552,cs),
(1400,546,o),
(1448,606,o),
(1448,684,cs),
(1448,762,o),
(1406,814,o),
(1316,814,cs),
(1274,814,o),
(1212,812,o),
(1140,812,cs),
(1048,812,o),
(1020,832,o),
(1020,870,cs),
(1020,942,o),
(1020,1016,o),
(1024,1086,cs),
(1026,1180,o),
(1050,1202,o),
(1090,1200,cs),
(1192,1198,o),
(1326,1188,o),
(1438,1186,cs),
(1524,1184,o),
(1578,1208,o),
(1578,1278,cs),
(1578,1344,o),
(1538,1380,o),
(1424,1376,cs),
(1196,1368,o),
(1016,1360,o),
(846,1346,cs),
(730,1336,o),
(628,1274,o),
(564,1158,cs),
(378,840,o),
(224,542,o),
(62,240,cs),
(42,200,o),
(32,166,o),
(32,134,cs),
(32,46,o),
(99,-8,o),
(170,-8,cs),
(228,-8,o),
(288,26,o),
(320,108,cs),
(367,223,o),
(402,356,o),
(434,456,c)
);
}
);
width = 1546;
},
{
associatedMasterId = "34BCA492-7EC7-4349-9547-1652F586AA1A";
attr = {
coordinates = (
50
);
};
background = {
shapes = (
{
closed = 1;
nodes = (
(738,820,o),
(776,932,o),
(814,1038,cs),
(836,1100,o),
(866,1120,o),
(900,1120,cs),
(942,1120,o),
(954,1088,o),
(948,998,cs),
(940,892,o),
(934,800,o),
(926,716,c),
(698,708,l)
);
},
{
closed = 1;
nodes = (
(1562,1338,o),
(1542,1350,o),
(1512,1348,cs),
(1484,1346,o),
(1462,1330,o),
(1458,1300,cs),
(1456,1288,o),
(1454,1276,o),
(1456,1266,cs),
(1460,1230,o),
(1480,1216,o),
(1518,1214,cs),
(1546,1214,o),
(1568,1226,o),
(1570,1262,cs),
(1572,1272,o),
(1572,1290,o),
(1568,1304,cs)
);
},
{
closed = 1;
nodes = (
(1432,1476,o),
(1412,1512,o),
(1372,1514,cs),
(1332,1520,o),
(1308,1490,o),
(1304,1406,cs),
(1298,1310,o),
(1294,1180,o),
(1296,1104,cs),
(1296,1010,o),
(1312,972,o),
(1362,968,cs),
(1414,962,o),
(1436,1002,o),
(1438,1100,cs),
(1442,1182,o),
(1438,1314,o),
(1434,1404,cs)
);
},
{
closed = 1;
nodes = (
(1156,734,o),
(1178,702,o),
(1178,662,cs),
(1178,620,o),
(1148,598,o),
(1104,598,cs),
(1070,598,o),
(1040,614,o),
(1040,670,cs),
(1040,706,o),
(1070,734,o),
(1104,734,cs)
);
},
{
closed = 1;
nodes = (
(1366,722,o),
(1398,688,o),
(1398,652,cs),
(1398,600,o),
(1366,576,o),
(1322,576,cs),
(1276,576,o),
(1252,610,o),
(1252,658,cs),
(1252,688,o),
(1272,722,o),
(1324,722,cs)
);
},
{
closed = 1;
nodes = (
(1022,358,o),
(996,388,o),
(996,428,cs),
(996,482,o),
(1026,502,o),
(1066,502,cs),
(1108,502,o),
(1132,474,o),
(1132,426,cs),
(1132,388,o),
(1118,358,o),
(1062,358,cs)
);
},
{
closed = 1;
nodes = (
(262,132,o),
(226,150,o),
(226,216,cs),
(226,260,o),
(262,292,o),
(306,292,cs),
(368,292,o),
(394,256,o),
(394,208,cs),
(394,160,o),
(360,132,o),
(304,132,cs)
);
},
{
closed = 1;
nodes = (
(454,696,o),
(404,690,o),
(402,628,cs),
(400,560,o),
(456,560,o),
(534,558,c),
(546,704,l)
);
},
{
closed = 1;
nodes = (
(904,428,o),
(894,310,o),
(884,180,cs),
(874,60,o),
(954,34,o),
(1094,16,cs),
(1236,-2,o),
(1374,-14,o),
(1494,-24,cs),
(1602,-32,o),
(1632,192,o),
(1468,182,cs),
(1424,180,o),
(1350,180,o),
(1286,184,cs),
(1246,186,o),
(1220,200,o),
(1218,236,cs),
(1214,294,o),
(1210,358,o),
(1210,404,cs),
(1210,452,o),
(1228,480,o),
(1270,480,cs),
(1286,480,o),
(1308,478,o),
(1336,476,cs),
(1566,460,o),
(1586,808,o),
(1348,812,cs),
(1328,812,o),
(1302,812,o),
(1270,812,cs),
(1216,812,o),
(1188,832,o),
(1188,870,cs),
(1188,940,o),
(1188,1014,o),
(1192,1084,cs),
(1194,1178,o),
(1204,1198,o),
(1222,1198,cs),
(1288,1198,o),
(1398,1178,o),
(1476,1174,cs),
(1562,1168,o),
(1618,1202,o),
(1618,1278,cs),
(1618,1344,o),
(1578,1380,o),
(1464,1376,cs),
(1292,1368,o),
(1180,1360,o),
(1068,1354,cs),
(890,1344,o),
(800,1310,o),
(722,1192,cs),
(454,790,o),
(332,590,o),
(160,288,cs),
(6,22,o),
(404,-126,o),
(498,138,cs),
(544,268,o),
(594,410,o),
(648,560,c),
(916,566,l)
);
}
);
};
layerId = "D2BBF333-AA15-4EC8-A689-B61E23160505";
name = "{50}";
shapes = (
{
closed = 1;
nodes = (
(780,758,o),
(660,756,o),
(580,756,c),
(628,860,o),
(682,966,o),
(730,1056,cs),
(766,1126,o),
(818,1154,o),
(874,1154,cs),
(924,1154,o),
(942,1122,o),
(936,1038,cs),
(930,940,o),
(918,854,o),
(912,802,cs),
(908,774,o),
(896,760,o),
(866,760,cs)
);
},
{
closed = 1;
nodes = (
(1544,1316,o),
(1532,1322,o),
(1514,1322,cs),
(1498,1320,o),
(1484,1310,o),
(1482,1294,cs),
(1480,1286,o),
(1480,1278,o),
(1480,1272,cs),
(1482,1252,o),
(1494,1242,o),
(1516,1242,cs),
(1534,1242,o),
(1546,1248,o),
(1548,1270,cs),
(1550,1276,o),
(1550,1288,o),
(1546,1294,cs)
);
},
{
closed = 1;
nodes = (
(1394,1356,o),
(1374,1388,o),
(1332,1390,cs),
(1290,1392,o),
(1266,1368,o),
(1262,1294,cs),
(1258,1234,o),
(1256,1152,o),
(1258,1104,cs),
(1258,1010,o),
(1274,972,o),
(1324,968,cs),
(1376,962,o),
(1398,1002,o),
(1400,1100,cs),
(1402,1152,o),
(1400,1236,o),
(1396,1292,cs)
);
},
{
closed = 1;
nodes = (
(824,688,o),
(848,656,o),
(848,612,cs),
(848,570,o),
(816,544,o),
(768,544,cs),
(730,544,o),
(698,562,o),
(698,620,cs),
(698,660,o),
(730,688,o),
(768,688,cs)
);
},
{
closed = 1;
nodes = (
(1350,692,o),
(1380,660,o),
(1380,626,cs),
(1380,576,o),
(1350,552,o),
(1308,552,cs),
(1264,552,o),
(1240,584,o),
(1240,632,cs),
(1240,660,o),
(1260,692,o),
(1310,692,cs)
);
},
{
closed = 1;
nodes = (
(1058,626,o),
(1082,598,o),
(1082,548,cs),
(1082,510,o),
(1066,478,o),
(1010,478,cs),
(970,478,o),
(944,510,o),
(944,550,cs),
(944,604,o),
(974,626,o),
(1014,626,cs)
);
},
{
closed = 1;
nodes = (
(488,696,o),
(510,666,o),
(510,618,cs),
(510,578,o),
(484,550,o),
(436,550,cs),
(392,550,o),
(358,567,o),
(358,628,cs),
(358,668,o),
(388,696,o),
(432,696,cs)
);
},
{
closed = 1;
nodes = (
(320,470,o),
(320,470,o),
(320,470,cs),
(320,470,o),
(320,470,o),
(320,470,cs),
(320,470,o),
(320,470,o),
(320,470,cs),
(320,470,o),
(320,470,o),
(320,470,cs)
);
},
{
closed = 1;
nodes = (
(480,794,o),
(456,792,o),
(456,758,cs),
(456,724,o),
(480,724,o),
(518,722,c),
(524,796,l)
);
},
{
closed = 1;
nodes = (
(584,472,o),
(719,474,o),
(828,474,cs),
(858,474,o),
(872,456,o),
(868,422,cs),
(860,354,o),
(846,272,o),
(840,178,cs),
(830,68,o),
(886,20,o),
(1026,20,cs),
(1186,18,o),
(1334,16,o),
(1456,22,cs),
(1510,24,o),
(1542,66,o),
(1542,108,cs),
(1542,150,o),
(1512,192,o),
(1444,192,cs),
(1348,194,o),
(1232,192,o),
(1144,196,cs),
(1108,198,o),
(1082,214,o),
(1084,250,cs),
(1084,292,o),
(1084,336,o),
(1088,382,cs),
(1092,426,o),
(1108,454,o),
(1146,454,cs),
(1194,454,o),
(1242,452,o),
(1324,450,cs),
(1442,444,o),
(1506,516,o),
(1506,622,cs),
(1506,724,o),
(1450,788,o),
(1336,790,cs),
(1298,790,o),
(1246,788,o),
(1192,790,cs),
(1116,790,o),
(1088,810,o),
(1090,848,cs),
(1092,916,o),
(1096,990,o),
(1102,1058,cs),
(1110,1152,o),
(1128,1174,o),
(1190,1182,cs),
(1266,1188,o),
(1372,1196,o),
(1456,1204,cs),
(1534,1210,o),
(1580,1236,o),
(1580,1286,cs),
(1580,1334,o),
(1548,1364,o),
(1444,1362,cs),
(1222,1354,o),
(1056,1342,o),
(880,1320,cs),
(742,1306,o),
(650,1244,o),
(590,1142,cs),
(388,809,o),
(221,535,o),
(29,194,cs),
(9,161,o),
(6,128,o),
(6,98,cs),
(6,21,o),
(72,-28,o),
(145,-28,cs),
(207,-28,o),
(271,5,o),
(310,86,cs),
(378,216,o),
(425,352,o),
(480,474,c)
);
}
);
width = 1546;
}
);
unicode = (198,230);
},
{
color = 11;
glyphname = A.rev;
kernLeft = A;
kernRight = A;
lastChange = "2022-12-16 01:09:11 +0000";
layers = (
{
anchors = (
{
name = bottom;
pos = (600,54);
},
{
name = ogonek;
pos = (1004,-140);
},
{
name = top;
pos = (644,1344);
}
);
layerId = "7390BA8A-CD54-46A0-980C-73781B2212BF";
name = "60";
shapes = (
{
closed = 1;
nodes = (
(12,104,o),
(54,30,o),
(140,30,cs),
(186,30,o),
(234,60,o),
(254,134,cs),
(312,360,o),
(372,612,o),
(434,850,cs),
(456,938,o),
(484,964,o),
(530,964,cs),
(578,964,o),
(600,930,o),
(628,852,cs),
(730,568,o),
(838,236,o),
(946,-62,cs),
(966,-116,o),
(1004,-140,o),
(1038,-140,cs),
(1082,-140,o),
(1120,-98,o),
(1106,-24,cs),
(1062,234,o),
(1012,502,o),
(960,768,c),
(868,742,o),
(768,722,o),
(768,810,cs),
(768,860,o),
(812,882,o),
(936,898,c),
(930,938,o),
(922,978,o),
(914,1018,c),
(782,994,o),
(686,976,o),
(686,1062,cs),
(686,1108,o),
(730,1132,o),
(890,1148,c),
(888,1164,o),
(884,1180,o),
(882,1196,cs),
(860,1314,o),
(770,1372,o),
(656,1374,cs),
(546,1376,o),
(456,1322,o),
(414,1212,cs),
(412,1207,o),
(399,1171,o),
(378,1115,cs),
(372,1098,o),
(365,1080,o),
(358,1060,cs),
(352,1044,o),
(346,1027,o),
(339,1009,cs),
(326,972,o),
(311,931,o),
(295,888,cs),
(289,872,o),
(283,855,o),
(277,839,cs),
(271,821,o),
(265,804,o),
(258,786,cs),
(170,543,o),
(72,273,o),
(44,196,cs)
);
},
{
closed = 1;
nodes = (
(316,494,o),
(388,486,o),
(460,482,cs),
(574,476,o),
(606,494,o),
(606,552,cs),
(606,612,o),
(560,624,o),
(468,628,cs),
(406,630,o),
(346,630,o),
(284,628,c),
(246,502,l)
);
},
{
closed = 1;
nodes = (
(446,222,o),
(664,200,o),
(888,180,c),
(848,332,l),
(658,352,o),
(462,370,o),
(288,384,cs),
(220,390,o),
(164,380,o),
(164,318,cs),
(164,278,o),
(204,252,o),
(266,244,cs)
);
},
{
closed = 1;
nodes = (
(387,1068,l),
(262,1122,o),
(146,1150,o),
(146,1056,cs),
(146,1009,o),
(195,978,o),
(330,922,c)
);
},
{
closed = 1;
nodes = (
(296,822,l),
(161,870,o),
(48,899,o),
(48,804,cs),
(48,758,o),
(101,734,o),
(260,690,c)
);
},
{
closed = 1;
nodes = (
(896,498,o),
(934,504,o),
(934,554,cs),
(934,660,o),
(894,660,o),
(792,642,c),
(822,492,l)
);
},
{
closed = 1;
nodes = (
(968,176,o),
(1006,182,o),
(1006,236,cs),
(1006,346,o),
(968,354,o),
(864,332,c),
(894,172,l)
);
}
);
width = 1130;
},
{
anchors = (
{
name = bottom;
pos = (656,74);
},
{
name = ogonek;
pos = (982,16);
},
{
name = top;
pos = (570,1364);
}
);
layerId = "16FBD564-A0D0-4365-B77C-94A96DAC7D94";
name = "0";
shapes = (
{
closed = 1;
nodes = (
(8,28,o),
(84,-76,o),
(220,-76,cs),
(308,-76,o),
(392,-18,o),
(408,106,cs),
(446,400,o),
(478,728,o),
(514,1040,cs),
(522,1106,o),
(546,1134,o),
(588,1134,cs),
(628,1134,o),
(646,1110,o),
(662,1046,cs),
(740,734,o),
(808,408,o),
(886,110,cs),
(902,46,o),
(934,16,o),
(982,16,cs),
(1048,16,o),
(1086,66,o),
(1064,150,cs),
(1036,256,o),
(967,519,o),
(905,751,cs),
(900,772,o),
(894,793,o),
(889,813,cs),
(881,841,o),
(874,868,o),
(867,895,cs),
(859,924,o),
(852,952,o),
(845,978,cs),
(839,1000,o),
(834,1021,o),
(828,1041,cs),
(822,1065,o),
(816,1087,o),
(811,1105,cs),
(807,1121,o),
(803,1135,o),
(800,1146,cs),
(762,1288,o),
(707,1372,o),
(567,1374,cs),
(450,1376,o),
(366,1330,o),
(320,1170,cs),
(262,968,o),
(206,766,o),
(152,568,c),
(284,552,o),
(332,532,o),
(332,486,cs),
(332,404,o),
(254,420,o),
(120,452,c),
(110,416,o),
(100,378,o),
(90,342,c),
(248,312,o),
(288,292,o),
(288,252,cs),
(288,172,o),
(190,192,o),
(60,226,c),
(54,206,o),
(50,186,o),
(44,166,cs)
);
},
{
closed = 1;
nodes = (
(562,372,o),
(700,382,o),
(838,396,cs),
(918,404,o),
(934,434,o),
(934,468,cs),
(934,508,o),
(912,550,o),
(826,544,cs),
(698,536,o),
(570,528,o),
(438,516,c),
(428,364,l)
);
},
{
closed = 1;
nodes = (
(968,240,o),
(988,238,o),
(1004,238,c),
(978,356,l),
(972,356,o),
(966,356,o),
(960,356,cs),
(924,356,o),
(906,328,o),
(906,300,cs),
(906,272,o),
(924,246,o),
(954,242,cs)
);
},
{
closed = 1;
nodes = (
(218,150,l),
(164,164,o),
(120,153,o),
(120,84,cs),
(120,47,o),
(118,24,o),
(160,4,c)
);
},
{
closed = 1;
nodes = (
(218,132,l),
(158,144,o),
(100,144,o),
(100,82,cs),
(100,17,o),
(114,4,o),
(178,-6,c)
);
},
{
closed = 1;
nodes = (
(1008,880,o),
(1062,908,o),
(1062,954,cs),
(1062,1052,o),
(952,1020,o),
(810,978,c),
(854,846,l)
);
},
{
closed = 1;
nodes = (
(1040,616,o),
(1092,630,o),
(1092,686,cs),
(1092,778,o),
(1016,766,o),
(876,736,c),
(896,602,l)
);
}
);
width = 1130;
},
{
anchors = (
{
name = bottom;
pos = (582,72);
},
{
name = ogonek;
pos = (1006,-60);
},
{
name = top;
pos = (632,1428);
}
);
layerId = "34BCA492-7EC7-4349-9547-1652F586AA1A";
name = "40";
shapes = (
{
closed = 1;
nodes = (
(97,84,o),
(154,44,o),
(212,44,cs),
(260,44,o),
(308,72,o),
(318,158,cs),
(340,338,o),
(356,512,o),
(378,690,cs),
(394,822,o),
(460,892,o),
(602,892,cs),
(736,892,o),
(784,828,o),
(810,684,cs),
(850,454,o),
(884,234,o),
(920,36,cs),
(934,-44,o),
(972,-72,o),
(1010,-72,cs),
(1054,-72,o),
(1096,-34,o),
(1084,64,cs),
(1071,173,o),
(1027,488,o),
(991,745,cs),
(988,770,o),
(984,794,o),
(981,818,cs),
(978,838,o),
(975,859,o),
(972,878,cs),
(960,965,o),
(950,1035,o),
(944,1076,c),
(802,1054,o),
(678,1026,o),
(678,1114,cs),
(678,1168,o),
(744,1186,o),
(924,1206,c),
(922,1214,o),
(922,1220,o),
(920,1228,cs),
(900,1368,o),
(786,1434,o),
(620,1434,cs),
(458,1434,o),
(352,1386,o),
(326,1254,cs),
(318,1214,o),
(310,1176,o),
(302,1136,c),
(452,1120,o),
(506,1100,o),
(506,1050,cs),
(506,968,o),
(408,986,o),
(276,1012,c),
(269,974,o),
(261,934,o),
(252,892,cs),
(248,869,o),
(243,846,o),
(239,823,cs),
(234,799,o),
(230,775,o),
(225,750,cs),
(187,557,o),
(146,347,o),
(116,186,cs)
);
},
{
closed = 1;
nodes = (
(482,357,o),
(676,353,o),
(874,348,cs),
(932,347,o),
(962,364,o),
(962,422,cs),
(962,468,o),
(932,493,o),
(876,494,cs),
(692,497,o),
(510,501,o),
(326,504,c),
(288,364,l)
);
},
{
closed = 1;
nodes = (
(764,104,o),
(866,104,o),
(972,104,c),
(940,250,l),
(848,252,o),
(760,252,o),
(672,250,cs),
(590,248,o),
(552,224,o),
(552,180,cs),
(552,136,o),
(578,112,o),
(666,108,cs)
);
},
{
closed = 1;
nodes = (
(310,801,l),
(159,822,o),
(30,841,o),
(30,756,cs),
(30,702,o),
(73,687,o),
(306,658,c)
);
},
{
closed = 1;
nodes = (
(245,380,l),
(28,390,o),
(-34,388,o),
(-34,316,cs),
(-34,265,o),
(3,247,o),
(207,240,c)
);
},
{
closed = 1;
nodes = (
(934,590,o),
(966,600,o),
(966,640,cs),
(966,728,o),
(924,740,o),
(842,722,c),
(880,590,l)
);
},
{
closed = 1;
nodes = (
(980,346,o),
(1014,352,o),
(1014,412,cs),
(1014,486,o),
(988,490,o),
(888,492,c),
(886,348,l)
);
}
);
width = 1130;
},
{
anchors = (
{
name = bottom;
pos = (519,94);
},
{
name = ogonek;
pos = (945,-54);
},
{
name = top;
pos = (641,1364);
}
);
layerId = "73BA353F-5B11-4DB0-9775-19E25D121032";
name = "20";
shapes = (
{
closed = 1;
nodes = (
(39,100,o),
(67,40,o),
(125,40,cs),
(165,40,o),
(196,63,o),
(223,118,cs),
(330,339,o),
(442,586,o),
(555,816,cs),
(613,934,o),
(657,953,o),
(710,953,cs),
(768,953,o),
(790,922,o),
(798,830,cs),
(822,564,o),
(839,302,o),
(865,62,cs),
(873,-14,o),
(913,-54,o),
(965,-54,cs),
(1025,-54,o),
(1060,2,o),
(1051,76,cs),
(1030,246,o),
(998,504,o),
(967,737,cs),
(964,762,o),
(961,788,o),
(957,812,cs),
(955,834,o),
(952,855,o),
(949,875,cs),
(944,908,o),
(940,940,o),
(936,971,cs),
(933,992,o),
(930,1012,o),
(927,1032,cs),
(924,1056,o),
(921,1079,o),
(918,1100,cs),
(915,1124,o),
(912,1146,o),
(909,1166,cs),
(885,1325,o),
(792,1392,o),
(627,1394,cs),
(466,1396,o),
(376,1329,o),
(341,1213,cs),
(340,1208,o),
(339,1205,o),
(338,1200,c),
(522,1158,o),
(576,1126,o),
(576,1082,cs),
(576,992,o),
(443,1029,o),
(305,1088,c),
(294,1050,o),
(282,1008,o),
(270,962,c),
(416,926,o),
(457,894,o),
(457,858,cs),
(457,778,o),
(357,800,o),
(239,849,c),
(173,614,o),
(99,334,o),
(61,186,cs)
);
},
{
closed = 1;
nodes = (
(487,353,o),
(666,356,o),
(853,364,cs),
(907,366,o),
(937,388,o),
(937,442,cs),
(937,491,o),
(891,512,o),
(827,510,cs),
(675,506,o),
(502,499,o),
(331,492,c),
(293,350,l)
);
},
{
closed = 1;
nodes = (
(979,162,o),
(993,162,o),
(1005,162,c),
(1005,288,l),
(991,288,o),
(975,288,o),
(967,288,cs),
(925,288,o),
(899,266,o),
(899,226,cs),
(899,186,o),
(931,162,o),
(967,162,cs)
);
},
{
closed = 1;
nodes = (
(230,564,l),
(93,625,o),
(-39,658,o),
(-39,563,cs),
(-39,513,o),
(8,485,o),
(188,433,c)
);
},
{
closed = 1;
nodes = (
(287,462,l),
(209,490,o),
(167,460,o),
(167,384,cs),
(167,348,o),
(195,332,o),
(245,316,c)
);
},
{
closed = 1;
nodes = (
(931,594,o),
(963,600,o),
(963,648,cs),
(963,722,o),
(931,732,o),
(859,724,c),
(873,586,l)
);
},
{
closed = 1;
nodes = (
(1115,371,o),
(1159,384,o),
(1159,439,cs),
(1159,528,o),
(1105,522,o),
(937,516,c),
(944,370,l)
);
}
);
width = 1130;
},
{
anchors = (
{
name = bottom;
pos = (591,63);
},
{
name = ogonek;
pos = (1005,-100);
},
{
name = top;
pos = (638,1386);
}
);
associatedMasterId = "34BCA492-7EC7-4349-9547-1652F586AA1A";
attr = {
coordinates = (
50
);
};
layerId = "3CDCB7E8-5E61-4629-8775-7ADD0B0456B7";
name = "{50}";
shapes = (
{
closed = 1;
nodes = (
(54,94,o),
(104,37,o),
(176,37,cs),
(223,37,o),
(271,66,o),
(286,146,cs),
(326,349,o),
(364,562,o),
(406,770,cs),
(425,880,o),
(472,928,o),
(566,928,cs),
(657,928,o),
(691,879,o),
(718,769,cs),
(790,511,o),
(861,235,o),
(933,-13,cs),
(950,-80,o),
(988,-106,o),
(1024,-106,cs),
(1068,-106,o),
(1108,-66,o),
(1095,20,cs),
(1066,204,o),
(1019,495,o),
(975,757,cs),
(972,779,o),
(968,800,o),
(965,822,cs),
(961,844,o),
(958,866,o),
(954,888,cs),
(945,951,o),
(936,1006,o),
(929,1047,c),
(792,1024,o),
(682,1001,o),
(682,1088,cs),
(682,1138,o),
(737,1159,o),
(907,1177,c),
(905,1189,o),
(903,1200,o),
(901,1212,cs),
(880,1341,o),
(778,1403,o),
(638,1404,cs),
(502,1405,o),
(404,1354,o),
(370,1233,cs),
(365,1210,o),
(355,1173,o),
(340,1125,cs),
(334,1103,o),
(327,1080,o),
(321,1057,cs),
(317,1041,o),
(313,1026,o),
(308,1010,cs),
(298,973,o),
(286,932,o),
(274,890,cs),
(269,871,o),
(263,851,o),
(258,831,cs),
(253,810,o),
(248,790,o),
(242,768,cs),
(178,550,o),
(109,310,o),
(80,191,cs)
);
},
{
closed = 1;
nodes = (
(399,426,o),
(531,420,o),
(666,415,cs),
(752,412,o),
(783,429,o),
(783,487,cs),
(783,540,o),
(745,559,o),
(671,561,cs),
(548,564,o),
(428,566,o),
(305,566,c),
(267,433,l)
);
},
{
closed = 1;
nodes = (
(604,163,o),
(764,152,o),
(930,142,c),
(894,291,l),
(752,302,o),
(610,311,o),
(479,317,cs),
(404,319,o),
(357,302,o),
(357,249,cs),
(357,207,o),
(390,182,o),
(465,176,cs)
);
},
{
closed = 1;
nodes = (
(349,935,l),
(211,973,o),
(88,996,o),
(88,907,cs),
(88,856,o),
(134,833,o),
(318,791,c)
);
},
{
closed = 1;
nodes = (
(271,602,l),
(95,631,o),
(7,645,o),
(7,561,cs),
(7,513,o),
(52,492,o),
(234,466,c)
);
},
{
closed = 1;
nodes = (
(915,544,o),
(950,552,o),
(950,597,cs),
(950,694,o),
(909,700,o),
(817,682,c),
(851,541,l)
);
},
{
closed = 1;
nodes = (
(974,260,o),
(1010,266,o),
(1010,323,cs),
(1010,416,o),
(978,422,o),
(876,412,c),
(890,259,l)
);
}
);
width = 1130;
},
{
anchors = (
{
name = bottom;
pos = (550,83);
},
{
name = ogonek;
pos = (975,-57);
},
{
name = top;
pos = (637,1396);
}
);
associatedMasterId = "73BA353F-5B11-4DB0-9775-19E25D121032";
attr = {
coordinates = (
30
);
};
layerId = "CED12466-392D-4991-9AAD-4E3824B1DCCF";
name = "{30}";
shapes = (
{
closed = 1;
nodes = (
(68,92,o),
(110,42,o),
(168,42,cs),
(212,42,o),
(252,67,o),
(270,138,cs),
(335,339,o),
(399,549,o),
(467,753,cs),
(504,878,o),
(559,923,o),
(656,923,cs),
(752,923,o),
(787,875,o),
(804,757,cs),
(836,509,o),
(861,268,o),
(892,49,cs),
(903,-29,o),
(942,-63,o),
(987,-63,cs),
(1039,-63,o),
(1078,-16,o),
(1067,70,cs),
(1050,210,o),
(1012,496,o),
(979,741,cs),
(976,766,o),
(972,791,o),
(969,815,cs),
(966,836,o),
(963,857,o),
(960,876,cs),
(952,936,o),
(945,987,o),
(940,1023,cs),
(937,1046,o),
(933,1069,o),
(930,1093,cs),
(927,1113,o),
(924,1133,o),
(921,1153,c),
(918,1169,o),
(917,1183,o),
(914,1197,cs),
(892,1346,o),
(789,1413,o),
(624,1414,cs),
(462,1415,o),
(364,1357,o),
(333,1231,cs),
(329,1210,o),
(325,1190,o),
(320,1168,c),
(487,1139,o),
(541,1113,o),
(541,1066,cs),
(541,980,o),
(426,1008,o),
(291,1050,c),
(282,1012,o),
(272,971,o),
(261,927,cs),
(256,905,o),
(251,883,o),
(246,862,cs),
(241,841,o),
(237,820,o),
(232,800,cs),
(180,586,o),
(122,340,o),
(88,186,cs)
);
},
{
closed = 1;
nodes = (
(485,355,o),
(671,355,o),
(863,356,cs),
(919,357,o),
(949,376,o),
(949,432,cs),
(949,480,o),
(911,503,o),
(851,502,cs),
(683,502,o),
(506,500,o),
(329,498,c),
(291,357,l)
);
},
{
closed = 1;
nodes = (
(872,133,o),
(930,133,o),
(989,133,c),
(973,269,l),
(920,270,o),
(868,270,o),
(820,269,cs),
(758,268,o),
(726,245,o),
(726,203,cs),
(726,161,o),
(755,137,o),
(817,135,cs)
);
},
{
closed = 1;
nodes = (
(270,682,l),
(126,723,o),
(-5,749,o),
(-5,659,cs),
(-5,607,o),
(40,586,o),
(247,545,c)
);
},
{
closed = 1;
nodes = (
(266,421,l),
(119,440,o),
(67,424,o),
(67,350,cs),
(67,307,o),
(99,290,o),
(226,278,c)
);
},
{
closed = 1;
nodes = (
(932,592,o),
(964,600,o),
(964,644,cs),
(964,725,o),
(928,736,o),
(851,723,c),
(876,588,l)
);
},
{
closed = 1;
nodes = (
(1048,359,o),
(1087,368,o),
(1087,426,cs),
(1087,507,o),
(1047,506,o),
(913,504,c),
(915,359,l)
);
}
);
width = 1130;
},
{
anchors = (
{
name = bottom;
pos = (588,84);
},
{
name = ogonek;
pos = (964,-19);
},
{
name = top;
pos = (606,1364);
}
);
associatedMasterId = "16FBD564-A0D0-4365-B77C-94A96DAC7D94";
attr = {
coordinates = (
10
);
};
layerId = "55082237-CF5C-412F-94BA-9670AFEB180A";
name = "{10}";
shapes = (
{
closed = 1;
nodes = (
(24,64,o),
(76,-18,o),
(173,-18,cs),
(237,-18,o),
(294,23,o),
(316,112,cs),
(388,370,o),
(460,657,o),
(535,928,cs),
(568,1020,o),
(602,1044,o),
(649,1044,cs),
(698,1044,o),
(718,1016,o),
(730,938,cs),
(781,649,o),
(824,355,o),
(876,86,cs),
(888,16,o),
(924,-19,o),
(974,-19,cs),
(1037,-19,o),
(1073,34,o),
(1058,113,cs),
(1033,251,o),
(983,512,o),
(936,744,cs),
(932,767,o),
(928,791,o),
(923,813,cs),
(918,838,o),
(913,862,o),
(908,885,cs),
(902,916,o),
(896,946,o),
(891,975,cs),
(886,996,o),
(882,1017,o),
(878,1037,cs),
(873,1061,o),
(869,1083,o),
(865,1103,cs),
(861,1123,o),
(858,1141,o),
(855,1156,cs),
(824,1307,o),
(750,1382,o),
(597,1384,cs),
(458,1386,o),
(371,1330,o),
(330,1189,cs),
(301,1087,o),
(273,985,o),
(245,884,c),
(403,855,o),
(454,829,o),
(454,784,cs),
(454,698,o),
(349,725,o),
(213,770,c),
(202,733,o),
(191,693,o),
(180,652,c),
(332,619,o),
(373,593,o),
(373,555,cs),
(373,475,o),
(274,496,o),
(150,538,c),
(114,410,o),
(75,260,o),
(53,176,cs)
);
},
{
closed = 1;
nodes = (
(525,363,o),
(683,369,o),
(846,380,cs),
(913,385,o),
(936,411,o),
(936,455,cs),
(936,500,o),
(902,531,o),
(827,527,cs),
(687,521,o),
(536,514,o),
(385,504,c),
(361,357,l)
);
},
{
closed = 1;
nodes = (
(974,201,o),
(991,200,o),
(1005,200,c),
(992,322,l),
(982,322,o),
(971,322,o),
(964,322,cs),
(925,322,o),
(903,297,o),
(903,263,cs),
(903,229,o),
(928,204,o),
(961,202,cs)
);
},
{
closed = 1;
nodes = (
(274,347,l),
(207,382,o),
(101,411,o),
(101,319,cs),
(101,268,o),
(154,235,o),
(224,209,c)
);
},
{
closed = 1;
nodes = (
(253,297,l),
(184,317,o),
(142,301,o),
(134,233,cs),
(126,186,o),
(155,168,o),
(212,155,c)
);
},
{
closed = 1;
nodes = (
(880,719,o),
(908,734,o),
(908,778,cs),
(908,874,o),
(857,862,o),
(782,834,c),
(811,699,l)
);
},
{
closed = 1;
nodes = (
(1078,494,o),
(1126,507,o),
(1126,563,cs),
(1126,653,o),
(1061,644,o),
(907,626,c),
(920,486,l)
);
}
);
width = 1130;
}
);
},
{
glyphname = .notdef;
lastChange = "2021-03-25 16:44:58 +0000";
layers = (
{
layerId = "16FBD564-A0D0-4365-B77C-94A96DAC7D94";
shapes = (
{
closed = 1;
nodes = (
(1152,-100,l),
(1152,1600,l),
(100,1600,l),
(100,-100,l)
);
},
{
closed = 1;
nodes = (
(698,198,o),
(752,252,o),
(752,324,cs),
(752,394,o),
(698,448,o),
(628,448,cs),
(556,448,o),
(502,394,o),
(502,324,cs),
(502,252,o),
(556,198,o),
(628,198,cs)
);
},
{
closed = 1;
nodes = (
(220,1484,l),
(1032,1484,l),
(1032,16,l),
(220,16,l)
);
},
{
closed = 1;
nodes = (
(690,572,l),
(730,1278,l),
(532,1278,l),
(572,572,l)
);
}
);
width = 1252;
},
{
layerId = "73BA353F-5B11-4DB0-9775-19E25D121032";
shapes = (
{
closed = 1;
nodes = (
(1152,-100,l),
(1152,1600,l),
(100,1600,l),
(100,-100,l)
);
},
{
closed = 1;
nodes = (
(698,198,o),
(752,252,o),
(752,324,cs),
(752,394,o),
(698,448,o),
(628,448,cs),
(556,448,o),
(502,394,o),
(502,324,cs),
(502,252,o),
(556,198,o),
(628,198,cs)
);
},
{
closed = 1;
nodes = (
(220,1484,l),
(1032,1484,l),
(1032,16,l),
(220,16,l)
);
},
{
closed = 1;
nodes = (
(690,572,l),
(730,1278,l),
(532,1278,l),
(572,572,l)
);
}
);
width = 1252;
},
{
layerId = "34BCA492-7EC7-4349-9547-1652F586AA1A";
shapes = (
{
closed = 1;
nodes = (
(1152,-100,l),
(1152,1600,l),
(100,1600,l),
(100,-100,l)
);
},
{
closed = 1;
nodes = (
(698,198,o),
(752,252,o),
(752,324,cs),
(752,394,o),
(698,448,o),
(628,448,cs),
(556,448,o),
(502,394,o),
(502,324,cs),
(502,252,o),
(556,198,o),
(628,198,cs)
);
},
{
closed = 1;
nodes = (
(220,1484,l),
(1032,1484,l),
(1032,16,l),
(220,16,l)
);
},
{
closed = 1;
nodes = (
(690,572,l),
(730,1278,l),
(532,1278,l),
(572,572,l)
);
}
);
width = 1252;
},
{
layerId = "7390BA8A-CD54-46A0-980C-73781B2212BF";
shapes = (
{
closed = 1;
nodes = (
(1152,-100,l),
(1152,1600,l),
(100,1600,l),
(100,-100,l)
);
},
{
closed = 1;
nodes = (
(698,198,o),
(752,252,o),
(752,324,cs),
(752,394,o),
(698,448,o),
(628,448,cs),
(556,448,o),
(502,394,o),
(502,324,cs),
(502,252,o),
(556,198,o),
(628,198,cs)
);
},
{
closed = 1;
nodes = (
(220,1484,l),
(1032,1484,l),
(1032,16,l),
(220,16,l)
);
},
{
closed = 1;
nodes = (
(690,572,l),
(730,1278,l),
(532,1278,l),
(572,572,l)
);
}
);
width = 1252;
}
);
},
{
color = 9;
glyphname = "brevecomb-cy";
lastChange = "2021-07-13 20:05:47 +0000";
layers = (
{
anchors = (
{
name = _top;
pos = (384,1400);
}
);
layerId = "16FBD564-A0D0-4365-B77C-94A96DAC7D94";
shapes = (
{
closed = 1;
nodes = (
(546,1490,o),
(742,1584,o),
(742,1736,cs),
(742,1787,o),
(708,1820,o),
(650,1820,cs),
(547,1820,o),
(550,1626,o),
(396,1626,cs),
(198,1626,o),
(291,1872,o),
(140,1872,cs),
(70,1872,o),
(40,1816,o),
(40,1754,cs),
(40,1588,o),
(199,1490,o),
(384,1490,cs)
);
}
);
width = 768;
},
{
anchors = (
{
name = _top;
pos = (384,1400);
}
);
background = {
shapes = (
{
closed = 1;
nodes = (
(502,1474,o),
(646,1532,o),
(692,1676,cs),
(720,1762,o),
(696,1804,o),
(654,1816,cs),
(606,1830,o),
(560,1804,o),
(536,1742,cs),
(508,1668,o),
(452,1632,o),
(386,1632,cs),
(312,1632,o),
(290,1688,o),
(274,1748,cs),
(250,1834,o),
(214,1884,o),
(146,1872,cs),
(72,1858,o),
(64,1784,o),
(84,1694,cs),
(114,1562,o),
(220,1474,o),
(370,1474,cs)
);
}
);
};
layerId = "73BA353F-5B11-4DB0-9775-19E25D121032";
shapes = (
{
closed = 1;
nodes = (
(554,1482,o),
(703,1594,o),
(703,1762,cs),
(703,1822,o),
(676,1866,o),
(616,1866,cs),
(476,1866,o),
(533,1636,o),
(384,1636,cs),
(250,1636,o),
(269,1840,o),
(142,1840,cs),
(94,1840,o),
(61,1804,o),
(61,1752,cs),
(61,1606,o),
(217,1482,o),
(380,1482,cs)
);
}
);
width = 768;
},
{
anchors = (
{
name = _top;
pos = (384,1400);
}
);
layerId = "34BCA492-7EC7-4349-9547-1652F586AA1A";
shapes = (
{
closed = 1;
nodes = (
(532,1482,o),
(717,1621,o),
(717,1770,cs),
(717,1821,o),
(682,1856,o),
(628,1856,cs),
(485,1856,o),
(527,1640,o),
(372,1640,cs),
(223,1640,o),
(281,1846,o),
(148,1846,cs),
(94,1846,o),
(49,1808,o),
(49,1745,cs),
(49,1595,o),
(201,1482,o),
(370,1482,cs)
);
}
);
width = 768;
},
{
anchors = (
{
name = _top;
pos = (384,1400);
}
);
layerId = "7390BA8A-CD54-46A0-980C-73781B2212BF";
shapes = (
{
closed = 1;
nodes = (
(557,1478,o),
(734,1577,o),
(734,1740,cs),
(734,1793,o),
(709,1844,o),
(646,1844,cs),
(512,1844,o),
(563,1616,o),
(386,1616,cs),
(216,1616,o),
(267,1860,o),
(132,1860,cs),
(72,1860,o),
(34,1818,o),
(34,1753,cs),
(34,1591,o),
(192,1478,o),
(374,1478,cs)
);
}
);
width = 768;
}
);
},
{
glyphname = dieresiscomb;
lastChange = "2021-03-26 14:55:29 +0000";
layers = (
{
anchors = (
{
name = _top;
pos = (412,1400);
},
{
name = top;
pos = (456,1702);
}
);
layerId = "7390BA8A-CD54-46A0-980C-73781B2212BF";
shapes = (
{
closed = 1;
nodes = (
(306,1468,o),
(358,1526,o),
(358,1588,cs),
(358,1686,o),
(310,1740,o),
(228,1740,cs),
(142,1740,o),
(82,1690,o),
(82,1592,cs),
(82,1522,o),
(132,1468,o),
(206,1468,cs)
);
},
{
closed = 1;
nodes = (
(686,1454,o),
(732,1502,o),
(732,1578,cs),
(732,1664,o),
(678,1716,o),
(596,1716,cs),
(514,1716,o),
(470,1668,o),
(470,1570,cs),
(470,1498,o),
(514,1454,o),
(622,1454,cs)
);
}
);
width = 840;
},
{
anchors = (
{
name = _top;
pos = (412,1400);
},
{
name = top;
pos = (428,1676);
}
);
layerId = "16FBD564-A0D0-4365-B77C-94A96DAC7D94";
shapes = (
{
closed = 1;
nodes = (
(314,1452,o),
(370,1500,o),
(370,1602,cs),
(370,1680,o),
(322,1732,o),
(232,1732,cs),
(150,1732,o),
(90,1678,o),
(90,1578,cs),
(90,1512,o),
(138,1452,o),
(238,1452,cs)
);
},
{
closed = 1;
nodes = (
(672,1476,o),
(714,1526,o),
(714,1608,cs),
(714,1680,o),
(674,1726,o),
(604,1726,cs),
(498,1726,o),
(464,1672,o),
(464,1596,cs),
(464,1526,o),
(512,1476,o),
(590,1476,cs)
);
}
);
width = 840;
},
{
anchors = (
{
name = _top;
pos = (412,1400);
},
{
name = top;
pos = (436,1688);
}
);
layerId = "73BA353F-5B11-4DB0-9775-19E25D121032";
shapes = (
{
closed = 1;
nodes = (
(312,1484,o),
(360,1530,o),
(360,1626,cs),
(360,1686,o),
(316,1736,o),
(246,1736,cs),
(146,1736,o),
(108,1690,o),
(108,1620,cs),
(108,1530,o),
(164,1484,o),
(222,1484,cs)
);
},
{
closed = 1;
nodes = (
(676,1450,o),
(718,1496,o),
(718,1566,cs),
(718,1658,o),
(672,1712,o),
(572,1712,cs),
(504,1712,o),
(456,1666,o),
(456,1582,cs),
(456,1506,o),
(510,1450,o),
(606,1450,cs)
);
}
);
width = 840;
},
{
anchors = (
{
name = _top;
pos = (412,1400);
},
{
name = top;
pos = (388,1678);
}
);
layerId = "34BCA492-7EC7-4349-9547-1652F586AA1A";
shapes = (
{
closed = 1;
nodes = (
(308,1466,o),
(350,1506,o),
(350,1580,cs),
(350,1652,o),
(308,1706,o),
(224,1706,cs),
(162,1706,o),
(110,1654,o),
(110,1586,cs),
(110,1504,o),
(160,1466,o),
(218,1466,cs)
);
},
{
closed = 1;
nodes = (
(664,1460,o),
(714,1506,o),
(714,1616,cs),
(714,1698,o),
(652,1750,o),
(564,1750,cs),
(472,1750,o),
(424,1700,o),
(424,1594,cs),
(424,1504,o),
(466,1460,o),
(554,1460,cs)
);
}
);
width = 840;
}
);
unicode = 776;
},
{
glyphname = dotaccentcomb;
lastChange = "2021-03-26 14:55:29 +0000";
layers = (
{
anchors = (
{
name = _top;
pos = (224,1400);
},
{
name = top;
pos = (222,1696);
}
);
layerId = "7390BA8A-CD54-46A0-980C-73781B2212BF";
shapes = (
{
closed = 1;
nodes = (
(298,1464,o),
(356,1516,o),
(356,1620,cs),
(356,1686,o),
(308,1736,o),
(218,1736,cs),
(124,1736,o),
(84,1686,o),
(84,1598,cs),
(84,1520,o),
(130,1464,o),
(216,1464,cs)
);
}
);
width = 436;
},
{
anchors = (
{
name = _top;
pos = (220,1422);
},
{
name = top;
pos = (220,1756);
}
);
layerId = "16FBD564-A0D0-4365-B77C-94A96DAC7D94";
shapes = (
{
closed = 1;
nodes = (
(302,1500,o),
(362,1562,o),
(362,1634,cs),
(362,1738,o),
(302,1788,o),
(230,1788,cs),
(138,1788,o),
(74,1736,o),
(74,1654,cs),
(74,1552,o),
(122,1500,o),
(218,1500,cs)
);
}
);
width = 436;
},
{
anchors = (
{
name = _top;
pos = (220,1440);
},
{
name = top;
pos = (218,1758);
}
);
layerId = "73BA353F-5B11-4DB0-9775-19E25D121032";
shapes = (
{
closed = 1;
nodes = (
(296,1510,o),
(348,1550,o),
(348,1664,cs),
(348,1716,o),
(302,1770,o),
(218,1770,cs),
(128,1770,o),
(88,1716,o),
(88,1638,cs),
(88,1566,o),
(142,1510,o),
(208,1510,cs)
);
}
);
width = 436;
},
{
anchors = (
{
name = _top;
pos = (220,1458);
},
{
name = top;
pos = (218,1724);
}
);
layerId = "34BCA492-7EC7-4349-9547-1652F586AA1A";
shapes = (
{
closed = 1;
nodes = (
(290,1534,o),
(330,1582,o),
(330,1636,cs),
(330,1724,o),
(288,1758,o),
(204,1758,cs),
(150,1758,o),
(106,1722,o),
(106,1658,cs),
(106,1578,o),
(146,1534,o),
(236,1534,cs)
);
}
);
width = 436;
}
);
unicode = 775;
},
{
glyphname = gravecomb;
lastChange = "2021-03-26 14:55:29 +0000";
layers = (
{
anchors = (
{
name = _top;
pos = (416,1400);
},
{
name = top;
pos = (416,1872);
}
);
layerId = "7390BA8A-CD54-46A0-980C-73781B2212BF";
shapes = (
{
closed = 1;
nodes = (
(464,1474,o),
(476,1472,o),
(486,1472,cs),
(519,1472,o),
(546,1492,o),
(546,1523,cs),
(546,1546,o),
(532,1573,o),
(504,1596,cs),
(432,1654,o),
(332,1738,o),
(274,1780,cs),
(248,1799,o),
(219,1807,o),
(193,1807,cs),
(127,1807,o),
(85,1758,o),
(85,1696,cs),
(85,1650,o),
(111,1606,o),
(170,1582,cs),
(256,1546,o),
(364,1508,o),
(452,1478,cs)
);
}
);
width = 660;
},
{
anchors = (
{
name = _top;
pos = (416,1400);
},
{
name = top;
pos = (418,1906);
}
);
layerId = "16FBD564-A0D0-4365-B77C-94A96DAC7D94";
shapes = (
{
closed = 1;
nodes = (
(463,1498,o),
(483,1493,o),
(501,1493,cs),
(543,1493,o),
(570,1520,o),
(570,1557,cs),
(570,1582,o),
(555,1605,o),
(528,1628,cs),
(442,1702,o),
(372,1760,o),
(288,1816,cs),
(255,1838,o),
(223,1848,o),
(194,1848,cs),
(135,1848,o),
(89,1800,o),
(89,1744,cs),
(89,1701,o),
(120,1661,o),
(176,1630,cs),
(264,1582,o),
(346,1544,o),
(442,1506,cs)
);
}
);
width = 660;
},
{
anchors = (
{
name = _top;
pos = (438,1406);
},
{
name = top;
pos = (412,1914);
}
);
layerId = "73BA353F-5B11-4DB0-9775-19E25D121032";
shapes = (
{
closed = 1;
nodes = (
(452,1497,o),
(470,1493,o),
(486,1493,cs),
(525,1493,o),
(554,1514,o),
(554,1550,cs),
(554,1573,o),
(540,1599,o),
(508,1628,cs),
(448,1684,o),
(378,1746,o),
(308,1806,cs),
(283,1828,o),
(254,1837,o),
(227,1837,cs),
(161,1837,o),
(108,1782,o),
(108,1717,cs),
(108,1674,o),
(132,1633,o),
(186,1606,cs),
(242,1578,o),
(356,1532,o),
(432,1504,cs)
);
}
);
width = 660;
},
{
anchors = (
{
name = _top;
pos = (454,1402);
},
{
name = top;
pos = (436,1912);
}
);
layerId = "34BCA492-7EC7-4349-9547-1652F586AA1A";
shapes = (
{
closed = 1;
nodes = (
(446,1494,o),
(460,1492,o),
(472,1492,cs),
(503,1492,o),
(528,1507,o),
(528,1537,cs),
(528,1555,o),
(519,1577,o),
(496,1604,cs),
(442,1668,o),
(388,1728,o),
(320,1780,cs),
(286,1805,o),
(251,1817,o),
(221,1817,cs),
(165,1817,o),
(125,1769,o),
(125,1715,cs),
(125,1672,o),
(153,1632,o),
(198,1602,cs),
(270,1554,o),
(356,1518,o),
(432,1498,cs)
);
}
);
width = 660;
}
);
unicode = 768;
},
{
glyphname = acutecomb;
lastChange = "2021-03-26 14:55:29 +0000";
layers = (
{
anchors = (
{
name = _top;
pos = (272,1400);
},
{
name = top;
pos = (296,1784);
}
);
layerId = "7390BA8A-CD54-46A0-980C-73781B2212BF";
shapes = (
{
closed = 1;
nodes = (
(310,1522,o),
(392,1560,o),
(458,1600,cs),
(520,1635,o),
(558,1673,o),
(558,1716,cs),
(558,1765,o),
(512,1819,o),
(455,1819,cs),
(426,1819,o),
(395,1807,o),
(366,1788,cs),
(280,1730,o),
(214,1674,o),
(148,1612,cs),
(115,1582,o),
(96,1556,o),
(96,1532,cs),
(96,1504,o),
(121,1475,o),
(157,1475,cs),
(173,1475,o),
(190,1479,o),
(210,1486,cs)
);
}
);
width = 662;
},
{
anchors = (
{
name = _top;
pos = (252,1400);
},
{
name = top;
pos = (236,1782);
}
);
layerId = "16FBD564-A0D0-4365-B77C-94A96DAC7D94";
shapes = (
{
closed = 1;
nodes = (
(286,1548,o),
(402,1604,o),
(492,1648,cs),
(545,1673,o),
(567,1713,o),
(567,1752,cs),
(567,1811,o),
(518,1869,o),
(452,1869,cs),
(423,1869,o),
(393,1858,o),
(366,1836,cs),
(298,1778,o),
(204,1690,o),
(130,1620,cs),
(108,1600,o),
(96,1577,o),
(96,1557,cs),
(96,1529,o),
(121,1501,o),
(155,1501,cs),
(170,1501,o),
(188,1505,o),
(208,1514,cs)
);
}
);
width = 662;
},
{
anchors = (
{
name = _top;
pos = (256,1400);
},
{
name = top;
pos = (220,1774);
}
);
layerId = "73BA353F-5B11-4DB0-9775-19E25D121032";
shapes = (
{
closed = 1;
nodes = (
(222,1544,o),
(340,1584,o),
(440,1628,cs),
(497,1653,o),
(529,1699,o),
(529,1745,cs),
(529,1802,o),
(482,1844,o),
(424,1844,cs),
(402,1844,o),
(378,1837,o),
(356,1824,cs),
(264,1770,o),
(130,1678,o),
(66,1636,cs),
(38,1617,o),
(25,1592,o),
(25,1568,cs),
(25,1534,o),
(50,1502,o),
(91,1502,cs),
(104,1502,o),
(117,1505,o),
(132,1510,cs)
);
}
);
width = 662;
},
{
anchors = (
{
name = _top;
pos = (274,1400);
},
{
name = top;
pos = (274,1780);
}
);
layerId = "34BCA492-7EC7-4349-9547-1652F586AA1A";
shapes = (
{
closed = 1;
nodes = (
(290,1534,o),
(396,1580,o),
(458,1612,cs),
(514,1639,o),
(543,1680,o),
(543,1723,cs),
(543,1779,o),
(493,1831,o),
(428,1831,cs),
(401,1831,o),
(372,1822,o),
(346,1800,cs),
(272,1738,o),
(206,1680,o),
(148,1626,cs),
(118,1599,o),
(104,1574,o),
(104,1549,cs),
(104,1518,o),
(120,1495,o),
(157,1495,cs),
(176,1495,o),
(199,1500,o),
(226,1510,cs)
);
}
);
width = 662;
}
);
unicode = 769;
},
{
glyphname = hungarumlautcomb;
lastChange = "2021-03-26 14:55:29 +0000";
layers = (
{
anchors = (
{
name = _top;
pos = (380,1400);
},
{
name = top;
pos = (398,1938);
}
);
layerId = "7390BA8A-CD54-46A0-980C-73781B2212BF";
shapes = (
{
closed = 1;
nodes = (
(380,1638,o),
(410,1710,o),
(438,1786,cs),
(450,1817,o),
(457,1846,o),
(457,1870,cs),
(457,1913,o),
(432,1936,o),
(394,1936,cs),
(358,1936,o),
(325,1911,o),
(302,1870,cs),
(262,1806,o),
(220,1734,o),
(180,1658,cs),
(168,1635,o),
(161,1611,o),
(161,1589,cs),
(161,1536,o),
(203,1502,o),
(252,1502,cs),
(293,1502,o),
(333,1529,o),
(358,1586,cs)
);
},
{
closed = 1;
nodes = (
(690,1600,o),
(744,1672,o),
(788,1726,cs),
(810,1754,o),
(823,1786,o),
(823,1817,cs),
(823,1873,o),
(774,1913,o),
(721,1913,cs),
(686,1913,o),
(651,1894,o),
(628,1854,cs),
(590,1790,o),
(550,1714,o),
(514,1638,cs),
(496,1600,o),
(486,1568,o),
(486,1543,cs),
(486,1508,o),
(508,1485,o),
(542,1485,cs),
(574,1485,o),
(610,1508,o),
(640,1542,cs)
);
}
);
width = 994;
},
{
anchors = (
{
name = _top;
pos = (380,1400);
},
{
name = top;
pos = (404,1986);
}
);
layerId = "16FBD564-A0D0-4365-B77C-94A96DAC7D94";
shapes = (
{
closed = 1;
nodes = (
(360,1646,o),
(392,1722,o),
(432,1822,cs),
(444,1854,o),
(454,1887,o),
(454,1915,cs),
(454,1964,o),
(415,1994,o),
(369,1994,cs),
(326,1994,o),
(292,1959,o),
(266,1898,cs),
(232,1816,o),
(192,1712,o),
(164,1634,cs),
(157,1613,o),
(152,1594,o),
(152,1577,cs),
(152,1534,o),
(191,1506,o),
(232,1506,cs),
(269,1506,o),
(301,1532,o),
(322,1572,cs)
);
},
{
closed = 1;
nodes = (
(686,1610,o),
(740,1678,o),
(774,1724,cs),
(793,1749,o),
(803,1775,o),
(803,1799,cs),
(803,1849,o),
(757,1894,o),
(708,1894,cs),
(672,1894,o),
(637,1871,o),
(610,1830,cs),
(580,1784,o),
(532,1702,o),
(496,1634,cs),
(477,1597,o),
(464,1566,o),
(464,1541,cs),
(464,1505,o),
(494,1481,o),
(528,1481,cs),
(563,1481,o),
(600,1507,o),
(636,1550,cs)
);
}
);
width = 994;
},
{
anchors = (
{
name = _top;
pos = (380,1400);
},
{
name = top;
pos = (398,1922);
}
);
layerId = "73BA353F-5B11-4DB0-9775-19E25D121032";
shapes = (
{
closed = 1;
nodes = (
(318,1562,o),
(360,1640,o),
(402,1718,cs),
(414,1740,o),
(423,1765,o),
(423,1790,cs),
(423,1850,o),
(365,1892,o),
(308,1892,cs),
(259,1892,o),
(223,1856,o),
(206,1806,cs),
(178,1722,o),
(152,1636,o),
(134,1570,cs),
(128,1549,o),
(122,1525,o),
(122,1502,cs),
(122,1459,o),
(149,1426,o),
(188,1426,cs),
(223,1426,o),
(257,1459,o),
(280,1498,cs)
);
},
{
closed = 1;
nodes = (
(670,1572,o),
(712,1640,o),
(742,1690,cs),
(758,1717,o),
(768,1748,o),
(768,1774,cs),
(768,1819,o),
(735,1846,o),
(695,1846,cs),
(663,1846,o),
(632,1827,o),
(602,1796,cs),
(564,1756,o),
(520,1702,o),
(486,1660,cs),
(453,1619,o),
(435,1575,o),
(435,1537,cs),
(435,1485,o),
(480,1445,o),
(528,1445,cs),
(571,1445,o),
(611,1477,o),
(638,1520,cs)
);
}
);
width = 994;
},
{
anchors = (
{
name = _top;
pos = (380,1400);
},
{
name = top;
pos = (398,1902);
}
);
layerId = "34BCA492-7EC7-4349-9547-1652F586AA1A";
shapes = (
{
closed = 1;
nodes = (
(328,1590,o),
(368,1650,o),
(398,1708,cs),
(412,1736,o),
(420,1764,o),
(420,1789,cs),
(420,1845,o),
(369,1879,o),
(315,1879,cs),
(265,1879,o),
(234,1840,o),
(212,1786,cs),
(188,1726,o),
(162,1650,o),
(148,1586,cs),
(145,1569,o),
(143,1554,o),
(143,1541,cs),
(143,1498,o),
(171,1469,o),
(208,1469,cs),
(237,1469,o),
(264,1490,o),
(288,1528,cs)
);
},
{
closed = 1;
nodes = (
(666,1590,o),
(714,1660,o),
(760,1730,cs),
(785,1768,o),
(800,1806,o),
(800,1838,cs),
(800,1883,o),
(765,1914,o),
(723,1914,cs),
(687,1914,o),
(651,1888,o),
(614,1840,cs),
(564,1774,o),
(518,1704,o),
(482,1642,cs),
(459,1602,o),
(448,1569,o),
(448,1542,cs),
(448,1499,o),
(483,1466,o),
(523,1466,cs),
(557,1466,o),
(591,1490,o),
(620,1528,cs)
);
}
);
width = 994;
}
);
unicode = 779;
},
{
glyphname = caroncomb.alt;
lastChange = "2021-03-26 14:55:29 +0000";
layers = (
{
anchors = (
{
name = _topright;
pos = (42,1100);
}
);
layerId = "16FBD564-A0D0-4365-B77C-94A96DAC7D94";
shapes = (
{
closed = 1;
nodes = (
(229,732,o),
(260,770,o),
(274,824,cs),
(308,956,o),
(348,1104,o),
(378,1250,cs),
(399,1355,o),
(379,1437,o),
(277,1437,cs),
(212,1437,o),
(177,1388,o),
(166,1302,cs),
(144,1154,o),
(128,1006,o),
(118,872,cs),
(112,795,o),
(120,732,o),
(187,732,cs)
);
}
);
width = 494;
},
{
anchors = (
{
name = _topright;
pos = (60,1100);
}
);
layerId = "73BA353F-5B11-4DB0-9775-19E25D121032";
shapes = (
{
closed = 1;
nodes = (
(266,755,o),
(289,788,o),
(302,858,cs),
(324,982,o),
(346,1116,o),
(360,1222,cs),
(376,1326,o),
(363,1417,o),
(273,1417,cs),
(206,1417,o),
(168,1364,o),
(162,1250,cs),
(156,1142,o),
(150,1004,o),
(148,880,cs),
(146,813,o),
(159,755,o),
(223,755,cs)
);
}
);
width = 494;
},
{
anchors = (
{
name = _topright;
pos = (50,1100);
}
);
layerId = "34BCA492-7EC7-4349-9547-1652F586AA1A";
shapes = (
{
closed = 1;
nodes = (
(280,640,o),
(305,678,o),
(316,752,cs),
(332,864,o),
(350,1004,o),
(366,1136,cs),
(376,1235,o),
(356,1313,o),
(268,1313,cs),
(200,1313,o),
(164,1265,o),
(160,1178,cs),
(154,1048,o),
(156,898,o),
(160,766,cs),
(162,694,o),
(174,640,o),
(235,640,cs)
);
}
);
width = 494;
},
{
anchors = (
{
name = _topright;
pos = (34,1100);
}
);
layerId = "7390BA8A-CD54-46A0-980C-73781B2212BF";
shapes = (
{
closed = 1;
nodes = (
(248,726,o),
(272,769,o),
(290,842,cs),
(316,944,o),
(340,1056,o),
(358,1188,cs),
(372,1287,o),
(357,1381,o),
(269,1381,cs),
(201,1381,o),
(166,1321,o),
(158,1214,cs),
(148,1096,o),
(138,964,o),
(134,866,cs),
(130,784,o),
(139,726,o),
(206,726,cs)
);
}
);
width = 494;
}
);
},
{
glyphname = circumflexcomb;
lastChange = "2021-03-31 15:13:43 +0000";
layers = (
{
anchors = (
{
name = _top;
pos = (428,1400);
},
{
name = top;
pos = (442,1804);
}
);
layerId = "7390BA8A-CD54-46A0-980C-73781B2212BF";
shapes = (
{
closed = 1;
nodes = (
(302,1510,o),
(362,1554,o),
(434,1600,cs),
(468,1622,o),
(496,1616,o),
(516,1596,cs),
(548,1564,o),
(568,1536,o),
(602,1500,cs),
(625,1475,o),
(650,1462,o),
(673,1462,cs),
(708,1462,o),
(741,1493,o),
(741,1536,cs),
(741,1558,o),
(732,1582,o),
(714,1602,cs),
(674,1648,o),
(588,1732,o),
(522,1796,cs),
(504,1813,o),
(477,1822,o),
(448,1822,cs),
(414,1822,o),
(379,1810,o),
(350,1784,cs),
(280,1718,o),
(200,1628,o),
(140,1562,cs),
(111,1529,o),
(95,1503,o),
(95,1480,cs),
(95,1455,o),
(115,1425,o),
(147,1425,cs),
(169,1425,o),
(194,1436,o),
(220,1454,cs)
);
}
);
width = 846;
},
{
anchors = (
{
name = _top;
pos = (428,1394);
},
{
name = top;
pos = (456,1800);
}
);
layerId = "16FBD564-A0D0-4365-B77C-94A96DAC7D94";
shapes = (
{
closed = 1;
nodes = (
(302,1532,o),
(382,1608,o),
(428,1642,cs),
(460,1666,o),
(484,1654,o),
(504,1632,cs),
(528,1604,o),
(552,1566,o),
(590,1514,cs),
(607,1490,o),
(632,1475,o),
(661,1475,cs),
(705,1475,o),
(750,1509,o),
(750,1560,cs),
(750,1586,o),
(738,1614,o),
(720,1638,cs),
(668,1706,o),
(606,1766,o),
(546,1826,cs),
(524,1848,o),
(496,1858,o),
(467,1858,cs),
(431,1858,o),
(393,1843,o),
(364,1818,cs),
(270,1740,o),
(214,1682,o),
(130,1590,cs),
(107,1565,o),
(96,1536,o),
(96,1512,cs),
(96,1475,o),
(124,1450,o),
(160,1450,cs),
(181,1450,o),
(204,1458,o),
(228,1476,cs)
);
}
);
width = 846;
},
{
anchors = (
{
name = _top;
pos = (428,1400);
},
{
name = top;
pos = (464,1806);
}
);
layerId = "73BA353F-5B11-4DB0-9775-19E25D121032";
shapes = (
{
closed = 1;
nodes = (
(332,1542,o),
(376,1580,o),
(430,1620,cs),
(454,1638,o),
(472,1636,o),
(494,1618,cs),
(522,1594,o),
(564,1544,o),
(604,1510,cs),
(626,1491,o),
(651,1481,o),
(674,1481,cs),
(707,1481,o),
(736,1502,o),
(736,1542,cs),
(736,1563,o),
(728,1589,o),
(710,1616,cs),
(676,1670,o),
(626,1734,o),
(576,1798,cs),
(556,1824,o),
(526,1840,o),
(492,1840,cs),
(471,1840,o),
(448,1834,o),
(426,1820,cs),
(328,1758,o),
(212,1684,o),
(152,1636,cs),
(117,1608,o),
(98,1579,o),
(98,1550,cs),
(98,1511,o),
(136,1468,o),
(183,1468,cs),
(209,1468,o),
(239,1479,o),
(270,1500,cs)
);
}
);
width = 846;
},
{
anchors = (
{
name = _top;
pos = (428,1400);
},
{
name = top;
pos = (456,1782);
}
);
layerId = "34BCA492-7EC7-4349-9547-1652F586AA1A";
shapes = (
{
closed = 1;
nodes = (
(336,1552,o),
(376,1596,o),
(434,1638,cs),
(456,1654,o),
(480,1648,o),
(502,1630,cs),
(534,1604,o),
(582,1552,o),
(614,1522,cs),
(638,1499,o),
(668,1486,o),
(694,1486,cs),
(731,1486,o),
(760,1510,o),
(760,1553,cs),
(760,1577,o),
(750,1603,o),
(734,1624,cs),
(686,1684,o),
(610,1754,o),
(554,1806,cs),
(531,1828,o),
(504,1838,o),
(475,1838,cs),
(450,1838,o),
(423,1830,o),
(398,1816,cs),
(306,1764,o),
(222,1708,o),
(142,1656,cs),
(108,1634,o),
(91,1602,o),
(91,1569,cs),
(91,1518,o),
(136,1464,o),
(187,1464,cs),
(215,1464,o),
(245,1478,o),
(278,1504,cs)
);
}
);
width = 846;
}
);
unicode = 770;
},
{
glyphname = caroncomb;
lastChange = "2021-03-31 15:14:50 +0000";
layers = (
{
anchors = (
{
name = _top;
pos = (420,1400);
},
{
name = top;
pos = (386,1726);
}
);
layerId = "7390BA8A-CD54-46A0-980C-73781B2212BF";
shapes = (
{
closed = 1;
nodes = (
(540,1776,o),
(480,1732,o),
(408,1686,cs),
(374,1664,o),
(346,1670,o),
(326,1690,cs),
(294,1722,o),
(274,1750,o),
(240,1786,cs),
(217,1811,o),
(192,1824,o),
(169,1824,cs),
(134,1824,o),
(101,1793,o),
(101,1750,cs),
(101,1728,o),
(110,1704,o),
(128,1684,cs),
(168,1638,o),
(254,1554,o),
(320,1490,cs),
(338,1473,o),
(365,1464,o),
(394,1464,cs),
(428,1464,o),
(463,1476,o),
(492,1502,cs),
(562,1568,o),
(642,1658,o),
(702,1724,cs),
(731,1757,o),
(747,1783,o),
(747,1806,cs),
(747,1831,o),
(727,1861,o),
(695,1861,cs),
(673,1861,o),
(648,1850,o),
(622,1832,cs)
);
}
);
width = 850;
},
{
anchors = (
{
name = _top;
pos = (420,1400);
},
{
name = top;
pos = (422,1782);
}
);
layerId = "16FBD564-A0D0-4365-B77C-94A96DAC7D94";
shapes = (
{
closed = 1;
nodes = (
(546,1804,o),
(466,1728,o),
(420,1694,cs),
(388,1670,o),
(364,1682,o),
(344,1704,cs),
(320,1732,o),
(296,1770,o),
(258,1822,cs),
(241,1846,o),
(216,1861,o),
(187,1861,cs),
(143,1861,o),
(98,1827,o),
(98,1776,cs),
(98,1750,o),
(110,1722,o),
(128,1698,cs),
(180,1630,o),
(242,1570,o),
(302,1510,cs),
(324,1488,o),
(352,1478,o),
(381,1478,cs),
(417,1478,o),
(455,1493,o),
(484,1518,cs),
(578,1596,o),
(634,1654,o),
(718,1746,cs),
(741,1771,o),
(752,1800,o),
(752,1824,cs),
(752,1861,o),
(724,1886,o),
(688,1886,cs),
(667,1886,o),
(644,1878,o),
(620,1860,cs)
);
}
);
width = 850;
},
{
anchors = (
{
name = _top;
pos = (360,1400);
},
{
name = top;
pos = (410,1760);
}
);
layerId = "73BA353F-5B11-4DB0-9775-19E25D121032";
shapes = (
{
closed = 1;
nodes = (
(508,1770,o),
(464,1732,o),
(410,1692,cs),
(386,1674,o),
(368,1676,o),
(346,1694,cs),
(318,1718,o),
(276,1768,o),
(236,1802,cs),
(214,1821,o),
(189,1831,o),
(166,1831,cs),
(133,1831,o),
(104,1810,o),
(104,1770,cs),
(104,1749,o),
(112,1723,o),
(130,1696,cs),
(164,1642,o),
(214,1578,o),
(264,1514,cs),
(284,1488,o),
(314,1472,o),
(348,1472,cs),
(369,1472,o),
(392,1478,o),
(414,1492,cs),
(512,1554,o),
(628,1628,o),
(688,1676,cs),
(723,1704,o),
(742,1733,o),
(742,1762,cs),
(742,1801,o),
(704,1844,o),
(657,1844,cs),
(631,1844,o),
(601,1833,o),
(570,1812,cs)
);
}
);
width = 850;
},
{
anchors = (
{
name = _top;
pos = (420,1400);
},
{
name = top;
pos = (386,1738);
}
);
layerId = "34BCA492-7EC7-4349-9547-1652F586AA1A";
shapes = (
{
closed = 1;
nodes = (
(512,1780,o),
(472,1736,o),
(414,1694,cs),
(392,1678,o),
(368,1684,o),
(346,1702,cs),
(314,1728,o),
(266,1780,o),
(234,1810,cs),
(210,1833,o),
(180,1846,o),
(154,1846,cs),
(117,1846,o),
(88,1822,o),
(88,1779,cs),
(88,1755,o),
(98,1729,o),
(114,1708,cs),
(162,1648,o),
(238,1578,o),
(294,1526,cs),
(317,1504,o),
(344,1494,o),
(373,1494,cs),
(398,1494,o),
(425,1502,o),
(450,1516,cs),
(542,1568,o),
(626,1624,o),
(706,1676,cs),
(740,1698,o),
(757,1730,o),
(757,1763,cs),
(757,1814,o),
(712,1868,o),
(661,1868,cs),
(633,1868,o),
(603,1854,o),
(570,1828,cs)
);
}
);
width = 850;
}
);
unicode = 780;
},
{
glyphname = brevecomb;
lastChange = "2021-04-27 19:08:51 +0000";
layers = (
{
anchors = (
{
name = _top;
pos = (388,1400);
},
{
name = top;
pos = (418,1880);
}
);
layerId = "7390BA8A-CD54-46A0-980C-73781B2212BF";
shapes = (
{
closed = 1;
nodes = (
(557,1462,o),
(695,1572,o),
(695,1745,cs),
(695,1796,o),
(673,1830,o),
(612,1830,cs),
(542,1830,o),
(525,1777,o),
(507,1722,cs),
(489,1664,o),
(470,1604,o),
(386,1604,cs),
(302,1604,o),
(281,1672,o),
(262,1736,cs),
(245,1794,o),
(229,1850,o),
(166,1850,cs),
(104,1850,o),
(73,1810,o),
(73,1750,cs),
(73,1588,o),
(201,1462,o),
(374,1462,cs)
);
}
);
width = 768;
},
{
anchors = (
{
name = _top;
pos = (386,1400);
},
{
name = top;
pos = (374,1822);
}
);
layerId = "16FBD564-A0D0-4365-B77C-94A96DAC7D94";
shapes = (
{
closed = 1;
nodes = (
(548,1482,o),
(691,1595,o),
(691,1761,cs),
(691,1825,o),
(659,1869,o),
(590,1869,cs),
(518,1869,o),
(500,1813,o),
(481,1755,cs),
(461,1696,o),
(441,1636,o),
(362,1636,cs),
(300,1636,o),
(273,1691,o),
(247,1745,cs),
(224,1794,o),
(201,1841,o),
(152,1841,cs),
(101,1841,o),
(79,1804,o),
(79,1754,cs),
(79,1601,o),
(210,1482,o),
(376,1482,cs)
);
}
);
width = 768;
},
{
anchors = (
{
name = _top;
pos = (386,1400);
},
{
name = top;
pos = (438,1846);
}
);
layerId = "73BA353F-5B11-4DB0-9775-19E25D121032";
shapes = (
{
closed = 1;
nodes = (
(541,1474,o),
(703,1579,o),
(703,1741,cs),
(703,1788,o),
(680,1820,o),
(629,1820,cs),
(572,1820,o),
(547,1777,o),
(520,1732,cs),
(491,1683,o),
(461,1632,o),
(386,1632,cs),
(309,1632,o),
(289,1695,o),
(270,1757,cs),
(251,1816,o),
(233,1874,o),
(165,1874,cs),
(101,1874,o),
(75,1831,o),
(75,1767,cs),
(75,1600,o),
(193,1474,o),
(370,1474,cs)
);
}
);
width = 768;
},
{
anchors = (
{
name = _top;
pos = (386,1400);
},
{
name = top;
pos = (396,1846);
}
);
layerId = "34BCA492-7EC7-4349-9547-1652F586AA1A";
shapes = (
{
closed = 1;
nodes = (
(549,1474,o),
(693,1620,o),
(693,1774,cs),
(693,1816,o),
(674,1849,o),
(627,1849,cs),
(597,1849,o),
(572,1817,o),
(543,1780,cs),
(502,1728,o),
(452,1664,o),
(366,1664,cs),
(294,1664,o),
(253,1715,o),
(217,1761,cs),
(186,1798,o),
(159,1833,o),
(118,1833,cs),
(82,1833,o),
(63,1807,o),
(63,1768,cs),
(63,1582,o),
(197,1474,o),
(380,1474,cs)
);
}
);
width = 768;
}
);
unicode = 774;
},
{
glyphname = ringcomb;
lastChange = "2021-03-26 14:55:29 +0000";
layers = (
{
anchors = (
{
name = _top;
pos = (314,1400);
},
{
name = top;
pos = (330,1880);
}
);
layerId = "7390BA8A-CD54-46A0-980C-73781B2212BF";
shapes = (
{
closed = 1;
nodes = (
(426,1446,o),
(536,1510,o),
(536,1664,cs),
(536,1808,o),
(434,1904,o),
(300,1904,cs),
(160,1904,o),
(60,1806,o),
(60,1676,cs),
(60,1528,o),
(154,1446,o),
(296,1446,cs)
);
},
{
closed = 1;
nodes = (
(240,1562,o),
(214,1606,o),
(214,1672,cs),
(214,1734,o),
(256,1758,o),
(310,1758,cs),
(364,1758,o),
(394,1720,o),
(394,1658,cs),
(394,1596,o),
(352,1562,o),
(298,1562,cs)
);
}
);
width = 596;
},
{
anchors = (
{
name = _top;
pos = (300,1400);
},
{
name = top;
pos = (304,1846);
}
);
layerId = "16FBD564-A0D0-4365-B77C-94A96DAC7D94";
shapes = (
{
closed = 1;
nodes = (
(420,1452,o),
(564,1542,o),
(564,1686,cs),
(564,1814,o),
(456,1886,o),
(308,1886,cs),
(148,1886,o),
(32,1802,o),
(32,1672,cs),
(32,1536,o),
(120,1452,o),
(276,1452,cs)
);
},
{
closed = 1;
nodes = (
(220,1556,o),
(176,1586,o),
(176,1644,cs),
(176,1698,o),
(214,1734,o),
(278,1734,cs),
(346,1734,o),
(394,1698,o),
(394,1642,cs),
(394,1586,o),
(348,1556,o),
(286,1556,cs)
);
}
);
width = 596;
},
{
anchors = (
{
name = _top;
pos = (300,1400);
},
{
name = top;
pos = (338,1818);
}
);
layerId = "73BA353F-5B11-4DB0-9775-19E25D121032";
shapes = (
{
closed = 1;
nodes = (
(474,1444,o),
(552,1508,o),
(552,1658,cs),
(552,1804,o),
(464,1872,o),
(308,1872,cs),
(158,1872,o),
(42,1790,o),
(42,1660,cs),
(42,1522,o),
(96,1444,o),
(302,1444,cs)
);
},
{
closed = 1;
nodes = (
(254,1546,o),
(230,1584,o),
(230,1648,cs),
(230,1710,o),
(260,1742,o),
(326,1742,cs),
(382,1742,o),
(414,1700,o),
(414,1642,cs),
(414,1578,o),
(388,1546,o),
(320,1546,cs)
);
}
);
width = 596;
},
{
anchors = (
{
name = _top;
pos = (312,1400);
},
{
name = top;
pos = (336,1822);
}
);
layerId = "34BCA492-7EC7-4349-9547-1652F586AA1A";
shapes = (
{
closed = 1;
nodes = (
(436,1438,o),
(558,1502,o),
(558,1666,cs),
(558,1772,o),
(448,1848,o),
(298,1848,cs),
(146,1848,o),
(38,1756,o),
(38,1646,cs),
(38,1508,o),
(138,1438,o),
(294,1438,cs)
);
},
{
closed = 1;
nodes = (
(234,1532,o),
(208,1566,o),
(208,1614,cs),
(208,1662,o),
(252,1690,o),
(324,1690,cs),
(390,1690,o),
(422,1660,o),
(422,1614,cs),
(422,1562,o),
(380,1532,o),
(312,1532,cs)
);
}
);
width = 596;
}
);
unicode = 778;
},
{
glyphname = tildecomb;
lastChange = "2021-03-26 14:55:29 +0000";
layers = (
{
anchors = (
{
name = _top;
pos = (402,1400);
},
{
name = top;
pos = (424,1758);
}
);
layerId = "7390BA8A-CD54-46A0-980C-73781B2212BF";
shapes = (
{
closed = 1;
nodes = (
(214,1439,o),
(213,1584,o),
(286,1584,cs),
(362,1584,o),
(376,1454,o),
(532,1454,cs),
(661,1454,o),
(734,1558,o),
(734,1688,cs),
(734,1736,o),
(714,1765,o),
(669,1765,cs),
(558,1765,o),
(630,1608,o),
(518,1608,cs),
(440,1608,o),
(412,1764,o),
(276,1764,cs),
(163,1764,o),
(72,1638,o),
(72,1518,cs),
(72,1472,o),
(93,1439,o),
(137,1439,cs)
);
}
);
width = 806;
},
{
anchors = (
{
name = _top;
pos = (402,1400);
},
{
name = top;
pos = (382,1738);
}
);
layerId = "16FBD564-A0D0-4365-B77C-94A96DAC7D94";
shapes = (
{
closed = 1;
nodes = (
(217,1489,o),
(220,1616,o),
(302,1616,cs),
(368,1616,o),
(408,1478,o),
(544,1478,cs),
(663,1478,o),
(758,1594,o),
(758,1712,cs),
(758,1758,o),
(736,1791,o),
(687,1791,cs),
(593,1791,o),
(598,1638,o),
(508,1638,cs),
(422,1638,o),
(404,1782,o),
(252,1782,cs),
(152,1782,o),
(48,1669,o),
(48,1572,cs),
(48,1525,o),
(76,1489,o),
(131,1489,cs)
);
}
);
width = 806;
},
{
anchors = (
{
name = _top;
pos = (402,1400);
},
{
name = top;
pos = (382,1758);
}
);
layerId = "73BA353F-5B11-4DB0-9775-19E25D121032";
shapes = (
{
closed = 1;
nodes = (
(171,1466,o),
(197,1614,o),
(258,1614,cs),
(340,1614,o),
(362,1470,o),
(522,1470,cs),
(657,1470,o),
(750,1581,o),
(750,1713,cs),
(750,1766,o),
(730,1802,o),
(696,1802,cs),
(614,1802,o),
(626,1642,o),
(550,1642,cs),
(486,1642,o),
(442,1784,o),
(306,1784,cs),
(172,1784,o),
(50,1670,o),
(50,1541,cs),
(50,1499,o),
(68,1466,o),
(108,1466,cs)
);
}
);
width = 806;
},
{
anchors = (
{
name = _top;
pos = (402,1400);
},
{
name = top;
pos = (418,1768);
}
);
layerId = "34BCA492-7EC7-4349-9547-1652F586AA1A";
shapes = (
{
closed = 1;
nodes = (
(223,1476,o),
(224,1616,o),
(318,1616,cs),
(392,1616,o),
(418,1478,o),
(570,1478,cs),
(694,1478,o),
(766,1578,o),
(766,1702,cs),
(766,1745,o),
(750,1779,o),
(700,1779,cs),
(603,1779,o),
(651,1622,o),
(560,1622,cs),
(476,1622,o),
(450,1790,o),
(288,1790,cs),
(172,1790,o),
(39,1681,o),
(39,1561,cs),
(39,1509,o),
(77,1476,o),
(125,1476,cs)
);
}
);
width = 806;
}
);
unicode = 771;
},
{
glyphname = macroncomb;
lastChange = "2021-03-26 14:55:29 +0000";
layers = (
{
anchors = (
{
name = _top;
pos = (404,1400);
},
{
name = top;
pos = (396,1680);
}
);
layerId = "7390BA8A-CD54-46A0-980C-73781B2212BF";
shapes = (
{
closed = 1;
nodes = (
(90,1674,o),
(56,1646,o),
(56,1604,cs),
(56,1552,o),
(102,1518,o),
(172,1514,cs),
(290,1508,o),
(472,1506,o),
(594,1510,cs),
(670,1512,o),
(708,1542,o),
(708,1604,cs),
(708,1652,o),
(670,1686,o),
(606,1688,cs),
(478,1690,o),
(290,1686,o),
(154,1678,cs)
);
}
);
width = 740;
},
{
anchors = (
{
name = _top;
pos = (380,1400);
},
{
name = top;
pos = (388,1696);
}
);
layerId = "16FBD564-A0D0-4365-B77C-94A96DAC7D94";
shapes = (
{
closed = 1;
nodes = (
(102,1684,o),
(60,1658,o),
(60,1604,cs),
(60,1558,o),
(100,1538,o),
(148,1536,cs),
(298,1530,o),
(436,1520,o),
(576,1520,cs),
(648,1520,o),
(680,1560,o),
(680,1618,cs),
(680,1680,o),
(646,1710,o),
(572,1708,cs),
(428,1704,o),
(300,1692,o),
(154,1686,cs)
);
}
);
width = 740;
},
{
anchors = (
{
name = _top;
pos = (370,1400);
},
{
name = top;
pos = (394,1682);
}
);
layerId = "73BA353F-5B11-4DB0-9775-19E25D121032";
shapes = (
{
closed = 1;
nodes = (
(132,1710,o),
(74,1676,o),
(74,1606,cs),
(74,1534,o),
(130,1508,o),
(216,1506,cs),
(340,1504,o),
(440,1510,o),
(558,1516,cs),
(630,1520,o),
(666,1552,o),
(666,1600,cs),
(666,1650,o),
(628,1676,o),
(564,1682,cs),
(448,1692,o),
(346,1704,o),
(214,1708,cs)
);
}
);
width = 740;
},
{
anchors = (
{
name = _top;
pos = (406,1400);
},
{
name = top;
pos = (414,1686);
}
);
layerId = "34BCA492-7EC7-4349-9547-1652F586AA1A";
shapes = (
{
closed = 1;
nodes = (
(136,1698,o),
(88,1670,o),
(88,1608,cs),
(88,1546,o),
(134,1518,o),
(204,1514,cs),
(310,1508,o),
(476,1506,o),
(586,1510,cs),
(662,1512,o),
(700,1540,o),
(700,1600,cs),
(700,1646,o),
(662,1674,o),
(598,1680,cs),
(490,1690,o),
(328,1698,o),
(216,1698,cs)
);
}
);
width = 740;
}
);
unicode = 772;
},
{
glyphname = hookabovecomb;
lastChange = "2021-03-26 14:55:29 +0000";
layers = (
{
anchors = (
{
name = _top;
pos = (276,1400);
},
{
name = top;
pos = (275,1896);
}
);
layerId = "16FBD564-A0D0-4365-B77C-94A96DAC7D94";
shapes = (
{
closed = 1;
nodes = (
(206,1502,o),
(230,1486,o),
(268,1486,cs),
(396,1486,o),
(516,1576,o),
(516,1692,cs),
(516,1814,o),
(424,1896,o),
(254,1896,cs),
(142,1896,o),
(54,1860,o),
(54,1778,cs),
(54,1732,o),
(86,1696,o),
(130,1696,cs),
(180,1696,o),
(238,1722,o),
(288,1722,cs),
(332,1722,o),
(362,1708,o),
(362,1678,cs),
(362,1606,o),
(206,1602,o),
(206,1534,cs)
);
}
);
width = 550;
},
{
anchors = (
{
name = _top;
pos = (276,1400);
},
{
name = top;
pos = (276,1856);
}
);
layerId = "73BA353F-5B11-4DB0-9775-19E25D121032";
shapes = (
{
closed = 1;
nodes = (
(144,1484,o),
(168,1462,o),
(212,1462,cs),
(362,1462,o),
(488,1544,o),
(488,1672,cs),
(488,1784,o),
(400,1856,o),
(262,1856,cs),
(150,1856,o),
(64,1810,o),
(64,1738,cs),
(64,1698,o),
(90,1668,o),
(134,1668,cs),
(170,1668,o),
(204,1696,o),
(256,1696,cs),
(292,1696,o),
(308,1670,o),
(308,1642,cs),
(308,1568,o),
(144,1608,o),
(144,1522,cs)
);
}
);
width = 550;
},
{
anchors = (
{
name = _top;
pos = (270,1400);
},
{
name = top;
pos = (270,1856);
}
);
layerId = "34BCA492-7EC7-4349-9547-1652F586AA1A";
shapes = (
{
closed = 1;
nodes = (
(180,1494,o),
(220,1468,o),
(266,1468,cs),
(380,1468,o),
(502,1536,o),
(502,1668,cs),
(502,1774,o),
(408,1856,o),
(262,1856,cs),
(150,1856,o),
(36,1832,o),
(36,1762,cs),
(36,1722,o),
(62,1702,o),
(108,1702,cs),
(170,1702,o),
(224,1728,o),
(282,1728,cs),
(316,1728,o),
(338,1708,o),
(338,1680,cs),
(338,1598,o),
(180,1636,o),
(180,1542,cs)
);
}
);
width = 550;
},
{
anchors = (
{
name = _top;
pos = (268,1400);
},
{
name = top;
pos = (268,1816);
}
);
layerId = "7390BA8A-CD54-46A0-980C-73781B2212BF";
shapes = (
{
closed = 1;
nodes = (
(244,1486,o),
(264,1468,o),
(290,1468,cs),
(360,1468,o),
(464,1560,o),
(464,1666,cs),
(464,1782,o),
(378,1856,o),
(234,1856,cs),
(138,1856,o),
(68,1814,o),
(68,1760,cs),
(68,1714,o),
(92,1682,o),
(138,1682,cs),
(178,1682,o),
(204,1698,o),
(242,1698,cs),
(284,1698,o),
(308,1670,o),
(308,1636,cs),
(308,1574,o),
(244,1554,o),
(244,1508,cs)
);
}
);
width = 550;
}
);
unicode = 777;
},
{
glyphname = dblgravecomb;
lastChange = "2021-03-26 14:55:29 +0000";
layers = (
{
anchors = (
{
name = _top;
pos = (604,1400);
},
{
name = top;
pos = (586,1938);
}
);
layerId = "16FBD564-A0D0-4365-B77C-94A96DAC7D94";
shapes = (
{
closed = 1;
nodes = (
(473,1459,o),
(498,1479,o),
(498,1517,cs),
(498,1542,o),
(488,1574,o),
(470,1612,cs),
(434,1688,o),
(394,1764,o),
(356,1828,cs),
(333,1868,o),
(298,1887,o),
(263,1887,cs),
(212,1887,o),
(161,1849,o),
(161,1791,cs),
(161,1760,o),
(174,1728,o),
(196,1700,cs),
(240,1646,o),
(294,1574,o),
(344,1516,cs),
(374,1482,o),
(410,1459,o),
(442,1459,cs)
);
},
{
closed = 1;
nodes = (
(779,1476,o),
(823,1508,o),
(823,1563,cs),
(823,1585,o),
(816,1609,o),
(804,1632,cs),
(764,1708,o),
(722,1780,o),
(682,1844,cs),
(659,1885,o),
(626,1910,o),
(590,1910,cs),
(554,1910,o),
(527,1889,o),
(527,1844,cs),
(527,1820,o),
(534,1791,o),
(546,1760,cs),
(574,1684,o),
(604,1612,o),
(626,1560,cs),
(651,1503,o),
(691,1476,o),
(732,1476,cs)
);
}
);
width = 984;
},
{
anchors = (
{
name = _top;
pos = (604,1400);
},
{
name = top;
pos = (586,1902);
}
);
layerId = "73BA353F-5B11-4DB0-9775-19E25D121032";
shapes = (
{
closed = 1;
nodes = (
(461,1466,o),
(498,1497,o),
(498,1542,cs),
(498,1569,o),
(487,1602,o),
(464,1642,cs),
(428,1704,o),
(382,1774,o),
(332,1840,cs),
(295,1888,o),
(259,1914,o),
(223,1914,cs),
(183,1914,o),
(146,1885,o),
(146,1838,cs),
(146,1806,o),
(161,1768,o),
(186,1730,cs),
(232,1660,o),
(280,1590,o),
(326,1528,cs),
(355,1490,o),
(389,1466,o),
(423,1466,cs)
);
},
{
closed = 1;
nodes = (
(773,1469,o),
(803,1496,o),
(803,1541,cs),
(803,1554,o),
(801,1569,o),
(798,1586,cs),
(784,1652,o),
(766,1726,o),
(746,1788,cs),
(729,1840,o),
(700,1885,o),
(648,1885,cs),
(593,1885,o),
(528,1844,o),
(528,1783,cs),
(528,1759,o),
(536,1734,o),
(548,1708,cs),
(578,1650,o),
(618,1590,o),
(658,1528,cs),
(682,1490,o),
(709,1469,o),
(738,1469,cs)
);
}
);
width = 984;
},
{
anchors = (
{
name = _top;
pos = (604,1400);
},
{
name = top;
pos = (586,1940);
}
);
layerId = "34BCA492-7EC7-4349-9547-1652F586AA1A";
shapes = (
{
closed = 1;
nodes = (
(442,1499,o),
(489,1537,o),
(489,1591,cs),
(489,1629,o),
(471,1673,o),
(438,1714,cs),
(404,1756,o),
(360,1810,o),
(322,1850,cs),
(292,1881,o),
(261,1900,o),
(229,1900,cs),
(191,1900,o),
(156,1875,o),
(156,1828,cs),
(156,1802,o),
(166,1771,o),
(182,1744,cs),
(212,1694,o),
(254,1626,o),
(286,1574,cs),
(313,1531,o),
(353,1499,o),
(396,1499,cs)
);
},
{
closed = 1;
nodes = (
(774,1483,o),
(803,1506,o),
(803,1549,cs),
(803,1573,o),
(796,1600,o),
(790,1624,cs),
(774,1690,o),
(752,1758,o),
(734,1804,cs),
(714,1858,o),
(682,1899,o),
(633,1899,cs),
(581,1899,o),
(523,1860,o),
(523,1801,cs),
(523,1778,o),
(531,1752,o),
(544,1726,cs),
(570,1676,o),
(604,1616,o),
(644,1552,cs),
(668,1514,o),
(702,1483,o),
(740,1483,cs)
);
}
);
width = 984;
},
{
anchors = (
{
name = _top;
pos = (604,1400);
},
{
name = top;
pos = (580,1986);
}
);
layerId = "7390BA8A-CD54-46A0-980C-73781B2212BF";
shapes = (
{
closed = 1;
nodes = (
(468,1439,o),
(500,1461,o),
(500,1499,cs),
(500,1524,o),
(487,1555,o),
(468,1592,cs),
(432,1660,o),
(384,1742,o),
(354,1788,cs),
(327,1829,o),
(292,1852,o),
(256,1852,cs),
(210,1852,o),
(161,1810,o),
(161,1757,cs),
(161,1733,o),
(171,1707,o),
(190,1682,cs),
(224,1636,o),
(278,1568,o),
(328,1508,cs),
(364,1465,o),
(401,1439,o),
(436,1439,cs)
);
},
{
closed = 1;
nodes = (
(770,1464,o),
(812,1490,o),
(812,1535,cs),
(812,1552,o),
(807,1571,o),
(800,1592,cs),
(772,1670,o),
(732,1774,o),
(698,1856,cs),
(672,1917,o),
(638,1952,o),
(595,1952,cs),
(551,1952,o),
(510,1924,o),
(510,1873,cs),
(510,1845,o),
(520,1812,o),
(532,1780,cs),
(572,1680,o),
(604,1604,o),
(642,1530,cs),
(663,1490,o),
(695,1464,o),
(732,1464,cs)
);
}
);
width = 984;
}
);
unicode = 783;
},
{
glyphname = breveinvertedcomb;
lastChange = "2021-03-26 14:55:29 +0000";
layers = (
{
anchors = (
{
name = _top;
pos = (386,1448);
},
{
name = top;
pos = (386,1910);
}
);
layerId = "16FBD564-A0D0-4365-B77C-94A96DAC7D94";
shapes = (
{
closed = 1;
nodes = (
(222,1880,o),
(79,1767,o),
(79,1600,cs),
(79,1533,o),
(115,1493,o),
(180,1493,cs),
(326,1493,o),
(252,1726,o),
(408,1726,cs),
(538,1726,o),
(521,1521,o),
(618,1521,cs),
(665,1523,o),
(692,1553,o),
(692,1607,cs),
(692,1760,o),
(561,1880,o),
(394,1880,cs)
);
}
);
width = 772;
},
{
anchors = (
{
name = _top;
pos = (386,1448);
},
{
name = top;
pos = (386,1882);
}
);
layerId = "73BA353F-5B11-4DB0-9775-19E25D121032";
shapes = (
{
closed = 1;
nodes = (
(230,1830,o),
(66,1725,o),
(66,1562,cs),
(66,1514,o),
(94,1484,o),
(141,1484,cs),
(240,1484,o),
(231,1672,o),
(384,1672,cs),
(550,1672,o),
(481,1470,o),
(604,1470,cs),
(661,1470,o),
(695,1504,o),
(695,1569,cs),
(695,1736,o),
(567,1830,o),
(392,1830,cs)
);
}
);
width = 772;
},
{
anchors = (
{
name = _top;
pos = (386,1448);
},
{
name = top;
pos = (386,1922);
}
);
layerId = "34BCA492-7EC7-4349-9547-1652F586AA1A";
shapes = (
{
closed = 1;
nodes = (
(221,1870,o),
(77,1734,o),
(77,1571,cs),
(77,1528,o),
(95,1495,o),
(135,1495,cs),
(226,1495,o),
(247,1680,o),
(404,1680,cs),
(543,1680,o),
(556,1511,o),
(652,1511,cs),
(692,1511,o),
(707,1536,o),
(707,1579,cs),
(707,1762,o),
(573,1870,o),
(390,1870,cs)
);
}
);
width = 772;
},
{
anchors = (
{
name = _top;
pos = (386,1448);
},
{
name = top;
pos = (386,1916);
}
);
layerId = "7390BA8A-CD54-46A0-980C-73781B2212BF";
shapes = (
{
closed = 1;
nodes = (
(214,1858,o),
(76,1749,o),
(76,1577,cs),
(76,1522,o),
(98,1490,o),
(158,1490,cs),
(303,1490,o),
(221,1716,o),
(384,1716,cs),
(548,1716,o),
(466,1490,o),
(604,1490,cs),
(661,1490,o),
(697,1526,o),
(697,1590,cs),
(697,1747,o),
(568,1858,o),
(396,1858,cs)
);
}
);
width = 772;
}
);
unicode = 785;
},
{
glyphname = commaturnedabovecomb;
lastChange = "2021-03-26 14:55:29 +0000";
layers = (
{
anchors = (
{
name = _top;
pos = (226,1400);
},
{
name = top;
pos = (270,1878);
}
);
layerId = "16FBD564-A0D0-4365-B77C-94A96DAC7D94";
shapes = (
{
closed = 1;
nodes = (
(282,1466,o),
(356,1508,o),
(356,1582,cs),
(356,1650,o),
(278,1668,o),
(278,1726,cs),
(278,1823,o),
(452,1780,o),
(452,1870,cs),
(452,1902,o),
(423,1935,o),
(380,1935,cs),
(238,1935,o),
(86,1811,o),
(86,1628,cs),
(86,1538,o),
(128,1466,o),
(216,1466,cs)
);
}
);
width = 462;
},
{
anchors = (
{
name = _top;
pos = (226,1400);
},
{
name = top;
pos = (270,1878);
}
);
layerId = "73BA353F-5B11-4DB0-9775-19E25D121032";
shapes = (
{
closed = 1;
nodes = (
(292,1458,o),
(350,1493,o),
(350,1562,cs),
(350,1632,o),
(288,1636,o),
(288,1700,cs),
(288,1785,o),
(488,1725,o),
(488,1824,cs),
(488,1860,o),
(458,1891,o),
(390,1891,cs),
(226,1891,o),
(90,1788,o),
(90,1636,cs),
(90,1532,o),
(137,1458,o),
(228,1458,cs)
);
}
);
width = 462;
},
{
anchors = (
{
name = _top;
pos = (226,1400);
},
{
name = top;
pos = (270,1878);
}
);
layerId = "34BCA492-7EC7-4349-9547-1652F586AA1A";
shapes = (
{
closed = 1;
nodes = (
(300,1476,o),
(360,1514,o),
(360,1574,cs),
(360,1678,o),
(238,1650,o),
(238,1718,cs),
(238,1798,o),
(439,1774,o),
(439,1853,cs),
(439,1880,o),
(414,1907,o),
(372,1907,cs),
(196,1907,o),
(56,1806,o),
(56,1646,cs),
(56,1542,o),
(130,1476,o),
(226,1476,cs)
);
}
);
width = 462;
},
{
anchors = (
{
name = _top;
pos = (226,1400);
},
{
name = top;
pos = (270,1878);
}
);
layerId = "7390BA8A-CD54-46A0-980C-73781B2212BF";
shapes = (
{
closed = 1;
nodes = (
(288,1472,o),
(346,1518,o),
(346,1586,cs),
(346,1676,o),
(282,1684,o),
(282,1728,cs),
(282,1804,o),
(454,1770,o),
(454,1858,cs),
(454,1886,o),
(431,1912,o),
(388,1912,cs),
(234,1912,o),
(82,1798,o),
(82,1638,cs),
(82,1536,o),
(126,1472,o),
(212,1472,cs)
);
}
);
width = 462;
}
);
unicode = 786;
},
{
glyphname = horncomb;
lastChange = "2021-03-26 14:55:29 +0000";
layers = (
{
anchors = (
{
name = _topright;
pos = (862,1400);
},
{
name = topright;
pos = (1386,1656);
}
);
layerId = "16FBD564-A0D0-4365-B77C-94A96DAC7D94";
shapes = (
{
closed = 1;
nodes = (
(1236,1214,o),
(1346,1306,o),
(1346,1476,cs),
(1346,1568,o),
(1310,1656,o),
(1222,1656,cs),
(1168,1656,o),
(1134,1626,o),
(1134,1574,cs),
(1134,1524,o),
(1152,1488,o),
(1152,1448,cs),
(1152,1378,o),
(1114,1344,o),
(1044,1344,cs),
(986,1344,o),
(916,1386,o),
(888,1386,cs),
(857,1386,o),
(843,1366,o),
(843,1335,cs),
(843,1261,o),
(981,1214,o),
(1092,1214,cs)
);
}
);
width = 1200;
},
{
anchors = (
{
name = _topright;
pos = (842,1400);
},
{
name = topright;
pos = (1348,1616);
}
);
layerId = "73BA353F-5B11-4DB0-9775-19E25D121032";
shapes = (
{
closed = 1;
nodes = (
(1198,1192,o),
(1308,1286,o),
(1308,1408,cs),
(1308,1528,o),
(1220,1616,o),
(1144,1616,cs),
(1090,1616,o),
(1060,1586,o),
(1060,1534,cs),
(1060,1484,o),
(1094,1428,o),
(1094,1388,cs),
(1094,1352,o),
(1070,1324,o),
(1016,1324,cs),
(956,1324,o),
(894,1360,o),
(865,1360,cs),
(838,1360,o),
(821,1337,o),
(821,1309,cs),
(821,1230,o),
(947,1192,o),
(1034,1192,cs)
);
}
);
width = 1200;
},
{
anchors = (
{
name = _topright;
pos = (776,1400);
},
{
name = topright;
pos = (1368,1656);
}
);
layerId = "34BCA492-7EC7-4349-9547-1652F586AA1A";
shapes = (
{
closed = 1;
nodes = (
(1236,1198,o),
(1328,1290,o),
(1328,1406,cs),
(1328,1552,o),
(1228,1656,o),
(1156,1656,cs),
(1102,1656,o),
(1080,1626,o),
(1080,1586,cs),
(1080,1524,o),
(1152,1466,o),
(1152,1410,cs),
(1152,1376,o),
(1114,1364,o),
(1050,1364,cs),
(954,1364,o),
(829,1407,o),
(799,1407,cs),
(772,1407,o),
(756,1386,o),
(756,1358,cs),
(756,1253,o),
(937,1198,o),
(1072,1198,cs)
);
}
);
width = 1200;
},
{
anchors = (
{
name = _topright;
pos = (862,1400);
},
{
name = topright;
pos = (1386,1636);
}
);
layerId = "7390BA8A-CD54-46A0-980C-73781B2212BF";
shapes = (
{
closed = 1;
nodes = (
(1236,1198,o),
(1346,1326,o),
(1346,1476,cs),
(1346,1568,o),
(1310,1636,o),
(1222,1636,cs),
(1168,1636,o),
(1134,1598,o),
(1134,1546,cs),
(1134,1496,o),
(1162,1462,o),
(1162,1420,cs),
(1162,1356,o),
(1114,1324,o),
(1044,1324,cs),
(970,1324,o),
(929,1386,o),
(885,1386,cs),
(857,1386,o),
(839,1364,o),
(839,1332,cs),
(839,1249,o),
(971,1198,o),
(1072,1198,cs)
);
}
);
width = 1200;
}
);
unicode = 795;
},
{
glyphname = dieresisbelowcomb;
lastChange = "2021-03-26 14:55:29 +0000";
layers = (
{
anchors = (
{
name = _bottom;
pos = (424,-98);
},
{
name = bottom;
pos = (412,-434);
}
);
layerId = "16FBD564-A0D0-4365-B77C-94A96DAC7D94";
shapes = (
{
closed = 1;
nodes = (
(314,-382,o),
(370,-334,o),
(370,-232,cs),
(370,-154,o),
(322,-102,o),
(232,-102,cs),
(150,-102,o),
(90,-156,o),
(90,-256,cs),
(90,-322,o),
(138,-382,o),
(238,-382,cs)
);
},
{
closed = 1;
nodes = (
(672,-358,o),
(714,-308,o),
(714,-226,cs),
(714,-154,o),
(674,-108,o),
(604,-108,cs),
(498,-108,o),
(464,-162,o),
(464,-238,cs),
(464,-308,o),
(512,-358,o),
(590,-358,cs)
);
}
);
width = 840;
},
{
anchors = (
{
name = _bottom;
pos = (436,-86);
},
{
name = bottom;
pos = (412,-434);
}
);
layerId = "73BA353F-5B11-4DB0-9775-19E25D121032";
shapes = (
{
closed = 1;
nodes = (
(312,-350,o),
(360,-304,o),
(360,-208,cs),
(360,-148,o),
(316,-98,o),
(246,-98,cs),
(146,-98,o),
(108,-144,o),
(108,-214,cs),
(108,-304,o),
(164,-350,o),
(222,-350,cs)
);
},
{
closed = 1;
nodes = (
(676,-384,o),
(718,-338,o),
(718,-268,cs),
(718,-176,o),
(672,-122,o),
(572,-122,cs),
(504,-122,o),
(456,-168,o),
(456,-252,cs),
(456,-328,o),
(510,-384,o),
(606,-384,cs)
);
}
);
width = 840;
},
{
anchors = (
{
name = _bottom;
pos = (404,-36);
},
{
name = bottom;
pos = (412,-434);
}
);
layerId = "34BCA492-7EC7-4349-9547-1652F586AA1A";
shapes = (
{
closed = 1;
nodes = (
(308,-368,o),
(350,-328,o),
(350,-254,cs),
(350,-182,o),
(308,-128,o),
(224,-128,cs),
(162,-128,o),
(110,-180,o),
(110,-248,cs),
(110,-330,o),
(160,-368,o),
(218,-368,cs)
);
},
{
closed = 1;
nodes = (
(664,-374,o),
(714,-328,o),
(714,-218,cs),
(714,-136,o),
(652,-84,o),
(564,-84,cs),
(472,-84,o),
(424,-134,o),
(424,-240,cs),
(424,-330,o),
(466,-374,o),
(554,-374,cs)
);
}
);
width = 840;
},
{
anchors = (
{
name = _bottom;
pos = (400,-44);
},
{
name = bottom;
pos = (412,-434);
}
);
layerId = "7390BA8A-CD54-46A0-980C-73781B2212BF";
shapes = (
{
closed = 1;
nodes = (
(306,-366,o),
(358,-308,o),
(358,-246,cs),
(358,-148,o),
(310,-94,o),
(228,-94,cs),
(142,-94,o),
(82,-144,o),
(82,-242,cs),
(82,-312,o),
(132,-366,o),
(206,-366,cs)
);
},
{
closed = 1;
nodes = (
(686,-380,o),
(732,-332,o),
(732,-256,cs),
(732,-170,o),
(678,-118,o),
(596,-118,cs),
(514,-118,o),
(470,-166,o),
(470,-264,cs),
(470,-336,o),
(514,-380,o),
(622,-380,cs)
);
}
);
width = 840;
}
);
metricLeft = dieresiscomb;
metricRight = dieresiscomb;
unicode = 804;
},
{
glyphname = commaaccentcomb;
lastChange = "2021-03-26 14:55:29 +0000";
layers = (
{
anchors = (
{
name = _bottom;
pos = (218,0);
},
{
name = bottom;
pos = (208,-712);
}
);
layerId = "7390BA8A-CD54-46A0-980C-73781B2212BF";
shapes = (
{
closed = 1;
nodes = (
(-62,-378,o),
(-88,-407,o),
(-88,-437,cs),
(-88,-468,o),
(-59,-500,o),
(4,-500,cs),
(210,-500,o),
(358,-416,o),
(358,-264,cs),
(358,-168,o),
(312,-124,o),
(232,-124,cs),
(156,-124,o),
(106,-174,o),
(106,-232,cs),
(106,-290,o),
(126,-322,o),
(126,-354,cs),
(126,-394,o),
(42,-378,o),
(-14,-378,cs)
);
}
);
width = 462;
},
{
anchors = (
{
name = _bottom;
pos = (238,0);
},
{
name = bottom;
pos = (224,-686);
}
);
layerId = "16FBD564-A0D0-4365-B77C-94A96DAC7D94";
shapes = (
{
closed = 1;
nodes = (
(33,-378,o),
(10,-407,o),
(10,-438,cs),
(10,-471,o),
(36,-505,o),
(82,-506,cs),
(220,-508,o),
(424,-404,o),
(424,-210,cs),
(424,-120,o),
(364,-76,o),
(290,-76,cs),
(208,-76,o),
(160,-126,o),
(160,-188,cs),
(160,-256,o),
(212,-260,o),
(212,-304,cs),
(212,-360,o),
(158,-378,o),
(86,-378,cs)
);
}
);
width = 462;
},
{
anchors = (
{
name = _bottom;
pos = (218,0);
},
{
name = bottom;
pos = (194,-698);
}
);
layerId = "73BA353F-5B11-4DB0-9775-19E25D121032";
shapes = (
{
closed = 1;
nodes = (
(-20,-344,o),
(-45,-371,o),
(-45,-402,cs),
(-45,-439,o),
(-6,-482,o),
(94,-482,cs),
(226,-482,o),
(388,-406,o),
(388,-242,cs),
(388,-164,o),
(348,-84,o),
(260,-84,cs),
(194,-84,o),
(142,-124,o),
(142,-182,cs),
(142,-234,o),
(178,-258,o),
(178,-298,cs),
(178,-358,o),
(112,-344,o),
(20,-344,cs)
);
}
);
width = 462;
},
{
anchors = (
{
name = _bottom;
pos = (218,0);
},
{
name = bottom;
pos = (216,-740);
}
);
layerId = "34BCA492-7EC7-4349-9547-1652F586AA1A";
shapes = (
{
closed = 1;
nodes = (
(-3,-387,o),
(-27,-412,o),
(-27,-439,cs),
(-27,-468,o),
(0,-498,o),
(50,-500,cs),
(220,-506,o),
(402,-436,o),
(402,-270,cs),
(402,-174,o),
(320,-108,o),
(230,-108,cs),
(160,-108,o),
(116,-154,o),
(116,-200,cs),
(116,-296,o),
(204,-286,o),
(204,-338,cs),
(204,-376,o),
(154,-390,o),
(46,-388,cs)
);
}
);
width = 462;
}
);
unicode = 806;
},
{
glyphname = cedillacomb;
lastChange = "2021-03-26 14:55:29 +0000";
layers = (
{
anchors = (
{
name = _cedilla;
pos = (238,0);
},
{
name = bottom;
pos = (304,-718);
}
);
layerId = "7390BA8A-CD54-46A0-980C-73781B2212BF";
shapes = (
{
closed = 1;
nodes = (
(38,-330,o),
(16,-358,o),
(16,-388,cs),
(16,-468,o),
(168,-504,o),
(292,-504,cs),
(450,-504,o),
(512,-420,o),
(512,-318,cs),
(512,-168,o),
(340,-150,o),
(340,-70,cs),
(340,-24,o),
(352,30,o),
(352,70,cs),
(352,114,o),
(296,118,o),
(260,80,cs),
(192,6,o),
(156,-52,o),
(156,-120,cs),
(156,-226,o),
(374,-254,o),
(374,-334,cs),
(374,-366,o),
(334,-374,o),
(264,-374,cs),
(174,-374,o),
(134,-330,o),
(70,-330,cs)
);
}
);
width = 578;
},
{
anchors = (
{
name = _cedilla;
pos = (248,0);
},
{
name = bottom;
pos = (288,-530);
}
);
layerId = "16FBD564-A0D0-4365-B77C-94A96DAC7D94";
shapes = (
{
closed = 1;
nodes = (
(111,-302,o),
(96,-322,o),
(96,-348,cs),
(96,-431,o),
(231,-504,o),
(338,-504,cs),
(458,-504,o),
(524,-432,o),
(524,-328,cs),
(524,-164,o),
(302,-184,o),
(302,-68,cs),
(302,-28,o),
(310,0,o),
(334,48,cs),
(364,108,o),
(260,158,o),
(204,64,cs),
(172,6,o),
(160,-50,o),
(160,-92,cs),
(160,-238,o),
(340,-240,o),
(340,-298,cs),
(340,-322,o),
(324,-332,o),
(290,-332,cs),
(234,-332,o),
(182,-302,o),
(144,-302,cs)
);
}
);
width = 578;
},
{
anchors = (
{
name = _cedilla;
pos = (218,0);
},
{
name = bottom;
pos = (336,-578);
}
);
layerId = "73BA353F-5B11-4DB0-9775-19E25D121032";
shapes = (
{
closed = 1;
nodes = (
(44,-270,o),
(23,-293,o),
(23,-322,cs),
(23,-406,o),
(209,-464,o),
(330,-464,cs),
(446,-464,o),
(538,-404,o),
(538,-322,cs),
(538,-182,o),
(336,-206,o),
(336,-80,cs),
(336,-44,o),
(356,12,o),
(362,36,cs),
(372,88,o),
(324,110,o),
(290,82,cs),
(228,34,o),
(184,-30,o),
(184,-96,cs),
(184,-190,o),
(280,-224,o),
(280,-274,cs),
(280,-298,o),
(258,-312,o),
(222,-312,cs),
(172,-312,o),
(114,-270,o),
(70,-270,cs)
);
}
);
width = 578;
},
{
anchors = (
{
name = _cedilla;
pos = (174,0);
},
{
name = bottom;
pos = (336,-718);
}
);
layerId = "34BCA492-7EC7-4349-9547-1652F586AA1A";
shapes = (
{
closed = 1;
nodes = (
(97,-326,o),
(77,-349,o),
(77,-375,cs),
(77,-442,o),
(199,-478,o),
(292,-478,cs),
(426,-478,o),
(508,-396,o),
(508,-280,cs),
(508,-114,o),
(288,-160,o),
(288,-76,cs),
(288,-24,o),
(350,8,o),
(352,60,cs),
(354,106,o),
(302,102,o),
(270,80,cs),
(192,26,o),
(130,-42,o),
(130,-136,cs),
(130,-270,o),
(374,-252,o),
(374,-314,cs),
(374,-340,o),
(352,-360,o),
(308,-360,cs),
(228,-360,o),
(166,-326,o),
(128,-326,cs)
);
}
);
width = 578;
}
);
unicode = 807;
},
{
glyphname = ogonekcomb;
lastChange = "2021-03-26 14:55:29 +0000";
layers = (
{
anchors = (
{
name = _ogonek;
pos = (388,0);
},
{
name = bottom;
pos = (298,-638);
}
);
layerId = "7390BA8A-CD54-46A0-980C-73781B2212BF";
shapes = (
{
closed = 1;
nodes = (
(492,66,o),
(474,88,o),
(436,88,cs),
(382,88,o),
(346,78,o),
(316,56,cs),
(162,-60,o),
(78,-150,o),
(78,-288,cs),
(78,-410,o),
(168,-492,o),
(312,-492,cs),
(420,-492,o),
(486,-448,o),
(486,-386,cs),
(486,-340,o),
(460,-306,o),
(408,-306,cs),
(368,-306,o),
(360,-314,o),
(320,-314,cs),
(270,-314,o),
(238,-276,o),
(238,-226,cs),
(238,-134,o),
(332,-58,o),
(466,46,cs)
);
}
);
width = 544;
},
{
anchors = (
{
name = _ogonek;
pos = (388,0);
},
{
name = bottom;
pos = (282,-662);
}
);
layerId = "16FBD564-A0D0-4365-B77C-94A96DAC7D94";
shapes = (
{
closed = 1;
nodes = (
(522,68,o),
(510,92,o),
(478,92,cs),
(410,92,o),
(358,82,o),
(296,56,cs),
(156,-2,o),
(30,-90,o),
(30,-240,cs),
(30,-392,o),
(138,-494,o),
(308,-494,cs),
(420,-494,o),
(514,-458,o),
(514,-376,cs),
(514,-330,o),
(490,-302,o),
(438,-302,cs),
(388,-302,o),
(356,-320,o),
(300,-320,cs),
(230,-320,o),
(196,-268,o),
(196,-212,cs),
(196,-92,o),
(314,-40,o),
(498,56,cs)
);
}
);
width = 544;
},
{
anchors = (
{
name = _ogonek;
pos = (388,0);
},
{
name = bottom;
pos = (302,-606);
}
);
layerId = "73BA353F-5B11-4DB0-9775-19E25D121032";
shapes = (
{
closed = 1;
nodes = (
(514,64,o),
(510,90,o),
(454,90,cs),
(406,90,o),
(346,78,o),
(296,56,cs),
(188,8,o),
(84,-86,o),
(84,-240,cs),
(84,-378,o),
(172,-470,o),
(310,-470,cs),
(422,-470,o),
(508,-418,o),
(508,-334,cs),
(508,-284,o),
(478,-256,o),
(430,-256,cs),
(380,-256,o),
(340,-290,o),
(294,-290,cs),
(242,-290,o),
(224,-250,o),
(224,-202,cs),
(224,-98,o),
(332,-28,o),
(498,56,cs)
);
}
);
width = 544;
},
{
anchors = (
{
name = _ogonek;
pos = (388,0);
},
{
name = bottom;
pos = (282,-572);
}
);
layerId = "34BCA492-7EC7-4349-9547-1652F586AA1A";
shapes = (
{
closed = 1;
nodes = (
(512,62,o),
(500,84,o),
(452,84,cs),
(406,84,o),
(352,76,o),
(296,56,cs),
(158,8,o),
(20,-98,o),
(20,-268,cs),
(20,-384,o),
(106,-470,o),
(268,-470,cs),
(404,-470,o),
(494,-426,o),
(494,-356,cs),
(494,-310,o),
(462,-278,o),
(406,-278,cs),
(360,-278,o),
(320,-292,o),
(264,-292,cs),
(210,-292,o),
(188,-258,o),
(188,-222,cs),
(188,-114,o),
(296,-28,o),
(488,52,cs)
);
}
);
width = 544;
}
);
unicode = 808;
},
{
glyphname = brevebelowcomb;
lastChange = "2021-03-26 14:55:29 +0000";
layers = (
{
anchors = (
{
name = _bottom;
pos = (362,0);
},
{
name = bottom;
pos = (368,-408);
}
);
layerId = "16FBD564-A0D0-4365-B77C-94A96DAC7D94";
shapes = (
{
closed = 1;
nodes = (
(533,-366,o),
(691,-266,o),
(691,-109,cs),
(691,-64,o),
(667,-32,o),
(616,-32,cs),
(507,-32,o),
(521,-208,o),
(382,-208,cs),
(229,-208,o),
(298,32,o),
(160,32,cs),
(94,32,o),
(70,-10,o),
(70,-63,cs),
(70,-239,o),
(188,-366,o),
(366,-366,cs)
);
}
);
width = 768;
},
{
anchors = (
{
name = _bottom;
pos = (376,0);
},
{
name = bottom;
pos = (382,-400);
}
);
layerId = "73BA353F-5B11-4DB0-9775-19E25D121032";
shapes = (
{
closed = 1;
nodes = (
(551,-356,o),
(692,-204,o),
(692,-33,cs),
(692,21,o),
(666,58,o),
(608,58,cs),
(470,58,o),
(536,-202,o),
(362,-202,cs),
(242,-202,o),
(249,4,o),
(152,4,cs),
(103,4,o),
(79,-28,o),
(79,-84,cs),
(79,-237,o),
(210,-356,o),
(376,-356,cs)
);
}
);
width = 768;
},
{
anchors = (
{
name = _bottom;
pos = (378,0);
},
{
name = bottom;
pos = (376,-470);
}
);
layerId = "34BCA492-7EC7-4349-9547-1652F586AA1A";
shapes = (
{
closed = 1;
nodes = (
(545,-362,o),
(677,-270,o),
(677,-104,cs),
(677,-53,o),
(655,-20,o),
(594,-20,cs),
(452,-20,o),
(536,-220,o),
(380,-220,cs),
(208,-220,o),
(312,44,o),
(154,44,cs),
(91,44,o),
(63,9,o),
(63,-53,cs),
(63,-231,o),
(189,-362,o),
(368,-362,cs)
);
}
);
width = 768;
},
{
anchors = (
{
name = _bottom;
pos = (382,0);
},
{
name = bottom;
pos = (444,-416);
}
);
layerId = "7390BA8A-CD54-46A0-980C-73781B2212BF";
shapes = (
{
closed = 1;
nodes = (
(569,-412,o),
(728,-242,o),
(728,-82,cs),
(728,-39,o),
(707,-10,o),
(665,-10,cs),
(569,-10,o),
(536,-222,o),
(374,-222,cs),
(234,-222,o),
(210,-58,o),
(124,-58,cs),
(87,-58,o),
(65,-83,o),
(65,-125,cs),
(65,-275,o),
(190,-412,o),
(381,-412,cs)
);
}
);
width = 768;
}
);
unicode = 814;
},
{
glyphname = strokeshortcomb;
lastChange = "2021-03-26 14:55:29 +0000";
layers = (
{
anchors = (
{
name = _center;
pos = (408,802);
}
);
layerId = "16FBD564-A0D0-4365-B77C-94A96DAC7D94";
shapes = (
{
closed = 1;
nodes = (
(350,722,o),
(482,726,o),
(616,728,cs),
(702,734,o),
(736,756,o),
(736,800,cs),
(736,848,o),
(696,866,o),
(614,870,cs),
(480,882,o),
(344,878,o),
(210,882,cs),
(124,882,o),
(80,864,o),
(80,804,cs),
(80,742,o),
(124,722,o),
(200,722,cs)
);
}
);
width = 816;
},
{
anchors = (
{
name = _center;
pos = (408,790);
}
);
layerId = "73BA353F-5B11-4DB0-9775-19E25D121032";
shapes = (
{
closed = 1;
nodes = (
(338,716,o),
(462,712,o),
(586,710,cs),
(682,708,o),
(738,722,o),
(738,784,cs),
(738,838,o),
(688,860,o),
(590,864,cs),
(466,868,o),
(344,872,o),
(220,872,cs),
(120,872,o),
(80,854,o),
(78,804,cs),
(76,756,o),
(120,734,o),
(214,724,cs)
);
}
);
width = 816;
},
{
anchors = (
{
name = _center;
pos = (408,790);
}
);
layerId = "34BCA492-7EC7-4349-9547-1652F586AA1A";
shapes = (
{
closed = 1;
nodes = (
(340,714,o),
(464,712,o),
(588,714,cs),
(684,716,o),
(740,734,o),
(738,792,cs),
(736,846,o),
(686,868,o),
(588,868,cs),
(464,868,o),
(342,864,o),
(218,860,cs),
(118,856,o),
(78,836,o),
(78,786,cs),
(78,738,o),
(122,718,o),
(216,716,cs)
);
}
);
width = 816;
},
{
anchors = (
{
name = _center;
pos = (408,788);
}
);
layerId = "7390BA8A-CD54-46A0-980C-73781B2212BF";
shapes = (
{
closed = 1;
nodes = (
(346,714,o),
(482,714,o),
(616,724,cs),
(698,732,o),
(740,748,o),
(736,796,cs),
(734,840,o),
(702,862,o),
(616,864,cs),
(482,868,o),
(350,868,o),
(200,864,cs),
(124,864,o),
(76,842,o),
(80,782,cs),
(84,724,o),
(126,708,o),
(212,710,cs)
);
}
);
width = 816;
}
);
unicode = 821;
},
{
glyphname = strokelongcomb;
lastChange = "2021-03-26 14:55:29 +0000";
layers = (
{
anchors = (
{
name = _center;
pos = (708,802);
}
);
layerId = "16FBD564-A0D0-4365-B77C-94A96DAC7D94";
shapes = (
{
closed = 1;
nodes = (
(850,880,o),
(528,886,o),
(200,874,cs),
(114,870,o),
(80,848,o),
(80,804,cs),
(80,754,o),
(120,736,o),
(202,732,cs),
(534,720,o),
(874,724,o),
(1206,722,cs),
(1292,720,o),
(1336,740,o),
(1336,798,cs),
(1336,860,o),
(1292,880,o),
(1216,880,cs)
);
}
);
width = 1420;
},
{
anchors = (
{
name = _center;
pos = (710,790);
}
);
layerId = "73BA353F-5B11-4DB0-9775-19E25D121032";
shapes = (
{
closed = 1;
nodes = (
(882,872,o),
(556,876,o),
(232,872,cs),
(136,872,o),
(80,860,o),
(80,798,cs),
(80,744,o),
(130,722,o),
(228,718,cs),
(552,706,o),
(874,706,o),
(1198,712,cs),
(1298,712,o),
(1338,728,o),
(1340,780,cs),
(1342,828,o),
(1298,854,o),
(1204,858,cs)
);
}
);
width = 1420;
},
{
anchors = (
{
name = _center;
pos = (708,788);
}
);
layerId = "34BCA492-7EC7-4349-9547-1652F586AA1A";
shapes = (
{
closed = 1;
nodes = (
(876,866,o),
(552,870,o),
(228,864,cs),
(132,860,o),
(76,844,o),
(78,786,cs),
(80,734,o),
(130,714,o),
(228,714,cs),
(552,712,o),
(874,710,o),
(1198,720,cs),
(1298,724,o),
(1338,744,o),
(1338,792,cs),
(1338,838,o),
(1294,858,o),
(1200,860,cs)
);
}
);
width = 1420;
},
{
anchors = (
{
name = _center;
pos = (708,790);
}
);
layerId = "7390BA8A-CD54-46A0-980C-73781B2212BF";
shapes = (
{
closed = 1;
nodes = (
(872,870,o),
(532,866,o),
(200,850,cs),
(118,846,o),
(80,828,o),
(80,780,cs),
(80,738,o),
(114,716,o),
(200,714,cs),
(526,708,o),
(848,708,o),
(1216,718,cs),
(1292,720,o),
(1340,740,o),
(1336,800,cs),
(1332,854,o),
(1290,870,o),
(1204,870,cs)
);
}
);
width = 1420;
}
);
unicode = 822;
},
{
glyphname = grave;
lastChange = "2021-03-26 14:55:29 +0000";
layers = (
{
anchors = (
{
name = bottom;
pos = (296,604);
},
{
name = top;
pos = (268,1484);
}
);
layerId = "7390BA8A-CD54-46A0-980C-73781B2212BF";
shapes = (
{
closed = 1;
nodes = (
(286,746,o),
(321,712,o),
(360,712,cs),
(403,712,o),
(435,744,o),
(435,798,cs),
(435,819,o),
(431,845,o),
(422,874,cs),
(386,998,o),
(336,1158,o),
(286,1302,cs),
(257,1389,o),
(216,1436,o),
(160,1436,cs),
(100,1436,o),
(56,1397,o),
(56,1328,cs),
(56,1297,o),
(64,1263,o),
(78,1228,cs),
(144,1062,o),
(202,926,o),
(258,806,cs)
);
}
);
width = 490;
},
{
anchors = (
{
name = bottom;
pos = (284,604);
},
{
name = top;
pos = (256,1484);
}
);
layerId = "16FBD564-A0D0-4365-B77C-94A96DAC7D94";
shapes = (
{
closed = 1;
nodes = (
(282,748,o),
(312,715,o),
(349,715,cs),
(388,715,o),
(415,741,o),
(415,790,cs),
(415,812,o),
(411,837,o),
(402,866,cs),
(364,1008,o),
(312,1164,o),
(258,1318,cs),
(233,1391,o),
(194,1431,o),
(143,1431,cs),
(86,1431,o),
(37,1392,o),
(37,1326,cs),
(37,1299,o),
(44,1266,o),
(60,1230,cs),
(124,1078,o),
(194,928,o),
(258,794,cs)
);
}
);
width = 490;
},
{
anchors = (
{
name = bottom;
pos = (296,604);
},
{
name = top;
pos = (268,1484);
}
);
layerId = "73BA353F-5B11-4DB0-9775-19E25D121032";
shapes = (
{
closed = 1;
nodes = (
(274,765,o),
(300,737,o),
(332,737,cs),
(371,737,o),
(397,763,o),
(397,813,cs),
(397,831,o),
(395,853,o),
(390,878,cs),
(366,1016,o),
(328,1168,o),
(300,1286,cs),
(279,1378,o),
(236,1419,o),
(180,1419,cs),
(114,1419,o),
(65,1380,o),
(65,1306,cs),
(65,1276,o),
(72,1240,o),
(88,1200,cs),
(130,1092,o),
(188,954,o),
(248,822,cs)
);
}
);
width = 490;
},
{
anchors = (
{
name = bottom;
pos = (296,604);
},
{
name = top;
pos = (268,1484);
}
);
layerId = "34BCA492-7EC7-4349-9547-1652F586AA1A";
shapes = (
{
closed = 1;
nodes = (
(299,658,o),
(332,625,o),
(371,625,cs),
(411,625,o),
(439,647,o),
(439,694,cs),
(439,715,o),
(435,740,o),
(428,770,cs),
(384,960,o),
(330,1176,o),
(280,1364,cs),
(261,1433,o),
(224,1470,o),
(172,1470,cs),
(108,1470,o),
(56,1432,o),
(56,1360,cs),
(56,1334,o),
(62,1304,o),
(74,1272,cs),
(140,1080,o),
(214,878,o),
(274,720,cs)
);
}
);
width = 490;
}
);
unicode = 96;
},
{
glyphname = circumflex.alt;
lastChange = "2021-03-26 14:55:29 +0000";
layers = (
{
anchors = (
{
name = _top;
pos = (424,1400);
},
{
name = top;
pos = (438,1898);
}
);
layerId = "7390BA8A-CD54-46A0-980C-73781B2212BF";
shapes = (
{
closed = 1;
nodes = (
(266,1552,o),
(330,1612,o),
(370,1642,cs),
(398,1664,o),
(424,1660,o),
(446,1640,cs),
(494,1598,o),
(568,1518,o),
(638,1450,cs),
(657,1432,o),
(678,1424,o),
(698,1424,cs),
(735,1424,o),
(766,1452,o),
(766,1490,cs),
(766,1508,o),
(759,1529,o),
(742,1550,cs),
(682,1624,o),
(614,1704,o),
(550,1770,cs),
(513,1808,o),
(467,1828,o),
(417,1828,cs),
(376,1828,o),
(332,1815,o),
(288,1788,cs),
(228,1750,o),
(162,1706,o),
(102,1658,cs),
(61,1625,o),
(45,1590,o),
(45,1560,cs),
(45,1513,o),
(84,1477,o),
(133,1477,cs),
(158,1477,o),
(186,1486,o),
(212,1508,cs)
);
}
);
width = 848;
},
{
anchors = (
{
name = _top;
pos = (424,1400);
},
{
name = top;
pos = (438,1998);
}
);
layerId = "16FBD564-A0D0-4365-B77C-94A96DAC7D94";
shapes = (
{
closed = 1;
nodes = (
(262,1616,o),
(336,1672,o),
(396,1712,cs),
(444,1744,o),
(476,1738,o),
(506,1700,cs),
(544,1654,o),
(590,1584,o),
(628,1538,cs),
(655,1506,o),
(686,1492,o),
(714,1492,cs),
(765,1492,o),
(807,1534,o),
(807,1587,cs),
(807,1612,o),
(797,1640,o),
(774,1666,cs),
(702,1746,o),
(616,1830,o),
(530,1906,cs),
(504,1929,o),
(470,1941,o),
(436,1941,cs),
(401,1941,o),
(366,1929,o),
(338,1904,cs),
(256,1832,o),
(178,1750,o),
(100,1662,cs),
(86,1647,o),
(80,1630,o),
(80,1614,cs),
(80,1582,o),
(104,1555,o),
(140,1555,cs),
(156,1555,o),
(173,1560,o),
(192,1572,cs)
);
}
);
width = 848;
},
{
anchors = (
{
name = _top;
pos = (424,1400);
},
{
name = top;
pos = (418,1918);
}
);
layerId = "73BA353F-5B11-4DB0-9775-19E25D121032";
shapes = (
{
closed = 1;
nodes = (
(248,1550,o),
(300,1598,o),
(364,1642,cs),
(394,1664,o),
(430,1656,o),
(456,1640,cs),
(496,1616,o),
(584,1552,o),
(658,1502,cs),
(677,1490,o),
(697,1484,o),
(715,1484,cs),
(758,1484,o),
(793,1514,o),
(793,1555,cs),
(793,1578,o),
(782,1604,o),
(754,1630,cs),
(684,1694,o),
(580,1776,o),
(490,1840,cs),
(465,1858,o),
(435,1867,o),
(403,1867,cs),
(356,1867,o),
(306,1847,o),
(268,1806,cs),
(226,1762,o),
(146,1672,o),
(86,1600,cs),
(71,1582,o),
(65,1563,o),
(65,1546,cs),
(65,1511,o),
(91,1482,o),
(128,1482,cs),
(147,1482,o),
(168,1489,o),
(190,1506,cs)
);
}
);
width = 848;
},
{
anchors = (
{
name = _top;
pos = (424,1400);
},
{
name = top;
pos = (418,1900);
}
);
layerId = "34BCA492-7EC7-4349-9547-1652F586AA1A";
shapes = (
{
closed = 1;
nodes = (
(244,1538,o),
(300,1594,o),
(330,1626,cs),
(354,1650,o),
(370,1650,o),
(394,1636,cs),
(448,1606,o),
(550,1536,o),
(662,1464,cs),
(677,1455,o),
(693,1450,o),
(708,1450,cs),
(748,1450,o),
(784,1481,o),
(784,1521,cs),
(784,1544,o),
(772,1570,o),
(742,1596,cs),
(662,1664,o),
(544,1754,o),
(474,1804,cs),
(441,1828,o),
(407,1839,o),
(373,1839,cs),
(330,1839,o),
(287,1821,o),
(248,1786,cs),
(190,1734,o),
(110,1662,o),
(74,1622,cs),
(46,1591,o),
(34,1561,o),
(34,1535,cs),
(34,1487,o),
(75,1454,o),
(121,1454,cs),
(148,1454,o),
(178,1465,o),
(202,1492,cs)
);
}
);
width = 848;
}
);
},
{
glyphname = doubleprimemod;
lastChange = "2021-03-26 14:55:29 +0000";
layers = (
{
layerId = "16FBD564-A0D0-4365-B77C-94A96DAC7D94";
shapes = (
{
closed = 1;
nodes = (
(56,892,o),
(68,832,o),
(132,832,cs),
(166,832,o),
(198,854,o),
(218,890,cs),
(274,994,o),
(346,1138,o),
(408,1266,cs),
(464,1382,o),
(438,1482,o),
(344,1482,cs),
(296,1482,o),
(260,1448,o),
(232,1382,cs),
(182,1262,o),
(118,1094,o),
(76,960,cs)
);
},
{
closed = 1;
nodes = (
(380,858,o),
(406,778,o),
(480,778,cs),
(520,778,o),
(550,804,o),
(590,884,cs),
(638,984,o),
(718,1150,o),
(772,1274,cs),
(820,1380,o),
(790,1460,o),
(716,1460,cs),
(662,1460,o),
(628,1430,o),
(594,1362,cs),
(538,1242,o),
(466,1080,o),
(418,954,cs)
);
}
);
width = 752;
},
{
layerId = "73BA353F-5B11-4DB0-9775-19E25D121032";
shapes = (
{
closed = 1;
nodes = (
(86,902,o),
(94,828,o),
(166,826,cs),
(198,826,o),
(226,842,o),
(246,880,cs),
(316,1014,o),
(380,1146,o),
(438,1270,cs),
(486,1372,o),
(456,1478,o),
(360,1478,cs),
(300,1478,o),
(268,1440,o),
(244,1370,cs),
(196,1236,o),
(140,1084,o),
(110,980,cs)
);
},
{
closed = 1;
nodes = (
(438,904,o),
(458,844,o),
(526,844,cs),
(560,844,o),
(588,862,o),
(614,916,cs),
(668,1026,o),
(724,1144,o),
(770,1260,cs),
(812,1362,o),
(784,1442,o),
(700,1442,cs),
(646,1442,o),
(614,1414,o),
(584,1338,cs),
(542,1232,o),
(502,1114,o),
(462,982,cs)
);
}
);
width = 752;
},
{
layerId = "34BCA492-7EC7-4349-9547-1652F586AA1A";
shapes = (
{
closed = 1;
nodes = (
(72,894,o),
(92,848,o),
(154,848,cs),
(188,848,o),
(214,868,o),
(234,910,cs),
(300,1044,o),
(356,1178,o),
(410,1312,cs),
(460,1434,o),
(438,1538,o),
(336,1538,cs),
(272,1538,o),
(232,1494,o),
(200,1390,cs),
(154,1236,o),
(124,1132,o),
(88,964,cs)
);
},
{
closed = 1;
nodes = (
(412,856,o),
(436,806,o),
(494,806,cs),
(528,806,o),
(554,824,o),
(584,880,cs),
(648,998,o),
(710,1124,o),
(772,1272,cs),
(820,1384,o),
(786,1468,o),
(686,1468,cs),
(632,1468,o),
(596,1436,o),
(566,1358,cs),
(512,1214,o),
(466,1070,o),
(430,930,cs)
);
}
);
width = 752;
},
{
layerId = "7390BA8A-CD54-46A0-980C-73781B2212BF";
shapes = (
{
closed = 1;
nodes = (
(72,878,o),
(94,816,o),
(154,816,cs),
(198,816,o),
(226,836,o),
(244,878,cs),
(302,1012,o),
(348,1156,o),
(398,1328,cs),
(428,1432,o),
(398,1514,o),
(314,1514,cs),
(248,1514,o),
(210,1476,o),
(190,1404,cs),
(142,1238,o),
(114,1108,o),
(84,946,cs)
);
},
{
closed = 1;
nodes = (
(392,890,o),
(430,840,o),
(478,840,cs),
(524,840,o),
(554,854,o),
(594,926,cs),
(652,1032,o),
(716,1156,o),
(770,1282,cs),
(820,1396,o),
(804,1500,o),
(718,1500,cs),
(662,1500,o),
(616,1468,o),
(572,1368,cs),
(514,1234,o),
(474,1132,o),
(422,978,cs)
);
}
);
width = 752;
}
);
unicode = 698;
},
{
glyphname = primemod;
lastChange = "2021-03-26 14:55:29 +0000";
layers = (
{
layerId = "16FBD564-A0D0-4365-B77C-94A96DAC7D94";
shapes = (
{
closed = 1;
nodes = (
(72,866,o),
(96,802,o),
(160,802,cs),
(206,802,o),
(238,824,o),
(268,894,cs),
(312,996,o),
(356,1110,o),
(414,1286,cs),
(448,1386,o),
(428,1482,o),
(344,1482,cs),
(272,1482,o),
(240,1444,o),
(206,1344,cs),
(164,1222,o),
(118,1068,o),
(92,952,cs)
);
}
);
width = 400;
},
{
layerId = "73BA353F-5B11-4DB0-9775-19E25D121032";
shapes = (
{
closed = 1;
nodes = (
(106,806,o),
(130,764,o),
(176,764,cs),
(218,764,o),
(250,788,o),
(270,850,cs),
(314,982,o),
(356,1122,o),
(392,1264,cs),
(422,1384,o),
(382,1474,o),
(298,1474,cs),
(230,1474,o),
(186,1426,o),
(170,1328,cs),
(146,1188,o),
(126,1036,o),
(112,876,cs)
);
}
);
width = 400;
},
{
layerId = "34BCA492-7EC7-4349-9547-1652F586AA1A";
shapes = (
{
closed = 1;
nodes = (
(108,796,o),
(138,752,o),
(192,752,cs),
(234,752,o),
(258,778,o),
(274,832,cs),
(316,974,o),
(356,1126,o),
(380,1256,cs),
(402,1366,o),
(364,1432,o),
(282,1432,cs),
(210,1432,o),
(174,1390,o),
(162,1308,cs),
(140,1152,o),
(128,1016,o),
(114,860,cs)
);
}
);
width = 400;
},
{
layerId = "7390BA8A-CD54-46A0-980C-73781B2212BF";
shapes = (
{
closed = 1;
nodes = (
(98,798,o),
(122,746,o),
(176,746,cs),
(218,746,o),
(250,778,o),
(264,824,cs),
(294,940,o),
(338,1106,o),
(374,1252,cs),
(400,1360,o),
(372,1428,o),
(286,1428,cs),
(226,1428,o),
(184,1388,o),
(170,1308,cs),
(148,1178,o),
(120,984,o),
(106,862,cs)
);
}
);
width = 400;
}
);
unicode = 697;
},
{
glyphname = ringhalfleft;
lastChange = "2021-03-26 14:55:29 +0000";
layers = (
{
anchors = (
{
name = _top;
pos = (270,1400);
},
{
name = top;
pos = (304,1846);
}
);
layerId = "16FBD564-A0D0-4365-B77C-94A96DAC7D94";
shapes = (
{
closed = 1;
nodes = (
(340,1472,o),
(358,1500,o),
(358,1528,cs),
(358,1556,o),
(342,1584,o),
(308,1588,cs),
(250,1594,o),
(234,1624,o),
(234,1676,cs),
(234,1728,o),
(258,1760,o),
(306,1766,cs),
(350,1772,o),
(370,1804,o),
(370,1834,cs),
(370,1866,o),
(348,1898,o),
(302,1898,cs),
(186,1898,o),
(90,1818,o),
(90,1692,cs),
(90,1560,o),
(172,1472,o),
(298,1472,cs)
);
}
);
width = 424;
},
{
anchors = (
{
name = _top;
pos = (266,1400);
},
{
name = top;
pos = (304,1846);
}
);
layerId = "73BA353F-5B11-4DB0-9775-19E25D121032";
shapes = (
{
closed = 1;
nodes = (
(322,1472,o),
(354,1492,o),
(354,1534,cs),
(354,1572,o),
(334,1588,o),
(300,1592,cs),
(248,1598,o),
(216,1624,o),
(216,1676,cs),
(216,1728,o),
(250,1762,o),
(308,1766,cs),
(354,1770,o),
(378,1796,o),
(378,1838,cs),
(378,1886,o),
(354,1904,o),
(298,1904,cs),
(174,1904,o),
(72,1814,o),
(72,1684,cs),
(72,1558,o),
(152,1472,o),
(280,1472,cs)
);
}
);
width = 424;
},
{
anchors = (
{
name = _top;
pos = (250,1400);
},
{
name = top;
pos = (304,1846);
}
);
layerId = "34BCA492-7EC7-4349-9547-1652F586AA1A";
shapes = (
{
closed = 1;
nodes = (
(310,1458,o),
(338,1476,o),
(338,1518,cs),
(336,1554,o),
(314,1572,o),
(288,1574,cs),
(242,1578,o),
(226,1612,o),
(226,1656,cs),
(226,1700,o),
(244,1724,o),
(288,1732,cs),
(320,1738,o),
(346,1760,o),
(346,1804,cs),
(346,1844,o),
(312,1868,o),
(266,1868,cs),
(148,1868,o),
(56,1792,o),
(56,1668,cs),
(56,1530,o),
(142,1458,o),
(264,1458,cs)
);
}
);
width = 424;
},
{
anchors = (
{
name = _top;
pos = (248,1400);
},
{
name = top;
pos = (304,1846);
}
);
layerId = "7390BA8A-CD54-46A0-980C-73781B2212BF";
shapes = (
{
closed = 1;
nodes = (
(312,1466,o),
(342,1476,o),
(342,1530,cs),
(342,1574,o),
(324,1586,o),
(290,1592,cs),
(246,1600,o),
(228,1622,o),
(228,1702,cs),
(228,1756,o),
(252,1780,o),
(294,1788,cs),
(336,1796,o),
(360,1814,o),
(360,1860,cs),
(360,1902,o),
(334,1924,o),
(274,1924,cs),
(162,1924,o),
(74,1840,o),
(74,1696,cs),
(74,1556,o),
(154,1466,o),
(280,1466,cs)
);
}
);
width = 424;
}
);
unicode = 703;
},
{
glyphname = ringhalfright;
lastChange = "2021-03-26 14:55:29 +0000";
layers = (
{
anchors = (
{
name = _top;
pos = (176,1400);
},
{
name = top;
pos = (120,1846);
}
);
layerId = "16FBD564-A0D0-4365-B77C-94A96DAC7D94";
shapes = (
{
closed = 1;
nodes = (
(270,1466,o),
(350,1556,o),
(350,1696,cs),
(350,1840,o),
(262,1924,o),
(150,1924,cs),
(90,1924,o),
(64,1902,o),
(64,1860,cs),
(64,1814,o),
(88,1796,o),
(130,1788,cs),
(172,1780,o),
(196,1756,o),
(196,1702,cs),
(196,1622,o),
(178,1600,o),
(134,1592,cs),
(100,1586,o),
(82,1574,o),
(82,1530,cs),
(82,1476,o),
(112,1466,o),
(144,1466,cs)
);
}
);
width = 424;
},
{
anchors = (
{
name = _top;
pos = (174,1400);
},
{
name = top;
pos = (120,1846);
}
);
layerId = "73BA353F-5B11-4DB0-9775-19E25D121032";
shapes = (
{
closed = 1;
nodes = (
(282,1458,o),
(368,1530,o),
(368,1668,cs),
(368,1792,o),
(276,1868,o),
(158,1868,cs),
(112,1868,o),
(78,1844,o),
(78,1804,cs),
(78,1760,o),
(104,1738,o),
(136,1732,cs),
(180,1724,o),
(198,1700,o),
(198,1656,cs),
(198,1612,o),
(182,1578,o),
(136,1574,cs),
(110,1572,o),
(88,1554,o),
(86,1518,cs),
(86,1476,o),
(114,1458,o),
(160,1458,cs)
);
}
);
width = 424;
},
{
anchors = (
{
name = _top;
pos = (158,1400);
},
{
name = top;
pos = (120,1846);
}
);
layerId = "34BCA492-7EC7-4349-9547-1652F586AA1A";
shapes = (
{
closed = 1;
nodes = (
(272,1472,o),
(352,1558,o),
(352,1684,cs),
(352,1814,o),
(250,1904,o),
(126,1904,cs),
(70,1904,o),
(46,1886,o),
(46,1838,cs),
(46,1796,o),
(70,1770,o),
(116,1766,cs),
(174,1762,o),
(208,1728,o),
(208,1676,cs),
(208,1624,o),
(176,1598,o),
(124,1592,cs),
(90,1588,o),
(70,1572,o),
(70,1534,cs),
(70,1492,o),
(102,1472,o),
(144,1472,cs)
);
}
);
width = 424;
},
{
anchors = (
{
name = _top;
pos = (154,1400);
},
{
name = top;
pos = (120,1846);
}
);
layerId = "7390BA8A-CD54-46A0-980C-73781B2212BF";
shapes = (
{
closed = 1;
nodes = (
(252,1472,o),
(334,1560,o),
(334,1692,cs),
(334,1818,o),
(238,1898,o),
(122,1898,cs),
(76,1898,o),
(54,1866,o),
(54,1834,cs),
(54,1804,o),
(74,1772,o),
(118,1766,cs),
(166,1760,o),
(190,1728,o),
(190,1676,cs),
(190,1624,o),
(174,1594,o),
(116,1588,cs),
(82,1584,o),
(66,1556,o),
(66,1528,cs),
(66,1500,o),
(84,1472,o),
(126,1472,cs)
);
}
);
width = 424;
}
);
unicode = 702;
},
{
glyphname = verticallinelowmod;
lastChange = "2021-03-26 14:55:29 +0000";
layers = (
{
layerId = "16FBD564-A0D0-4365-B77C-94A96DAC7D94";
shapes = (
{
closed = 1;
nodes = (
(288,-114,o),
(266,-68,o),
(194,-68,cs),
(130,-68,o),
(108,-112,o),
(104,-210,cs),
(100,-326,o),
(96,-446,o),
(98,-576,cs),
(98,-680,o),
(130,-730,o),
(200,-730,cs),
(272,-730,o),
(298,-674,o),
(300,-610,cs),
(304,-484,o),
(302,-336,o),
(294,-216,cs)
);
}
);
width = 398;
},
{
layerId = "73BA353F-5B11-4DB0-9775-19E25D121032";
shapes = (
{
closed = 1;
nodes = (
(286,-100,o),
(264,-40,o),
(192,-40,cs),
(128,-40,o),
(106,-90,o),
(102,-182,cs),
(98,-298,o),
(92,-438,o),
(94,-618,cs),
(94,-678,o),
(126,-726,o),
(198,-726,cs),
(272,-726,o),
(300,-668,o),
(302,-600,cs),
(306,-468,o),
(300,-306,o),
(292,-188,cs)
);
}
);
width = 398;
},
{
layerId = "34BCA492-7EC7-4349-9547-1652F586AA1A";
shapes = (
{
closed = 1;
nodes = (
(308,-92,o),
(278,-26,o),
(194,-26,cs),
(118,-26,o),
(82,-86,o),
(86,-194,cs),
(90,-292,o),
(96,-418,o),
(108,-568,cs),
(112,-632,o),
(136,-684,o),
(200,-684,cs),
(270,-684,o),
(294,-622,o),
(298,-550,cs),
(306,-430,o),
(312,-286,o),
(310,-188,cs)
);
}
);
width = 398;
},
{
layerId = "7390BA8A-CD54-46A0-980C-73781B2212BF";
shapes = (
{
closed = 1;
nodes = (
(278,-88,o),
(248,-38,o),
(192,-38,cs),
(140,-38,o),
(106,-84,o),
(102,-166,cs),
(96,-266,o),
(94,-378,o),
(98,-544,cs),
(102,-636,o),
(128,-710,o),
(206,-710,cs),
(288,-710,o),
(316,-630,o),
(314,-536,cs),
(312,-412,o),
(302,-268,o),
(288,-160,cs)
);
}
);
width = 398;
}
);
unicode = 716;
},
{
glyphname = verticallinemod;
lastChange = "2021-03-26 14:55:29 +0000";
layers = (
{
layerId = "16FBD564-A0D0-4365-B77C-94A96DAC7D94";
shapes = (
{
closed = 1;
nodes = (
(124,814,o),
(154,764,o),
(210,764,cs),
(262,764,o),
(296,810,o),
(300,892,cs),
(306,992,o),
(308,1104,o),
(304,1270,cs),
(300,1362,o),
(274,1436,o),
(196,1436,cs),
(114,1436,o),
(86,1356,o),
(88,1262,cs),
(90,1138,o),
(100,994,o),
(114,886,cs)
);
}
